*
%FSLAX36Y36*%
%MOIN*%
%ADD10R,0.057000X0.057000*%
%ADD11R,0.011750X0.011750*%
%ADD12R,0.019620X0.019620*%
%ADD13R,0.025000X0.025000*%
%ADD14R,0.026000X0.026000*%
%ADD15R,0.028000X0.028000*%
%ADD16R,0.037000X0.037000*%
%ADD17R,0.051120X0.051120*%
%ADD18R,0.055000X0.055000*%
%ADD19R,0.007840X0.007840*%
%ADD20R,0.044000X0.044000*%
%ADD21R,0.074000X0.074000*%
%ADD22R,0.008000X0.008000*%
%ADD23R,0.012000X0.012000*%
%ADD24R,0.114110X0.114110*%
%ADD25R,0.018000X0.018000*%
%ADD26R,0.010000X0.010000*%
%ADD27R,0.011000X0.011000*%
%ADD28R,0.016000X0.016000*%
%ADD29R,0.041000X0.041000*%
%ADD30R,0.059000X0.059000*%
%ADD31R,0.071000X0.071000*%
%ADD32R,0.035370X0.035370*%
%ADD33R,0.094430X0.094430*%
%ADD34R,0.064000X0.064000*%
%ADD35R,0.106170X0.106170*%
%ADD36R,0.070740X0.070740*%
%ADD37R,0.017620X0.017620*%
%ADD38R,0.041240X0.041240*%
%ADD39R,0.121980X0.121980*%
%ADD40R,0.045180X0.045180*%
%ADD41R,0.151480X0.151480*%
%ADD42C,0.002000*%
%ADD43C,0.078740*%
%IPPOS*%
%LN042113091a0.tp*%
%LPD*%
G75*
G36*
X6195320Y1199680D02*
Y1299680D01*
X6295310D01*
Y1199680D01*
X6195320D01*
G37*
G36*
Y1080000D02*
Y1180000D01*
X6295310D01*
Y1080000D01*
X6195320D01*
G37*
G36*
X5505320Y1199680D02*
Y1299680D01*
X5605310D01*
Y1199680D01*
X5505320D01*
G37*
G36*
Y1080000D02*
Y1180000D01*
X5605310D01*
Y1080000D01*
X5505320D01*
G37*
G36*
X8994490Y3160000D02*
Y3260000D01*
X9094490D01*
Y3160000D01*
X8994490D01*
G37*
G36*
X8874800D02*
Y3260000D01*
X8974800D01*
Y3160000D01*
X8874800D01*
G37*
G36*
X8711930Y2048460D02*
Y2148460D01*
X8811930D01*
Y2048460D01*
X8711930D01*
G37*
G36*
Y1928780D02*
Y2028780D01*
X8811930D01*
Y1928780D01*
X8711930D01*
G37*
G36*
X8698460Y2602760D02*
Y2702760D01*
X8798460D01*
Y2602760D01*
X8698460D01*
G37*
G36*
Y2483070D02*
Y2583070D01*
X8798460D01*
Y2483070D01*
X8698460D01*
G37*
G36*
X8592240Y2048460D02*
Y2148460D01*
X8692240D01*
Y2048460D01*
X8592240D01*
G37*
G36*
Y1928780D02*
Y2028780D01*
X8692240D01*
Y1928780D01*
X8592240D01*
G37*
G36*
X8578780Y2602760D02*
Y2702760D01*
X8678780D01*
Y2602760D01*
X8578780D01*
G37*
G36*
Y2483070D02*
Y2583070D01*
X8678780D01*
Y2483070D01*
X8578780D01*
G37*
G36*
X6315000Y1199680D02*
Y1299680D01*
X6415000D01*
Y1199680D01*
X6315000D01*
G37*
G36*
Y1080000D02*
Y1180000D01*
X6415000D01*
Y1080000D01*
X6315000D01*
G37*
G36*
X5970000Y1199680D02*
Y1299680D01*
X6070000D01*
Y1199680D01*
X5970000D01*
G37*
G36*
Y1080000D02*
Y1180000D01*
X6070000D01*
Y1080000D01*
X5970000D01*
G37*
G36*
X5625000Y1199680D02*
Y1299680D01*
X5725000D01*
Y1199680D01*
X5625000D01*
G37*
G36*
Y1080000D02*
Y1180000D01*
X5725000D01*
Y1080000D01*
X5625000D01*
G37*
G36*
X5260000Y1199680D02*
Y1299680D01*
X5360000D01*
Y1199680D01*
X5260000D01*
G37*
G36*
Y1080000D02*
Y1180000D01*
X5360000D01*
Y1080000D01*
X5260000D01*
G37*
G36*
X5259690Y2177200D02*
Y2277200D01*
X5359690D01*
Y2177200D01*
X5259690D01*
G37*
G36*
X5140000D02*
Y2277200D01*
X5240000D01*
Y2177200D01*
X5140000D01*
G37*
G36*
X2113720Y2618990D02*
Y2718990D01*
X2213720D01*
Y2618990D01*
X2113720D01*
G37*
G36*
Y2499300D02*
Y2599300D01*
X2213720D01*
Y2499300D01*
X2113720D01*
G37*
G36*
X1994030Y2618990D02*
Y2718990D01*
X2094030D01*
Y2618990D01*
X1994030D01*
G37*
G36*
Y2499300D02*
Y2599300D01*
X2094030D01*
Y2499300D01*
X1994030D01*
G37*
G36*
X8994490Y3279680D02*
Y3379690D01*
X9094490D01*
Y3279680D01*
X8994490D01*
G37*
G36*
X8874800D02*
Y3379690D01*
X8974800D01*
Y3279680D01*
X8874800D01*
G37*
G36*
X5850310Y1199680D02*
Y1299680D01*
X5950320D01*
Y1199680D01*
X5850310D01*
G37*
G36*
Y1080000D02*
Y1180000D01*
X5950320D01*
Y1080000D01*
X5850310D01*
G37*
G36*
X5259690Y2296880D02*
Y2396890D01*
X5359690D01*
Y2296880D01*
X5259690D01*
G37*
G36*
X5140310Y1199680D02*
Y1299680D01*
X5240320D01*
Y1199680D01*
X5140310D01*
G37*
G36*
Y1080000D02*
Y1180000D01*
X5240320D01*
Y1080000D01*
X5140310D01*
G37*
G36*
X5140000Y2296880D02*
Y2396890D01*
X5240000D01*
Y2296880D01*
X5140000D01*
G37*
G54D10*
X6215000Y1471495D02*
Y1526605D01*
X6395000Y1471495D02*
Y1526605D01*
X6050000Y1471495D02*
Y1526605D01*
X5870000Y1471495D02*
Y1526605D01*
X5525000Y1471495D02*
Y1526605D01*
X5705000Y1471495D02*
Y1526605D01*
X5340000Y1471495D02*
Y1526605D01*
X5160000Y1471495D02*
Y1526605D01*
X8611690Y1727445D02*
Y1782555D01*
X8792800Y1727445D02*
Y1782555D01*
G54D11*
X8100215Y3100000D02*
X8108085D01*
X1660665Y1906250D02*
X1668535D01*
X7821465Y2830000D02*
X7829335D01*
G54D12*
X8104150Y3125590D03*
Y3074410D03*
X8033320Y3125590D03*
Y3074410D03*
X1735430Y1931840D03*
Y1880660D03*
X1664600Y1931840D03*
Y1880660D03*
X7825400Y2855590D03*
Y2804410D03*
X7754570Y2855590D03*
Y2804410D03*
G54D10*
X5505905Y2196650D02*
X5561015D01*
X5505905Y2377750D02*
X5561015D01*
X8377445Y2683310D02*
X8432555D01*
X8377445Y2502210D02*
X8432555D01*
X9240715Y3179450D02*
X9295825D01*
X9240715Y3360550D02*
X9295825D01*
X2359945Y2518750D02*
X2415055D01*
X2359945Y2699850D02*
X2415055D01*
G54D13*
X4248600Y2047500D02*
Y2052500D01*
X4301400Y2047500D02*
Y2052500D01*
X4388600Y1292500D02*
Y1297500D01*
X4441400Y1292500D02*
Y1297500D01*
X3256400Y1162500D02*
Y1167500D01*
X3203600Y1162500D02*
Y1167500D01*
X3256400Y1092500D02*
Y1097500D01*
X3203600Y1092500D02*
Y1097500D01*
X3268600Y1417500D02*
Y1422500D01*
X3321400Y1417500D02*
Y1422500D01*
X3268600Y1352500D02*
Y1357500D01*
X3321400Y1352500D02*
Y1357500D01*
X3326400Y1282500D02*
Y1287500D01*
X3273600Y1282500D02*
Y1287500D01*
X3078600Y1377500D02*
Y1382500D01*
X3131400Y1377500D02*
Y1382500D01*
X2132650Y1903750D02*
Y1908750D01*
X2079850Y1903750D02*
Y1908750D01*
X507650Y2216250D02*
Y2221250D01*
X454850Y2216250D02*
Y2221250D01*
X317350Y2216250D02*
Y2221250D01*
X370150Y2216250D02*
Y2221250D01*
X8167350Y2997500D02*
Y3002500D01*
X8220150Y2997500D02*
Y3002500D01*
X4573600Y2662500D02*
Y2667500D01*
X4626400Y2662500D02*
Y2667500D01*
X7876400Y3062500D02*
Y3067500D01*
X7823600Y3062500D02*
Y3067500D01*
X5856400Y2757500D02*
Y2762500D01*
X5803600Y2757500D02*
Y2762500D01*
X5878600Y2562500D02*
Y2567500D01*
X5931400Y2562500D02*
Y2567500D01*
X4626400Y2592500D02*
Y2597500D01*
X4573600Y2592500D02*
Y2597500D01*
X4248600Y1797500D02*
Y1802500D01*
X4301400Y1797500D02*
Y1802500D01*
X9325000Y3087500D02*
Y3092500D01*
X9272200Y3087500D02*
Y3092500D01*
X1832650Y1210000D02*
Y1215000D01*
X1779850Y1210000D02*
Y1215000D01*
X8013900Y2222500D02*
Y2227500D01*
X7961100Y2222500D02*
Y2227500D01*
X8238600Y2222500D02*
Y2227500D01*
X8291400Y2222500D02*
Y2227500D01*
Y2152500D02*
Y2157500D01*
X8238600Y2152500D02*
Y2157500D01*
X7961100Y2135000D02*
Y2140000D01*
X8013900Y2135000D02*
Y2140000D01*
X417350Y2722500D02*
Y2727500D01*
X470150Y2722500D02*
Y2727500D01*
X561100Y2847500D02*
Y2852500D01*
X613900Y2847500D02*
Y2852500D01*
X545150Y2447500D02*
Y2452500D01*
X492350Y2447500D02*
Y2452500D01*
X795150Y2972500D02*
Y2977500D01*
X742350Y2972500D02*
Y2977500D01*
X701400Y2760000D02*
Y2765000D01*
X648600Y2760000D02*
Y2765000D01*
X6066400Y2192500D02*
Y2197500D01*
X6013600Y2192500D02*
Y2197500D01*
X8604850Y1591250D02*
Y1596250D01*
X8657650Y1591250D02*
Y1596250D01*
X3183600Y2427500D02*
Y2432500D01*
X3236400Y2427500D02*
Y2432500D01*
X635000Y1187500D02*
Y1192500D01*
X582200Y1187500D02*
Y1192500D01*
X635000Y1122500D02*
Y1127500D01*
X582200Y1122500D02*
Y1127500D01*
X501400Y1022500D02*
Y1027500D01*
X448600Y1022500D02*
Y1027500D01*
X333600Y1022500D02*
Y1027500D01*
X386400Y1022500D02*
Y1027500D01*
X3626400Y2302500D02*
Y2307500D01*
X3573600Y2302500D02*
Y2307500D01*
X3236400Y2342500D02*
Y2347500D01*
X3183600Y2342500D02*
Y2347500D01*
X2167800Y382500D02*
Y387500D01*
X2115000Y382500D02*
Y387500D01*
X3621400Y2052500D02*
Y2057500D01*
X3568600Y2052500D02*
Y2057500D01*
X3621400Y1802500D02*
Y1807500D01*
X3568600Y1802500D02*
Y1807500D01*
X8727800Y1732500D02*
Y1737500D01*
X8675000Y1732500D02*
Y1737500D01*
X1867350Y1422500D02*
Y1427500D01*
X1920150Y1422500D02*
Y1427500D01*
X2211100Y235000D02*
Y240000D01*
X2263900Y235000D02*
Y240000D01*
X2329850Y235000D02*
Y240000D01*
X2382650Y235000D02*
Y240000D01*
X1923600Y1791250D02*
Y1796250D01*
X1976400Y1791250D02*
Y1796250D01*
X2202050Y2322500D02*
Y2327500D01*
X2254850Y2322500D02*
Y2327500D01*
X9097200Y2992500D02*
Y2997500D01*
X9150000Y2992500D02*
Y2997500D01*
X4388600Y1797500D02*
Y1802500D01*
X4441400Y1797500D02*
Y1802500D01*
X7741080Y2141250D02*
Y2146250D01*
X7793880Y2141250D02*
Y2146250D01*
X3621400Y1552500D02*
Y1557500D01*
X3568600Y1552500D02*
Y1557500D01*
X1396400Y612500D02*
Y617500D01*
X1343600Y612500D02*
Y617500D01*
X1811890Y466860D02*
Y471860D01*
X1759090Y466860D02*
Y471860D01*
X3126400Y1457500D02*
Y1462500D01*
X3073600Y1457500D02*
Y1462500D01*
X3126400Y1517500D02*
Y1522500D01*
X3073600Y1517500D02*
Y1522500D01*
X1295150Y2297500D02*
Y2302500D01*
X1242350Y2297500D02*
Y2302500D01*
X1295150Y1860000D02*
Y1865000D01*
X1242350Y1860000D02*
Y1865000D01*
X1343600Y732500D02*
Y737500D01*
X1396400Y732500D02*
Y737500D01*
X1343600Y792500D02*
Y797500D01*
X1396400Y792500D02*
Y797500D01*
X1343600Y852500D02*
Y857500D01*
X1396400Y852500D02*
Y857500D01*
X1684050Y466250D02*
Y471250D01*
X1631250Y466250D02*
Y471250D01*
X1343600Y912500D02*
Y917500D01*
X1396400Y912500D02*
Y917500D01*
X9261100Y2866250D02*
Y2871250D01*
X9313900Y2866250D02*
Y2871250D01*
X9798600Y3116550D02*
Y3121550D01*
X9851400Y3116550D02*
Y3121550D01*
X9742350Y3216250D02*
Y3221250D01*
X9795150Y3216250D02*
Y3221250D01*
X9361100Y1216250D02*
Y1221250D01*
X9413900Y1216250D02*
Y1221250D01*
X4388600Y1542500D02*
Y1547500D01*
X4441400Y1542500D02*
Y1547500D01*
X4248600Y1542500D02*
Y1547500D01*
X4301400Y1542500D02*
Y1547500D01*
X9413900Y1278750D02*
Y1283750D01*
X9361100Y1278750D02*
Y1283750D01*
X7066400Y3247500D02*
Y3252500D01*
X7013600Y3247500D02*
Y3252500D01*
X6941400Y3317500D02*
Y3322500D01*
X6888600Y3317500D02*
Y3322500D01*
X1088900Y1691250D02*
Y1696250D01*
X1036100Y1691250D02*
Y1696250D01*
X582650Y2660000D02*
Y2665000D01*
X529850Y2660000D02*
Y2665000D01*
X2870150Y578750D02*
Y583750D01*
X2817350Y578750D02*
Y583750D01*
X3132650Y1022500D02*
Y1027500D01*
X3079850Y1022500D02*
Y1027500D01*
X1417350Y2072500D02*
Y2077500D01*
X1470150Y2072500D02*
Y2077500D01*
X1617350Y2316250D02*
Y2321250D01*
X1670150Y2316250D02*
Y2321250D01*
X1242350Y2222500D02*
Y2227500D01*
X1295150Y2222500D02*
Y2227500D01*
X1148600Y1535000D02*
Y1540000D01*
X1201400Y1535000D02*
Y1540000D01*
X3326400Y660000D02*
Y665000D01*
X3273600Y660000D02*
Y665000D01*
X5648600Y2194700D02*
Y2199700D01*
X5701400Y2194700D02*
Y2199700D01*
X3488900Y1385000D02*
Y1390000D01*
X3436100Y1385000D02*
Y1390000D01*
X7618600Y2987500D02*
Y2992500D01*
X7671400Y2987500D02*
Y2992500D01*
X7498600Y2987500D02*
Y2992500D01*
X7551400Y2987500D02*
Y2992500D01*
X6578600Y3092500D02*
Y3097500D01*
X6631400Y3092500D02*
Y3097500D01*
X8069860Y1591250D02*
Y1596250D01*
X8122660Y1591250D02*
Y1596250D01*
X1736100Y2610000D02*
Y2615000D01*
X1788900Y2610000D02*
Y2615000D01*
X4916400Y2182500D02*
Y2187500D01*
X4863600Y2182500D02*
Y2187500D01*
X5871400Y2192500D02*
Y2197500D01*
X5818600Y2192500D02*
Y2197500D01*
X1323600Y297500D02*
Y302500D01*
X1376400Y297500D02*
Y302500D01*
X4928600Y2687500D02*
Y2692500D01*
X4981400Y2687500D02*
Y2692500D01*
X4703600Y2392500D02*
Y2397500D01*
X4756400Y2392500D02*
Y2397500D01*
X5923600Y2462500D02*
Y2467500D01*
X5976400Y2462500D02*
Y2467500D01*
X1323600Y366250D02*
Y371250D01*
X1376400Y366250D02*
Y371250D01*
X4008600Y3227500D02*
Y3232500D01*
X4061400Y3227500D02*
Y3232500D01*
Y3297500D02*
Y3302500D01*
X4008600Y3297500D02*
Y3302500D01*
X1788900Y2316250D02*
Y2321250D01*
X1736100Y2316250D02*
Y2321250D01*
X3442350Y1160000D02*
Y1165000D01*
X3495150Y1160000D02*
Y1165000D01*
X1951400Y2991250D02*
Y2996250D01*
X1898600Y2991250D02*
Y2996250D01*
X2412650Y3326250D02*
Y3331250D01*
X2359850Y3326250D02*
Y3331250D01*
X5583600Y2757500D02*
Y2762500D01*
X5636400Y2757500D02*
Y2762500D01*
X2432650Y2897500D02*
Y2902500D01*
X2379850Y2897500D02*
Y2902500D01*
X8286100Y2997500D02*
Y3002500D01*
X8338900Y2997500D02*
Y3002500D01*
X179850Y960000D02*
Y965000D01*
X232650Y960000D02*
Y965000D01*
X6941400Y3247500D02*
Y3252500D01*
X6888600Y3247500D02*
Y3252500D01*
X1920150Y1360000D02*
Y1365000D01*
X1867350Y1360000D02*
Y1365000D01*
X4928600Y2757500D02*
Y2762500D01*
X4981400Y2757500D02*
Y2762500D01*
X111100Y1203750D02*
Y1208750D01*
X163900Y1203750D02*
Y1208750D01*
X7336080Y2242500D02*
Y2247500D01*
X7388880Y2242500D02*
Y2247500D01*
X4133600Y3297500D02*
Y3302500D01*
X4186400Y3297500D02*
Y3302500D01*
X2432650Y2972500D02*
Y2977500D01*
X2379850Y2972500D02*
Y2977500D01*
X2359850Y3401250D02*
Y3406250D01*
X2412650Y3401250D02*
Y3406250D01*
X1826400Y2991250D02*
Y2996250D01*
X1773600Y2991250D02*
Y2996250D01*
X2841400Y2297500D02*
Y2302500D01*
X2894200Y2297500D02*
Y2302500D01*
X313900Y1203750D02*
Y1208750D01*
X261100Y1203750D02*
Y1208750D01*
X3273600Y2037500D02*
Y2042500D01*
X3326400Y2037500D02*
Y2042500D01*
X3088600Y1917500D02*
Y1922500D01*
X3141400Y1917500D02*
Y1922500D01*
X3121400Y2092500D02*
Y2097500D01*
X3068600Y2092500D02*
Y2097500D01*
X582650Y2722500D02*
Y2727500D01*
X529850Y2722500D02*
Y2727500D01*
X761100Y2760000D02*
Y2765000D01*
X813900Y2760000D02*
Y2765000D01*
X3116400Y2202500D02*
Y2207500D01*
X3063600Y2202500D02*
Y2207500D01*
X7336080Y2302500D02*
Y2307500D01*
X7388880Y2302500D02*
Y2307500D01*
X500000Y962500D02*
Y967500D01*
X447200Y962500D02*
Y967500D01*
X335000Y962500D02*
Y967500D01*
X387800Y962500D02*
Y967500D01*
X828600Y1027500D02*
Y1032500D01*
X881400Y1027500D02*
Y1032500D01*
X828600Y1087500D02*
Y1092500D01*
X881400Y1087500D02*
Y1092500D01*
X1057650Y947500D02*
Y952500D01*
X1004850Y947500D02*
Y952500D01*
X1057650Y1010000D02*
Y1015000D01*
X1004850Y1010000D02*
Y1015000D01*
X1604850Y403750D02*
Y408750D01*
X1657650Y403750D02*
Y408750D01*
X1861100Y403750D02*
Y408750D01*
X1913900Y403750D02*
Y408750D01*
X1729850Y403750D02*
Y408750D01*
X1782650Y403750D02*
Y408750D01*
X1888900Y891250D02*
Y896250D01*
X1836100Y891250D02*
Y896250D01*
X1343600Y672500D02*
Y677500D01*
X1396400Y672500D02*
Y677500D01*
X2511100Y2135000D02*
Y2140000D01*
X2563900Y2135000D02*
Y2140000D01*
X7013600Y3177500D02*
Y3182500D01*
X7066400Y3177500D02*
Y3182500D01*
X2103600Y742500D02*
Y747500D01*
X2156400Y742500D02*
Y747500D01*
X9982650Y3072500D02*
Y3077500D01*
X9929850Y3072500D02*
Y3077500D01*
X2103600Y642500D02*
Y647500D01*
X2156400Y642500D02*
Y647500D01*
X3131400Y922320D02*
Y927320D01*
X3078600Y922320D02*
Y927320D01*
X2536100Y1785000D02*
Y1790000D01*
X2588900Y1785000D02*
Y1790000D01*
X2863900Y1797500D02*
Y1802500D01*
X2811100Y1797500D02*
Y1802500D01*
X2761100Y478750D02*
Y483750D01*
X2813900Y478750D02*
Y483750D01*
X2926400Y478750D02*
Y483750D01*
X2873600Y478750D02*
Y483750D01*
X1267350Y2072500D02*
Y2077500D01*
X1320150Y2072500D02*
Y2077500D01*
X1326400Y2372500D02*
Y2377500D01*
X1273600Y2372500D02*
Y2377500D01*
X1795150Y2510000D02*
Y2515000D01*
X1742350Y2510000D02*
Y2515000D01*
X1295150Y2147500D02*
Y2152500D01*
X1242350Y2147500D02*
Y2152500D01*
X5416400Y2492500D02*
Y2497500D01*
X5363600Y2492500D02*
Y2497500D01*
X2126400Y2822500D02*
Y2827500D01*
X2073600Y2822500D02*
Y2827500D01*
X4061400Y3157500D02*
Y3162500D01*
X4008600Y3157500D02*
Y3162500D01*
X2088900Y2991250D02*
Y2996250D01*
X2036100Y2991250D02*
Y2996250D01*
X1186400Y1937500D02*
Y1942500D01*
X1133600Y1937500D02*
Y1942500D01*
X9170150Y3066250D02*
Y3071250D01*
X9117350Y3066250D02*
Y3071250D01*
X1420150Y2297500D02*
Y2302500D01*
X1367350Y2297500D02*
Y2302500D01*
X4301400Y1292500D02*
Y1297500D01*
X4248600Y1292500D02*
Y1297500D01*
X4441400Y2047500D02*
Y2052500D01*
X4388600Y2047500D02*
Y2052500D01*
X1054850Y1422500D02*
Y1427500D01*
X1107650Y1422500D02*
Y1427500D01*
X2359850Y3251250D02*
Y3256250D01*
X2412650Y3251250D02*
Y3256250D01*
X761100Y2697500D02*
Y2702500D01*
X813900Y2697500D02*
Y2702500D01*
X4162500Y1958600D02*
X4167500D01*
X4162500Y2011400D02*
X4167500D01*
X3472500Y1620150D02*
X3477500D01*
X3472500Y1567350D02*
X3477500D01*
X2235000Y1936100D02*
X2240000D01*
X2235000Y1988900D02*
X2240000D01*
X7872500Y2942350D02*
X7877500D01*
X7872500Y2995150D02*
X7877500D01*
X7953750D02*
X7958750D01*
X7953750Y2942350D02*
X7958750D01*
X5922500Y2633600D02*
X5927500D01*
X5922500Y2686400D02*
X5927500D01*
X5852500D02*
X5857500D01*
X5852500Y2633600D02*
X5857500D01*
X4457500Y2613600D02*
X4462500D01*
X4457500Y2666400D02*
X4462500D01*
X4457500Y2733600D02*
X4462500D01*
X4457500Y2786400D02*
X4462500D01*
X4622500Y2733600D02*
X4627500D01*
X4622500Y2786400D02*
X4627500D01*
X4527500Y2733600D02*
X4532500D01*
X4527500Y2786400D02*
X4532500D01*
X4692500Y2733600D02*
X4697500D01*
X4692500Y2786400D02*
X4697500D01*
X7802500Y2942350D02*
X7807500D01*
X7802500Y2995150D02*
X7807500D01*
X4387500Y2666400D02*
X4392500D01*
X4387500Y2613600D02*
X4392500D01*
X8497500Y1753600D02*
X8502500D01*
X8497500Y1806400D02*
X8502500D01*
X8497500Y2363900D02*
X8502500D01*
X8497500Y2311100D02*
X8502500D01*
X416250Y2657650D02*
X421250D01*
X416250Y2604850D02*
X421250D01*
X697500Y2357650D02*
X702500D01*
X697500Y2304850D02*
X702500D01*
X772500Y2501400D02*
X777500D01*
X772500Y2448600D02*
X777500D01*
X8572500Y2363900D02*
X8577500D01*
X8572500Y2311100D02*
X8577500D01*
X8278750Y2632650D02*
X8283750D01*
X8278750Y2579850D02*
X8283750D01*
X8177500Y2481400D02*
X8182500D01*
X8177500Y2428600D02*
X8182500D01*
X7972500Y2486400D02*
X7977500D01*
X7972500Y2433600D02*
X7977500D01*
X8285000Y2913900D02*
X8290000D01*
X8285000Y2861100D02*
X8290000D01*
X257500Y1053600D02*
X262500D01*
X257500Y1106400D02*
X262500D01*
X2960290Y2298600D02*
X2965290D01*
X2960290Y2351400D02*
X2965290D01*
X8228750Y1895150D02*
X8233750D01*
X8228750Y1842350D02*
X8233750D01*
X8078750Y2632650D02*
X8083750D01*
X8078750Y2579850D02*
X8083750D01*
X2043900Y1565000D02*
X2048900D01*
X2043900Y1617800D02*
X2048900D01*
X2447500Y236100D02*
X2452500D01*
X2447500Y288900D02*
X2452500D01*
X2941250Y1870150D02*
X2946250D01*
X2941250Y1817350D02*
X2946250D01*
X2353750Y1936100D02*
X2358750D01*
X2353750Y1988900D02*
X2358750D01*
X3402500Y1835230D02*
X3407500D01*
X3402500Y1888030D02*
X3407500D01*
X3402500Y1698600D02*
X3407500D01*
X3402500Y1751400D02*
X3407500D01*
X9260000Y2982650D02*
X9265000D01*
X9260000Y2929850D02*
X9265000D01*
X4162500Y2261400D02*
X4167500D01*
X4162500Y2208600D02*
X4167500D01*
X4162500Y1511400D02*
X4167500D01*
X4162500Y1458600D02*
X4167500D01*
X1541250Y1911100D02*
X1546250D01*
X1541250Y1963900D02*
X1546250D01*
X1842500Y998600D02*
X1847500D01*
X1842500Y1051400D02*
X1847500D01*
X8178750Y2579850D02*
X8183750D01*
X8178750Y2632650D02*
X8183750D01*
X1647500Y1070150D02*
X1652500D01*
X1647500Y1017350D02*
X1652500D01*
X9428750Y3011100D02*
X9433750D01*
X9428750Y3063900D02*
X9433750D01*
X7828750Y2301400D02*
X7833750D01*
X7828750Y2248600D02*
X7833750D01*
X9283130Y3296400D02*
X9288130D01*
X9283130Y3243600D02*
X9288130D01*
X647500Y2648600D02*
X652500D01*
X647500Y2701400D02*
X652500D01*
X9666250Y3270150D02*
X9671250D01*
X9666250Y3217350D02*
X9671250D01*
X7671860Y1600000D02*
X7676860D01*
X7671860Y1652800D02*
X7676860D01*
X3487500Y2137800D02*
X3492500D01*
X3487500Y2085000D02*
X3492500D01*
X4162500Y1761400D02*
X4167500D01*
X4162500Y1708600D02*
X4167500D01*
X3487500Y1871400D02*
X3492500D01*
X3487500Y1818600D02*
X3492500D01*
X1510000Y2229850D02*
X1515000D01*
X1510000Y2282650D02*
X1515000D01*
X1322500Y1982650D02*
X1327500D01*
X1322500Y1929850D02*
X1327500D01*
X2478750Y2520150D02*
X2483750D01*
X2478750Y2467350D02*
X2483750D01*
X1578750Y1017350D02*
X1583750D01*
X1578750Y1070150D02*
X1583750D01*
X3360000Y1161100D02*
X3365000D01*
X3360000Y1213900D02*
X3365000D01*
X6577500Y2798600D02*
X6582500D01*
X6577500Y2851400D02*
X6582500D01*
X4987500Y2288600D02*
X4992500D01*
X4987500Y2341400D02*
X4992500D01*
X4857500Y2688600D02*
X4862500D01*
X4857500Y2741400D02*
X4862500D01*
X1828750Y2913900D02*
X1833750D01*
X1828750Y2861100D02*
X1833750D01*
X2278750Y3182650D02*
X2283750D01*
X2278750Y3129850D02*
X2283750D01*
X5052500Y2761400D02*
X5057500D01*
X5052500Y2708600D02*
X5057500D01*
X497500Y843600D02*
X502500D01*
X497500Y896400D02*
X502500D01*
X937500Y1083600D02*
X942500D01*
X937500Y1136400D02*
X942500D01*
X1012500Y1083600D02*
X1017500D01*
X1012500Y1136400D02*
X1017500D01*
X3153750Y636400D02*
X3158750D01*
X3153750Y583600D02*
X3158750D01*
X5272500Y2798600D02*
X5277500D01*
X5272500Y2745800D02*
X5277500D01*
X5352500Y2800000D02*
X5357500D01*
X5352500Y2747200D02*
X5357500D01*
X403750Y2120150D02*
X408750D01*
X403750Y2067350D02*
X408750D01*
X335000Y2120150D02*
X340000D01*
X335000Y2067350D02*
X340000D01*
X6784980Y1768600D02*
X6789980D01*
X6784980Y1821400D02*
X6789980D01*
X6557500Y1773600D02*
X6562500D01*
X6557500Y1826400D02*
X6562500D01*
X72500Y1723600D02*
X77500D01*
X72500Y1776400D02*
X77500D01*
X72500Y1363900D02*
X77500D01*
X72500Y1311100D02*
X77500D01*
X72500Y1873600D02*
X77500D01*
X72500Y1926400D02*
X77500D01*
X7328750Y2111100D02*
X7333750D01*
X7328750Y2163900D02*
X7333750D01*
X3402500Y1553600D02*
X3407500D01*
X3402500Y1606400D02*
X3407500D01*
X2787500Y2380000D02*
X2792500D01*
X2787500Y2432800D02*
X2792500D01*
X2947500Y636400D02*
X2952500D01*
X2947500Y583600D02*
X2952500D01*
X7810000Y2551400D02*
X7815000D01*
X7810000Y2498600D02*
X7815000D01*
X1541250Y1845150D02*
X1546250D01*
X1541250Y1792350D02*
X1546250D01*
X8057500Y2906400D02*
X8062500D01*
X8057500Y2853600D02*
X8062500D01*
X628750Y2357650D02*
X633750D01*
X628750Y2304850D02*
X633750D01*
X197500Y1053600D02*
X202500D01*
X197500Y1106400D02*
X202500D01*
X603750Y1004850D02*
X608750D01*
X603750Y1057650D02*
X608750D01*
X9185000Y2867350D02*
X9190000D01*
X9185000Y2920150D02*
X9190000D01*
X2322500Y567350D02*
X2327500D01*
X2322500Y620150D02*
X2327500D01*
X3077500Y1161400D02*
X3082500D01*
X3077500Y1108600D02*
X3082500D01*
X9091250Y2867350D02*
X9096250D01*
X9091250Y2920150D02*
X9096250D01*
X10053750Y2832650D02*
X10058750D01*
X10053750Y2779850D02*
X10058750D01*
X2316250Y1720150D02*
X2321250D01*
X2316250Y1667350D02*
X2321250D01*
X2028750Y1204850D02*
X2033750D01*
X2028750Y1257650D02*
X2033750D01*
X3077500Y1258600D02*
X3082500D01*
X3077500Y1311400D02*
X3082500D01*
X2716250Y583600D02*
X2721250D01*
X2716250Y636400D02*
X2721250D01*
X2866250Y1738900D02*
X2871250D01*
X2866250Y1686100D02*
X2871250D01*
X2487500Y1726400D02*
X2492500D01*
X2487500Y1673600D02*
X2492500D01*
X2597500Y583600D02*
X2602500D01*
X2597500Y636400D02*
X2602500D01*
X2803750Y1738900D02*
X2808750D01*
X2803750Y1686100D02*
X2808750D01*
X2035000Y1004850D02*
X2040000D01*
X2035000Y1057650D02*
X2040000D01*
X3085000Y583600D02*
X3090000D01*
X3085000Y636400D02*
X3090000D01*
X3016250Y583600D02*
X3021250D01*
X3016250Y636400D02*
X3021250D01*
X1785000Y1879850D02*
X1790000D01*
X1785000Y1932650D02*
X1790000D01*
X1303750Y2479850D02*
X1308750D01*
X1303750Y2532650D02*
X1308750D01*
X1245000Y2726400D02*
X1250000D01*
X1245000Y2673600D02*
X1250000D01*
X4787500Y2741400D02*
X4792500D01*
X4787500Y2688600D02*
X4792500D01*
X7403750Y2111100D02*
X7408750D01*
X7403750Y2163900D02*
X7408750D01*
X272500Y2120150D02*
X277500D01*
X272500Y2067350D02*
X277500D01*
X1066250Y1295150D02*
X1071250D01*
X1066250Y1242350D02*
X1071250D01*
X1253750Y1373600D02*
X1258750D01*
X1253750Y1426400D02*
X1258750D01*
X1178750D02*
X1183750D01*
X1178750Y1373600D02*
X1183750D01*
X1810000Y1795150D02*
X1815000D01*
X1810000Y1742350D02*
X1815000D01*
G54D14*
X4242690Y1458390D02*
X4250690D01*
X4242690Y1381610D02*
X4250690D01*
X6214310Y2341610D02*
X6222310D01*
X6214310Y2418390D02*
X6222310D01*
X4222690Y2653390D02*
X4230690D01*
X4222690Y2576610D02*
X4230690D01*
X2236000Y390000D02*
X2244000D01*
X2236000Y313230D02*
X2244000D01*
X8000570Y1581610D02*
X8008570D01*
X8000570Y1658390D02*
X8008570D01*
X8539310Y1580360D02*
X8547310D01*
X8539310Y1657140D02*
X8547310D01*
X8337690Y1843390D02*
X8345690D01*
X8337690Y1766610D02*
X8345690D01*
X3265190Y838390D02*
X3273190D01*
X3265190Y761610D02*
X3273190D01*
X1076810Y1536610D02*
X1084810D01*
X1076810Y1613390D02*
X1084810D01*
X7576470Y1581610D02*
X7584470D01*
X7576470Y1658390D02*
X7584470D01*
X4913060Y2261610D02*
X4921060D01*
X4913060Y2338390D02*
X4921060D01*
X4242690Y2208390D02*
X4250690D01*
X4242690Y2131610D02*
X4250690D01*
X4242690Y1958390D02*
X4250690D01*
X4242690Y1881610D02*
X4250690D01*
X4242690Y1708390D02*
X4250690D01*
X4242690Y1631610D02*
X4250690D01*
X4826440Y2469640D02*
X4834440D01*
X4826440Y2392860D02*
X4834440D01*
X5899310Y2291610D02*
X5907310D01*
X5899310Y2368390D02*
X5907310D01*
X6059310Y2291610D02*
X6067310D01*
X6059310Y2368390D02*
X6067310D01*
X8299310Y2696610D02*
X8307310D01*
X8299310Y2773390D02*
X8307310D01*
X552690Y3013390D02*
X560690D01*
X552690Y2936610D02*
X560690D01*
X8072690Y2773390D02*
X8080690D01*
X8072690Y2696610D02*
X8080690D01*
X8358060Y1580360D02*
X8366060D01*
X8358060Y1657140D02*
X8366060D01*
X8752690Y2982140D02*
X8760690D01*
X8752690Y2905360D02*
X8760690D01*
X5642690Y2370590D02*
X5650690D01*
X5642690Y2293810D02*
X5650690D01*
X6664310Y2936610D02*
X6672310D01*
X6664310Y3013390D02*
X6672310D01*
X7229310Y3211610D02*
X7237310D01*
X7229310Y3288390D02*
X7237310D01*
X7433060Y1586610D02*
X7441060D01*
X7433060Y1663390D02*
X7441060D01*
X3265190Y975890D02*
X3273190D01*
X3265190Y899110D02*
X3273190D01*
X7874310Y1581610D02*
X7882310D01*
X7874310Y1658390D02*
X7882310D01*
X3254310Y2201610D02*
X3262310D01*
X3254310Y2278390D02*
X3262310D01*
X2346440Y3144640D02*
X2354440D01*
X2346440Y3067860D02*
X2354440D01*
G54D15*
X4330310Y1420000D02*
X4336310D01*
X6128690Y2380000D02*
X6134690D01*
X4310310Y2615000D02*
X4316310D01*
X2323610Y351610D02*
X2329610D01*
X7914950Y1620000D02*
X7920950D01*
X8453690Y1618750D02*
X8459690D01*
X8425310Y1805000D02*
X8431310D01*
X3352810Y800000D02*
X3358810D01*
X991190Y1575000D02*
X997190D01*
X7490860Y1620000D02*
X7496860D01*
X4827440Y2300000D02*
X4833440D01*
X4330310Y2170000D02*
X4336310D01*
X4330310Y1920000D02*
X4336310D01*
X4330310Y1670000D02*
X4336310D01*
X4914060Y2431250D02*
X4920060D01*
X5813690Y2330000D02*
X5819690D01*
X5973690D02*
X5979690D01*
X8213690Y2735000D02*
X8219690D01*
X640310Y2975000D02*
X646310D01*
X8160310Y2735000D02*
X8166310D01*
X8272440Y1618750D02*
X8278440D01*
X8840310Y2943750D02*
X8846310D01*
X5730310Y2332200D02*
X5736310D01*
X6578690Y2975000D02*
X6584690D01*
X7143690Y3250000D02*
X7149690D01*
X7347440Y1625000D02*
X7353440D01*
X3352810Y937500D02*
X3358810D01*
X7788690Y1620000D02*
X7794690D01*
X3168690Y2240000D02*
X3174690D01*
X2434060Y3106250D02*
X2440060D01*
G54D14*
X4088390Y1214310D02*
Y1222310D01*
X4011610Y1214310D02*
Y1222310D01*
X7901610Y2772690D02*
Y2780690D01*
X7978390Y2772690D02*
Y2780690D01*
X4536610Y2437690D02*
Y2445690D01*
X4613390Y2437690D02*
Y2445690D01*
X488390Y3008060D02*
Y3016060D01*
X411610Y3008060D02*
Y3016060D01*
X9396610Y3122690D02*
Y3130690D01*
X9473390Y3122690D02*
Y3130690D01*
X3507140Y1320560D02*
Y1328560D01*
X3430360Y1320560D02*
Y1328560D01*
X582140Y2595560D02*
Y2603560D01*
X505360Y2595560D02*
Y2603560D01*
X482140Y2870560D02*
Y2878560D01*
X405360Y2870560D02*
Y2878560D01*
X794640Y2908060D02*
Y2916060D01*
X717860Y2908060D02*
Y2916060D01*
X813390Y2639310D02*
Y2647310D01*
X736610Y2639310D02*
Y2647310D01*
X8236610Y2277690D02*
Y2285690D01*
X8313390Y2277690D02*
Y2285690D01*
X8031610Y2277690D02*
Y2285690D01*
X8108390Y2277690D02*
Y2285690D01*
X8241610Y2427690D02*
Y2435690D01*
X8318390Y2427690D02*
Y2435690D01*
X8041610Y2427690D02*
Y2435690D01*
X8118390Y2427690D02*
Y2435690D01*
X1361610Y1790190D02*
Y1798190D01*
X1438390Y1790190D02*
Y1798190D01*
X3556610Y2132690D02*
Y2140690D01*
X3633390Y2132690D02*
Y2140690D01*
X3556610Y1867690D02*
Y1875690D01*
X3633390Y1867690D02*
Y1875690D01*
X3556610Y1617690D02*
Y1625690D01*
X3633390Y1617690D02*
Y1625690D01*
X3556610Y1367690D02*
Y1375690D01*
X3633390Y1367690D02*
Y1375690D01*
X1399110Y1921440D02*
Y1929440D01*
X1475890Y1921440D02*
Y1929440D01*
X4836610Y2527690D02*
Y2535690D01*
X4913390Y2527690D02*
Y2535690D01*
X8091610Y2137690D02*
Y2145690D01*
X8168390Y2137690D02*
Y2145690D01*
X5731610Y2447690D02*
Y2455690D01*
X5808390Y2447690D02*
Y2455690D01*
X8130360Y2846440D02*
Y2854440D01*
X8207140Y2846440D02*
Y2854440D01*
X624110Y2446440D02*
Y2454440D01*
X700890Y2446440D02*
Y2454440D01*
X9526610Y3122690D02*
Y3130690D01*
X9603390Y3122690D02*
Y3130690D01*
X7596610Y2732690D02*
Y2740690D01*
X7673390Y2732690D02*
Y2740690D01*
X2623390Y2501810D02*
Y2509810D01*
X2546610Y2501810D02*
Y2509810D01*
X4701610Y2527690D02*
Y2535690D01*
X4778390Y2527690D02*
Y2535690D01*
X3923390Y3244310D02*
Y3252310D01*
X3846610Y3244310D02*
Y3252310D01*
X1905360Y2833940D02*
Y2841940D01*
X1982140Y2833940D02*
Y2841940D01*
X1219640Y1215190D02*
Y1223190D01*
X1142860Y1215190D02*
Y1223190D01*
G54D15*
X4050000Y1128690D02*
Y1134690D01*
X7940000Y2860310D02*
Y2866310D01*
X4575000Y2525310D02*
Y2531310D01*
X450000Y2922440D02*
Y2928440D01*
X9435000Y3210310D02*
Y3216310D01*
X3468750Y1234940D02*
Y1240940D01*
X543750Y2509940D02*
Y2515940D01*
X443750Y2784940D02*
Y2790940D01*
X756250Y2822440D02*
Y2828440D01*
X775000Y2553690D02*
Y2559690D01*
X8275000Y2365310D02*
Y2371310D01*
X8070000Y2365310D02*
Y2371310D01*
X8280000Y2515310D02*
Y2521310D01*
X8080000Y2515310D02*
Y2521310D01*
X1400000Y1877810D02*
Y1883810D01*
X3595000Y2220310D02*
Y2226310D01*
Y1955310D02*
Y1961310D01*
Y1705310D02*
Y1711310D01*
Y1455310D02*
Y1461310D01*
X1437500Y2009060D02*
Y2015060D01*
X4875000Y2615310D02*
Y2621310D01*
X8130000Y2225310D02*
Y2231310D01*
X5770000Y2535310D02*
Y2541310D01*
X8168750Y2934060D02*
Y2940060D01*
X662500Y2534060D02*
Y2540060D01*
X9565000Y3210310D02*
Y3216310D01*
X7635000Y2820310D02*
Y2826310D01*
X2585000Y2416190D02*
Y2422190D01*
X4740000Y2615310D02*
Y2621310D01*
X3885000Y3158690D02*
Y3164690D01*
X1943750Y2921560D02*
Y2927560D01*
X1181250Y1302810D02*
Y1308810D01*
G54D16*
X3264000Y1493000D02*
Y1507000D01*
X3336000Y1493000D02*
Y1507000D01*
X1979750Y1711750D02*
Y1725750D01*
X1907750Y1711750D02*
Y1725750D01*
X2746000Y1663000D02*
Y1677000D01*
X2674000Y1663000D02*
Y1677000D01*
X2464000Y426070D02*
Y440070D01*
X2536000Y426070D02*
Y440070D01*
X664000Y1961500D02*
Y1975500D01*
X736000Y1961500D02*
Y1975500D01*
X3331000Y2118000D02*
Y2132000D01*
X3259000Y2118000D02*
Y2132000D01*
X7398480Y2368000D02*
Y2382000D01*
X7326480Y2368000D02*
Y2382000D01*
X9920250Y2986750D02*
Y3000750D01*
X9992250Y2986750D02*
Y3000750D01*
X307750Y2293000D02*
Y2307000D01*
X379750Y2293000D02*
Y2307000D01*
X523500Y2293000D02*
Y2307000D01*
X451500Y2293000D02*
Y2307000D01*
X9920250Y2899250D02*
Y2913250D01*
X9992250Y2899250D02*
Y2913250D01*
X936000Y953000D02*
Y967000D01*
X864000Y953000D02*
Y967000D01*
X6291000Y2723000D02*
Y2737000D01*
X6219000Y2723000D02*
Y2737000D01*
X6641500Y1720500D02*
Y1734500D01*
X6713500Y1720500D02*
Y1734500D01*
X6641480Y1808000D02*
Y1822000D01*
X6713480Y1808000D02*
Y1822000D01*
X9448500Y2930500D02*
Y2944500D01*
X9376500Y2930500D02*
Y2944500D01*
X7599000Y2903000D02*
Y2917000D01*
X7671000Y2903000D02*
Y2917000D01*
X6579000Y3168000D02*
Y3182000D01*
X6651000Y3168000D02*
Y3182000D01*
X3069000Y1998000D02*
Y2012000D01*
X3141000Y1998000D02*
Y2012000D01*
G54D17*
X9359130Y3330060D02*
Y3359940D01*
X9532130Y3330060D02*
Y3359940D01*
X10561500Y2955060D02*
Y2984940D01*
X10388500Y2955060D02*
Y2984940D01*
X10713500Y2955060D02*
Y2984940D01*
X10886500Y2955060D02*
Y2984940D01*
X9032250Y1397560D02*
Y1427440D01*
X9205250Y1397560D02*
Y1427440D01*
G54D18*
X1127160Y2256250D03*
X772840D03*
X1127160Y2356250D03*
X772840D03*
X4048570Y2207580D03*
X3694240D03*
X4048570Y2307580D03*
X3694240D03*
X4048570Y1957580D03*
X3694240D03*
X4048570Y2057580D03*
X3694240D03*
X4048570Y1707580D03*
X3694240D03*
X4048570Y1807580D03*
X3694240D03*
X4048570Y1457580D03*
X3694240D03*
X4048570Y1557580D03*
X3694240D03*
X3579090Y1256250D03*
X3933410D03*
X3579090Y1156250D03*
X3933410D03*
G54D19*
X461175Y1115160D02*
X480865D01*
X461175Y1134840D02*
X480865D01*
X461175Y1095470D02*
X480865D01*
X461175Y1154530D02*
X480865D01*
X339135Y1095470D02*
X358825D01*
X339135Y1154530D02*
X358825D01*
X339135Y1115160D02*
X358825D01*
X339135Y1134840D02*
X358825D01*
G54D20*
X3236550Y1827460D02*
Y1857460D01*
X3144030Y1827460D02*
Y1857460D01*
X3329070Y1827460D02*
Y1857460D01*
G54D21*
X3201550Y1594460D02*
X3271550D01*
G54D20*
X7735000Y2317520D02*
X7765000D01*
X7735000Y2410040D02*
X7765000D01*
X7735000Y2225000D02*
X7765000D01*
G54D21*
X7502000Y2282520D02*
Y2352520D01*
G54D22*
X1811750Y833270D02*
X1862750D01*
X1811750Y813580D02*
X1862750D01*
X1811750Y793900D02*
X1862750D01*
X1811750Y774210D02*
X1862750D01*
X1811750Y754530D02*
X1862750D01*
X1811750Y734840D02*
X1862750D01*
X1811750Y715160D02*
X1862750D01*
X1811750Y695470D02*
X1862750D01*
X1811750Y675790D02*
X1862750D01*
X1811750Y656100D02*
X1862750D01*
X1811750Y636420D02*
X1862750D01*
X1811750Y616730D02*
X1862750D01*
X1487250Y833270D02*
X1538250D01*
X1487250Y813580D02*
X1538250D01*
X1487250Y793900D02*
X1538250D01*
X1487250Y774210D02*
X1538250D01*
X1487250Y754530D02*
X1538250D01*
X1487250Y734840D02*
X1538250D01*
X1487250Y715160D02*
X1538250D01*
X1487250Y695470D02*
X1538250D01*
X1487250Y675790D02*
X1538250D01*
X1487250Y656100D02*
X1538250D01*
X1487250Y636420D02*
X1538250D01*
X1487250Y616730D02*
X1538250D01*
X1783270Y537250D02*
Y588250D01*
X1763580Y537250D02*
Y588250D01*
X1743900Y537250D02*
Y588250D01*
X1724210Y537250D02*
Y588250D01*
X1704530Y537250D02*
Y588250D01*
X1684840Y537250D02*
Y588250D01*
X1665160Y537250D02*
Y588250D01*
X1645470Y537250D02*
Y588250D01*
X1625790Y537250D02*
Y588250D01*
X1606100Y537250D02*
Y588250D01*
X1586420Y537250D02*
Y588250D01*
X1566730Y537250D02*
Y588250D01*
X1783270Y861750D02*
Y912750D01*
X1763580Y861750D02*
Y912750D01*
X1743900Y861750D02*
Y912750D01*
X1724210Y861750D02*
Y912750D01*
X1704530Y861750D02*
Y912750D01*
X1684840Y861750D02*
Y912750D01*
X1665160Y861750D02*
Y912750D01*
X1645470Y861750D02*
Y912750D01*
X1625790Y861750D02*
Y912750D01*
X1606100Y861750D02*
Y912750D01*
X1586420Y861750D02*
Y912750D01*
X1566730Y861750D02*
Y912750D01*
G54D23*
X9553810Y2994050D02*
X9599810D01*
X9780190D02*
X9826190D01*
X9553810Y3019650D02*
X9599810D01*
X9553810Y3045240D02*
X9599810D01*
X9553810Y3070830D02*
X9599810D01*
X9780190D02*
X9826190D01*
X9780190Y3019650D02*
X9826190D01*
X9780190Y3045240D02*
X9826190D01*
X9553810Y2968470D02*
X9599810D01*
X9553810Y2917280D02*
X9599810D01*
X9553810Y2942870D02*
X9599810D01*
X9780190Y2968470D02*
X9826190D01*
X9780190Y2942870D02*
X9826190D01*
X9780190Y2917280D02*
X9826190D01*
G54D24*
X9690000Y2992080D02*
Y2996020D01*
G54D25*
X1350970Y2143850D02*
X1370970D01*
X1350970Y2218650D02*
X1370970D01*
X1441530Y2143850D02*
X1461530D01*
X1441530Y2218650D02*
X1461530D01*
X1441530Y2181250D02*
X1461530D01*
X2560280Y2043650D02*
X2580280D01*
X2560280Y1968850D02*
X2580280D01*
X2469720Y2043650D02*
X2489720D01*
X2469720Y1968850D02*
X2489720D01*
X2560280Y2006250D02*
X2580280D01*
X2469700D02*
X2489700D01*
X3014720Y2272600D02*
X3034720D01*
X3014720Y2347400D02*
X3034720D01*
X3105280Y2272600D02*
X3125280D01*
X3105280Y2347400D02*
X3125280D01*
X3014720Y2310000D02*
X3034720D01*
X3105300D02*
X3125300D01*
G54D22*
X2246540Y1530520D02*
Y1581520D01*
X2226850Y1530520D02*
Y1581520D01*
X2344960Y1530520D02*
Y1581520D01*
X2325280Y1530520D02*
Y1581520D01*
X2305590Y1530520D02*
Y1581520D01*
X2285910Y1530520D02*
Y1581520D01*
X2266220Y1530520D02*
Y1581520D01*
X2541810Y1530520D02*
Y1581520D01*
X2522130Y1530520D02*
Y1581520D01*
X2502440Y1530520D02*
Y1581520D01*
X2482760Y1530520D02*
Y1581520D01*
X2463070Y1530520D02*
Y1581520D01*
X2443390Y1530520D02*
Y1581520D01*
X2423700Y1530520D02*
Y1581520D01*
X2404020Y1530520D02*
Y1581520D01*
X2640240Y1530520D02*
Y1581520D01*
X2620550Y1530520D02*
Y1581520D01*
X2600870Y1530520D02*
Y1581520D01*
X2581180Y1530520D02*
Y1581520D01*
X2561500Y1530520D02*
Y1581520D01*
X2384330Y1530520D02*
Y1581520D01*
X2659920Y1530520D02*
Y1581520D01*
X2856770Y1530520D02*
Y1581520D01*
X2837090Y1530520D02*
Y1581520D01*
X2817400Y1530520D02*
Y1581520D01*
X2797720Y1530520D02*
Y1581520D01*
X2778030Y1530520D02*
Y1581520D01*
X2758350Y1530520D02*
Y1581520D01*
X2738660Y1530520D02*
Y1581520D01*
X2718980Y1530520D02*
Y1581520D01*
X2699290Y1530520D02*
Y1581520D01*
X2915830Y1530520D02*
Y1581520D01*
X2896140Y1530520D02*
Y1581520D01*
X2876460Y1530520D02*
Y1581520D01*
X2226850Y695880D02*
Y746880D01*
X2246540Y695880D02*
Y746880D01*
X2285910Y695880D02*
Y746880D01*
X2305590Y695880D02*
Y746880D01*
X2325280Y695880D02*
Y746880D01*
X2344960Y695880D02*
Y746880D01*
X2266220Y695880D02*
Y746880D01*
X2404020Y695880D02*
Y746880D01*
X2423700Y695880D02*
Y746880D01*
X2443390Y695880D02*
Y746880D01*
X2482760Y695880D02*
Y746880D01*
X2502440Y695880D02*
Y746880D01*
X2522130Y695880D02*
Y746880D01*
X2541810Y695880D02*
Y746880D01*
X2600870Y695880D02*
Y746880D01*
X2620550Y695880D02*
Y746880D01*
X2640240Y695880D02*
Y746880D01*
X2561500Y695880D02*
Y746880D01*
X2581180Y695880D02*
Y746880D01*
X2384330Y695880D02*
Y746880D01*
X2659920Y695880D02*
Y746880D01*
X2463070Y695880D02*
Y746880D01*
X2699290Y695880D02*
Y746880D01*
X2718980Y695880D02*
Y746880D01*
X2738660Y695880D02*
Y746880D01*
X2758350Y695880D02*
Y746880D01*
X2778030Y695880D02*
Y746880D01*
X2797720Y695880D02*
Y746880D01*
X2817400Y695880D02*
Y746880D01*
X2837090Y695880D02*
Y746880D01*
X2856770Y695880D02*
Y746880D01*
X2896140Y695880D02*
Y746880D01*
X2915830Y695880D02*
Y746880D01*
X2876460Y695880D02*
Y746880D01*
X2364650Y1530520D02*
Y1581520D01*
X2679610Y1530520D02*
Y1581520D01*
X2364650Y695880D02*
Y746880D01*
X2679610Y695880D02*
Y746880D01*
X2128520Y1483190D02*
X2179520D01*
X2128520Y1463500D02*
X2179520D01*
X2128520Y1424130D02*
X2179520D01*
X2128520Y1404450D02*
X2179520D01*
X2128520Y1384760D02*
X2179520D01*
X2128520Y1365080D02*
X2179520D01*
X2128520Y1345390D02*
X2179520D01*
X2128520Y1325710D02*
X2179520D01*
X2128520Y1306020D02*
X2179520D01*
X2128520Y1286340D02*
X2179520D01*
X2128520Y1266650D02*
X2179520D01*
X2128520Y1246970D02*
X2179520D01*
X2128520Y1227280D02*
X2179520D01*
X2128520Y1207600D02*
X2179520D01*
X2128520Y1187910D02*
X2179520D01*
X2128520Y1168230D02*
X2179520D01*
X2128520Y1109170D02*
X2179520D01*
X2128520Y1089490D02*
X2179520D01*
X2128520Y1069800D02*
X2179520D01*
X2128520Y1050120D02*
X2179520D01*
X2128520Y1030430D02*
X2179520D01*
X2128520Y1010750D02*
X2179520D01*
X2128520Y991060D02*
X2179520D01*
X2128520Y971380D02*
X2179520D01*
X2128520Y951690D02*
X2179520D01*
X2128520Y932010D02*
X2179520D01*
X2128520Y912320D02*
X2179520D01*
X2128520Y892640D02*
X2179520D01*
X2128520Y872950D02*
X2179520D01*
X2128520Y853270D02*
X2179520D01*
X2128520Y813900D02*
X2179520D01*
X2128520Y794210D02*
X2179520D01*
X2963160Y1463500D02*
X3014160D01*
X2963160Y1483190D02*
X3014160D01*
X2963160Y1168230D02*
X3014160D01*
X2963160Y1187910D02*
X3014160D01*
X2963160Y1207600D02*
X3014160D01*
X2963160Y1227280D02*
X3014160D01*
X2963160Y1246970D02*
X3014160D01*
X2963160Y1266650D02*
X3014160D01*
X2963160Y1286340D02*
X3014160D01*
X2963160Y1306020D02*
X3014160D01*
X2963160Y1325710D02*
X3014160D01*
X2963160Y1345390D02*
X3014160D01*
X2963160Y1365080D02*
X3014160D01*
X2963160Y1384760D02*
X3014160D01*
X2963160Y1404450D02*
X3014160D01*
X2963160Y1424130D02*
X3014160D01*
X2963160Y853270D02*
X3014160D01*
X2963160Y872950D02*
X3014160D01*
X2963160Y892640D02*
X3014160D01*
X2963160Y912320D02*
X3014160D01*
X2963160Y932010D02*
X3014160D01*
X2963160Y951690D02*
X3014160D01*
X2963160Y971380D02*
X3014160D01*
X2963160Y991060D02*
X3014160D01*
X2963160Y1010750D02*
X3014160D01*
X2963160Y1030430D02*
X3014160D01*
X2963160Y1050120D02*
X3014160D01*
X2963160Y1069800D02*
X3014160D01*
X2963160Y1089490D02*
X3014160D01*
X2963160Y1109170D02*
X3014160D01*
X2963160Y794210D02*
X3014160D01*
X2963160Y813900D02*
X3014160D01*
X2128520Y1443820D02*
X2179520D01*
X2128520Y1148540D02*
X2179520D01*
X2128520Y1128860D02*
X2179520D01*
X2128520Y833580D02*
X2179520D01*
X2963160Y1128860D02*
X3014160D01*
X2963160Y1148540D02*
X3014160D01*
X2963160Y1443820D02*
X3014160D01*
X2963160Y833580D02*
X3014160D01*
G54D26*
X1836910Y2450150D02*
Y2462150D01*
X1888090Y2450150D02*
Y2462150D01*
X1836910Y2375350D02*
Y2387350D01*
X1888090Y2375350D02*
Y2387350D01*
X1862500Y2450150D02*
Y2462150D01*
Y2375350D02*
Y2387350D01*
G54D24*
X1531250Y2475000D03*
G54D27*
X1386820Y2436610D02*
X1441820D01*
X1386820Y2462200D02*
X1441820D01*
X1620680D02*
X1675680D01*
X1620680Y2436610D02*
X1675680D01*
X1386820Y2487800D02*
X1441820D01*
X1386820Y2513390D02*
X1441820D01*
X1386820Y2538980D02*
X1441820D01*
X1386820Y2564570D02*
X1441820D01*
X1620680D02*
X1675680D01*
X1620680Y2538980D02*
X1675680D01*
X1620680Y2513390D02*
X1675680D01*
X1620680Y2487800D02*
X1675680D01*
X1386820Y2385430D02*
X1441820D01*
X1386820Y2411020D02*
X1441820D01*
X1620680D02*
X1675680D01*
X1620680Y2385430D02*
X1675680D01*
G54D25*
X9565000Y2599550D02*
Y2638550D01*
X9515000Y2599550D02*
Y2638550D01*
Y2799560D02*
Y2838560D01*
X9565000Y2799560D02*
Y2838560D01*
X9615000Y2599550D02*
Y2638550D01*
X9665000Y2599550D02*
Y2638550D01*
X9615000Y2799560D02*
Y2838560D01*
X9665000Y2799560D02*
Y2838560D01*
X9825000Y2599550D02*
Y2638550D01*
X9775000Y2599550D02*
Y2638550D01*
Y2799560D02*
Y2838560D01*
X9825000Y2799560D02*
Y2838560D01*
X9875000Y2599550D02*
Y2638550D01*
X9925000Y2599550D02*
Y2638550D01*
X9875000Y2799560D02*
Y2838560D01*
X9925000Y2799560D02*
Y2838560D01*
G54D28*
X1921500Y641750D02*
Y643750D01*
Y610250D02*
Y612250D01*
X1984500Y641750D02*
Y643750D01*
Y610250D02*
Y612250D01*
X1921500Y673240D02*
Y675240D01*
X1984500Y673240D02*
Y675240D01*
X1921500Y578760D02*
Y580760D01*
X1984500Y578760D02*
Y580760D01*
X1922010Y801990D02*
Y803990D01*
Y770500D02*
Y772500D01*
X1985000Y801990D02*
Y803990D01*
Y770500D02*
Y772500D01*
X1922010Y833490D02*
Y835490D01*
X1985000Y833490D02*
Y835490D01*
X1922010Y739000D02*
Y741000D01*
X1985000Y739000D02*
Y741000D01*
X3164750Y836500D02*
X3166750D01*
X3133250D02*
X3135250D01*
X3164750Y773500D02*
X3166750D01*
X3133250D02*
X3135250D01*
X3196240Y836500D02*
X3198240D01*
X3196240Y773500D02*
X3198240D01*
X3101760Y836500D02*
X3103760D01*
X3101760Y773500D02*
X3103760D01*
G54D29*
X8397000Y2307910D02*
X8413000D01*
X8397000Y2422090D02*
X8413000D01*
X2872000Y2380830D02*
X2888000D01*
X2872000Y2495000D02*
X2888000D01*
X3322000Y2225830D02*
X3338000D01*
X3322000Y2340000D02*
X3338000D01*
X1223250Y2486660D02*
X1239250D01*
X1223250Y2600840D02*
X1239250D01*
X1135750Y2486660D02*
X1151750D01*
X1135750Y2600840D02*
X1151750D01*
X1217000Y1070840D02*
X1233000D01*
X1217000Y956660D02*
X1233000D01*
X5532910Y2474200D02*
Y2490200D01*
X5647090Y2474200D02*
Y2490200D01*
X4482910Y1167000D02*
Y1183000D01*
X4597090Y1167000D02*
Y1183000D01*
X4480410Y542000D02*
Y558000D01*
X4594590Y542000D02*
Y558000D01*
X2417910Y2598250D02*
Y2614250D01*
X2532090Y2598250D02*
Y2614250D01*
X9082090Y2229500D02*
Y2245500D01*
X8967910Y2229500D02*
Y2245500D01*
X3088340Y2442000D02*
Y2458000D01*
X2974160Y2442000D02*
Y2458000D01*
X9388340Y1573250D02*
Y1589250D01*
X9274160Y1573250D02*
Y1589250D01*
X9224160Y2229500D02*
Y2245500D01*
X9338340Y2229500D02*
Y2245500D01*
G54D30*
X7178900Y2761500D02*
Y2828500D01*
X7401100Y2761500D02*
Y2828500D01*
X6641100Y2626500D02*
Y2693500D01*
X6418900Y2626500D02*
Y2693500D01*
G54D31*
X1513490Y271250D02*
X1652490D01*
X1887510D02*
X2026510D01*
X2637240Y331250D02*
X2776240D01*
X3011260D02*
X3150260D01*
G54D32*
X2645000Y1742360D02*
Y1801420D01*
X2745000Y1742360D02*
Y1801420D01*
G54D33*
X2695000Y1939215D02*
Y2077005D01*
G54D34*
X307250Y328200D02*
X380250D01*
X307250Y509300D02*
X380250D01*
G54D35*
X8955750Y1865785D02*
Y1964215D01*
X9345510Y1865785D02*
Y1964215D01*
X8992620Y2532035D02*
Y2630465D01*
X9382380Y2532035D02*
Y2630465D01*
G54D36*
X2845040Y2138900D02*
X2974960D01*
X2845040Y2001100D02*
X2974960D01*
G54D34*
X9171800Y1544750D02*
Y1617750D01*
X8990700Y1544750D02*
Y1617750D01*
X10144450Y2593500D02*
Y2666500D01*
X10325550Y2593500D02*
Y2666500D01*
G54D37*
X7184410Y2950000D02*
X7235590D01*
X7184410Y3000000D02*
X7235590D01*
X7364410D02*
X7415590D01*
X7364410Y2950000D02*
X7415590D01*
X6420000Y2984410D02*
Y3035590D01*
X6470000Y2984410D02*
Y3035590D01*
Y2804410D02*
Y2855590D01*
X6420000Y2804410D02*
Y2855590D01*
G54D38*
X1402500Y2661610D02*
Y2693110D01*
X1502500Y2661610D02*
Y2693110D01*
Y2956890D02*
Y2988390D01*
X1402500Y2956890D02*
Y2988390D01*
G54D39*
X7578790Y576670D02*
Y598330D01*
X7208710Y576670D02*
Y598330D01*
X8710040Y576670D02*
Y598330D01*
X8339960Y576670D02*
Y598330D01*
X8147540Y576670D02*
Y598330D01*
X7777460Y576670D02*
Y598330D01*
G54D25*
X2865740Y2230000D02*
X2891740D01*
X2958260D02*
X2984260D01*
X2046990Y2906250D02*
X2072990D01*
X2139510D02*
X2165510D01*
X8640740Y2350000D02*
X8666740D01*
X8733260D02*
X8759260D01*
G54D30*
X1242500Y2820000D03*
Y2970000D03*
X5020000Y2445000D03*
Y2595000D03*
X5465000Y2593600D03*
Y2743600D03*
X5165000Y2517200D03*
Y2667200D03*
X7050000Y2760000D03*
Y2910000D03*
X6440000Y3300000D03*
Y3150000D03*
X2275000Y2837500D03*
Y2987500D03*
X1657500Y2820000D03*
Y2970000D03*
X5605000Y2650000D03*
X5755000D03*
X1800000Y2106250D03*
X1650000D03*
X6910000Y3040000D03*
X7060000D03*
X6130000Y2845000D03*
X6280000D03*
G54D40*
X98030Y1072090D02*
X101970D01*
X98030Y957910D02*
X101970D01*
X503030Y657910D02*
X506970D01*
X503030Y772090D02*
X506970D01*
G54D25*
X5275000Y2552940D02*
Y2578940D01*
Y2645460D02*
Y2671460D01*
X5355000Y2554340D02*
Y2580340D01*
Y2646860D02*
Y2672860D01*
G54D16*
X7730500Y2501500D02*
X7744500D01*
X7730500Y2573500D02*
X7744500D01*
X1093000Y1084000D02*
X1107000D01*
X1093000Y1156000D02*
X1107000D01*
X3143000Y1311000D02*
X3157000D01*
X3143000Y1239000D02*
X3157000D01*
X1911750Y1261000D02*
X1925750D01*
X1911750Y1189000D02*
X1925750D01*
X7503000Y2916000D02*
X7517000D01*
X7503000Y2844000D02*
X7517000D01*
X550750Y1300000D02*
X611750D01*
X550750Y1422050D02*
X611750D01*
X10129500Y2763980D02*
X10190500D01*
X10129500Y2886020D02*
X10190500D01*
X10279500Y2763980D02*
X10340500D01*
X10279500Y2886020D02*
X10340500D01*
X7207730Y1950750D02*
Y2011750D01*
X7329770Y1950750D02*
Y2011750D01*
G54D17*
X10535060Y2678500D02*
X10564940D01*
X10535060Y2851500D02*
X10564940D01*
X10700060Y2678500D02*
X10729940D01*
X10700060Y2851500D02*
X10729940D01*
G36*
X10200000Y640340D02*
X10114300Y726040D01*
X10200000Y811740D01*
X10285700Y726040D01*
X10200000Y640340D01*
G37*
G36*
Y39300D02*
X10114300Y125000D01*
X10200000Y210700D01*
X10285700Y125000D01*
X10200000Y39300D01*
G37*
G36*
X9598960D02*
X9513260Y125000D01*
X9598960Y210700D01*
X9684660Y125000D01*
X9598960Y39300D01*
G37*
G36*
Y640340D02*
X9513260Y726040D01*
X9598960Y811740D01*
X9684660Y726040D01*
X9598960Y640340D01*
G37*
G54D41*
X9455860Y618750D02*
X9534600D01*
X9455860Y225050D02*
X9534600D01*
X10266880D02*
X10345620D01*
X10266880Y618750D02*
X10345620D01*
G54D21*
X1849000Y2081250D02*
Y2131250D01*
X1601000Y2081250D02*
Y2131250D01*
G54D18*
X1638000Y2093250D02*
Y2122250D01*
X1808000Y2093250D02*
Y2122250D01*
X6595000Y1935500D02*
Y1964500D01*
X6765000Y1935500D02*
Y1964500D01*
G54D12*
X1783220Y1531250D02*
X1820620D01*
X1783220Y1581250D02*
X1820620D01*
X1783220Y1631250D02*
X1820620D01*
X1783220Y1681250D02*
X1820620D01*
X1491880Y1531250D02*
X1529280D01*
X1491880Y1581250D02*
X1529280D01*
X1491880Y1631250D02*
X1529280D01*
X1491880Y1681250D02*
X1529280D01*
G54D42*
X0Y0D02*
X11100000D01*
Y3503940D01*
X0D02*
X11100000D01*
X0Y0D02*
Y3503940D01*
G36*
X6195320Y4703620D02*
Y4803620D01*
X6295310D01*
Y4703620D01*
X6195320D01*
G37*
G36*
Y4583940D02*
Y4683940D01*
X6295310D01*
Y4583940D01*
X6195320D01*
G37*
G36*
X5505320Y4703620D02*
Y4803620D01*
X5605310D01*
Y4703620D01*
X5505320D01*
G37*
G36*
Y4583940D02*
Y4683940D01*
X5605310D01*
Y4583940D01*
X5505320D01*
G37*
G36*
X8994490Y6663940D02*
Y6763940D01*
X9094490D01*
Y6663940D01*
X8994490D01*
G37*
G36*
X8874800D02*
Y6763940D01*
X8974800D01*
Y6663940D01*
X8874800D01*
G37*
G36*
X8711930Y5552400D02*
Y5652400D01*
X8811930D01*
Y5552400D01*
X8711930D01*
G37*
G36*
Y5432720D02*
Y5532720D01*
X8811930D01*
Y5432720D01*
X8711930D01*
G37*
G36*
X8698460Y6106700D02*
Y6206700D01*
X8798460D01*
Y6106700D01*
X8698460D01*
G37*
G36*
Y5987010D02*
Y6087010D01*
X8798460D01*
Y5987010D01*
X8698460D01*
G37*
G36*
X8592240Y5552400D02*
Y5652400D01*
X8692240D01*
Y5552400D01*
X8592240D01*
G37*
G36*
Y5432720D02*
Y5532720D01*
X8692240D01*
Y5432720D01*
X8592240D01*
G37*
G36*
X8578780Y6106700D02*
Y6206700D01*
X8678780D01*
Y6106700D01*
X8578780D01*
G37*
G36*
Y5987010D02*
Y6087010D01*
X8678780D01*
Y5987010D01*
X8578780D01*
G37*
G36*
X6315000Y4703620D02*
Y4803620D01*
X6415000D01*
Y4703620D01*
X6315000D01*
G37*
G36*
Y4583940D02*
Y4683940D01*
X6415000D01*
Y4583940D01*
X6315000D01*
G37*
G36*
X5970000Y4703620D02*
Y4803620D01*
X6070000D01*
Y4703620D01*
X5970000D01*
G37*
G36*
Y4583940D02*
Y4683940D01*
X6070000D01*
Y4583940D01*
X5970000D01*
G37*
G36*
X5625000Y4703620D02*
Y4803620D01*
X5725000D01*
Y4703620D01*
X5625000D01*
G37*
G36*
Y4583940D02*
Y4683940D01*
X5725000D01*
Y4583940D01*
X5625000D01*
G37*
G36*
X5260000Y4703620D02*
Y4803620D01*
X5360000D01*
Y4703620D01*
X5260000D01*
G37*
G36*
Y4583940D02*
Y4683940D01*
X5360000D01*
Y4583940D01*
X5260000D01*
G37*
G36*
X5259690Y5681140D02*
Y5781140D01*
X5359690D01*
Y5681140D01*
X5259690D01*
G37*
G36*
X5140000D02*
Y5781140D01*
X5240000D01*
Y5681140D01*
X5140000D01*
G37*
G36*
X2113720Y6122930D02*
Y6222930D01*
X2213720D01*
Y6122930D01*
X2113720D01*
G37*
G36*
Y6003240D02*
Y6103240D01*
X2213720D01*
Y6003240D01*
X2113720D01*
G37*
G36*
X1994030Y6122930D02*
Y6222930D01*
X2094030D01*
Y6122930D01*
X1994030D01*
G37*
G36*
Y6003240D02*
Y6103240D01*
X2094030D01*
Y6003240D01*
X1994030D01*
G37*
G36*
X8994490Y6783620D02*
Y6883630D01*
X9094490D01*
Y6783620D01*
X8994490D01*
G37*
G36*
X8874800D02*
Y6883630D01*
X8974800D01*
Y6783620D01*
X8874800D01*
G37*
G36*
X5850310Y4703620D02*
Y4803620D01*
X5950320D01*
Y4703620D01*
X5850310D01*
G37*
G36*
Y4583940D02*
Y4683940D01*
X5950320D01*
Y4583940D01*
X5850310D01*
G37*
G36*
X5259690Y5800820D02*
Y5900830D01*
X5359690D01*
Y5800820D01*
X5259690D01*
G37*
G36*
X5140310Y4703620D02*
Y4803620D01*
X5240320D01*
Y4703620D01*
X5140310D01*
G37*
G36*
Y4583940D02*
Y4683940D01*
X5240320D01*
Y4583940D01*
X5140310D01*
G37*
G36*
X5140000Y5800820D02*
Y5900830D01*
X5240000D01*
Y5800820D01*
X5140000D01*
G37*
G54D10*
X6215000Y4975435D02*
Y5030545D01*
X6395000Y4975435D02*
Y5030545D01*
X6050000Y4975435D02*
Y5030545D01*
X5870000Y4975435D02*
Y5030545D01*
X5525000Y4975435D02*
Y5030545D01*
X5705000Y4975435D02*
Y5030545D01*
X5340000Y4975435D02*
Y5030545D01*
X5160000Y4975435D02*
Y5030545D01*
X8611690Y5231385D02*
Y5286495D01*
X8792800Y5231385D02*
Y5286495D01*
G54D11*
X8100215Y6603940D02*
X8108085D01*
X1660665Y5410190D02*
X1668535D01*
X7821465Y6333940D02*
X7829335D01*
G54D12*
X8104150Y6629530D03*
Y6578350D03*
X8033320Y6629530D03*
Y6578350D03*
X1735430Y5435780D03*
Y5384600D03*
X1664600Y5435780D03*
Y5384600D03*
X7825400Y6359530D03*
Y6308350D03*
X7754570Y6359530D03*
Y6308350D03*
G54D10*
X5505905Y5700590D02*
X5561015D01*
X5505905Y5881690D02*
X5561015D01*
X8377445Y6187250D02*
X8432555D01*
X8377445Y6006150D02*
X8432555D01*
X9240715Y6683390D02*
X9295825D01*
X9240715Y6864490D02*
X9295825D01*
X2359945Y6022690D02*
X2415055D01*
X2359945Y6203790D02*
X2415055D01*
G54D13*
X4248600Y5551440D02*
Y5556440D01*
X4301400Y5551440D02*
Y5556440D01*
X4388600Y4796440D02*
Y4801440D01*
X4441400Y4796440D02*
Y4801440D01*
X3256400Y4666440D02*
Y4671440D01*
X3203600Y4666440D02*
Y4671440D01*
X3256400Y4596440D02*
Y4601440D01*
X3203600Y4596440D02*
Y4601440D01*
X3268600Y4921440D02*
Y4926440D01*
X3321400Y4921440D02*
Y4926440D01*
X3268600Y4856440D02*
Y4861440D01*
X3321400Y4856440D02*
Y4861440D01*
X3326400Y4786440D02*
Y4791440D01*
X3273600Y4786440D02*
Y4791440D01*
X3078600Y4881440D02*
Y4886440D01*
X3131400Y4881440D02*
Y4886440D01*
X2132650Y5407690D02*
Y5412690D01*
X2079850Y5407690D02*
Y5412690D01*
X507650Y5720190D02*
Y5725190D01*
X454850Y5720190D02*
Y5725190D01*
X317350Y5720190D02*
Y5725190D01*
X370150Y5720190D02*
Y5725190D01*
X8167350Y6501440D02*
Y6506440D01*
X8220150Y6501440D02*
Y6506440D01*
X4573600Y6166440D02*
Y6171440D01*
X4626400Y6166440D02*
Y6171440D01*
X7876400Y6566440D02*
Y6571440D01*
X7823600Y6566440D02*
Y6571440D01*
X5856400Y6261440D02*
Y6266440D01*
X5803600Y6261440D02*
Y6266440D01*
X5878600Y6066440D02*
Y6071440D01*
X5931400Y6066440D02*
Y6071440D01*
X4626400Y6096440D02*
Y6101440D01*
X4573600Y6096440D02*
Y6101440D01*
X4248600Y5301440D02*
Y5306440D01*
X4301400Y5301440D02*
Y5306440D01*
X9325000Y6591440D02*
Y6596440D01*
X9272200Y6591440D02*
Y6596440D01*
X1832650Y4713940D02*
Y4718940D01*
X1779850Y4713940D02*
Y4718940D01*
X8013900Y5726440D02*
Y5731440D01*
X7961100Y5726440D02*
Y5731440D01*
X8238600Y5726440D02*
Y5731440D01*
X8291400Y5726440D02*
Y5731440D01*
Y5656440D02*
Y5661440D01*
X8238600Y5656440D02*
Y5661440D01*
X7961100Y5638940D02*
Y5643940D01*
X8013900Y5638940D02*
Y5643940D01*
X417350Y6226440D02*
Y6231440D01*
X470150Y6226440D02*
Y6231440D01*
X561100Y6351440D02*
Y6356440D01*
X613900Y6351440D02*
Y6356440D01*
X545150Y5951440D02*
Y5956440D01*
X492350Y5951440D02*
Y5956440D01*
X795150Y6476440D02*
Y6481440D01*
X742350Y6476440D02*
Y6481440D01*
X701400Y6263940D02*
Y6268940D01*
X648600Y6263940D02*
Y6268940D01*
X6066400Y5696440D02*
Y5701440D01*
X6013600Y5696440D02*
Y5701440D01*
X8604850Y5095190D02*
Y5100190D01*
X8657650Y5095190D02*
Y5100190D01*
X3183600Y5931440D02*
Y5936440D01*
X3236400Y5931440D02*
Y5936440D01*
X635000Y4691440D02*
Y4696440D01*
X582200Y4691440D02*
Y4696440D01*
X635000Y4626440D02*
Y4631440D01*
X582200Y4626440D02*
Y4631440D01*
X501400Y4526440D02*
Y4531440D01*
X448600Y4526440D02*
Y4531440D01*
X333600Y4526440D02*
Y4531440D01*
X386400Y4526440D02*
Y4531440D01*
X3626400Y5806440D02*
Y5811440D01*
X3573600Y5806440D02*
Y5811440D01*
X3236400Y5846440D02*
Y5851440D01*
X3183600Y5846440D02*
Y5851440D01*
X2167800Y3886440D02*
Y3891440D01*
X2115000Y3886440D02*
Y3891440D01*
X3621400Y5556440D02*
Y5561440D01*
X3568600Y5556440D02*
Y5561440D01*
X3621400Y5306440D02*
Y5311440D01*
X3568600Y5306440D02*
Y5311440D01*
X8727800Y5236440D02*
Y5241440D01*
X8675000Y5236440D02*
Y5241440D01*
X1867350Y4926440D02*
Y4931440D01*
X1920150Y4926440D02*
Y4931440D01*
X2211100Y3738940D02*
Y3743940D01*
X2263900Y3738940D02*
Y3743940D01*
X2329850Y3738940D02*
Y3743940D01*
X2382650Y3738940D02*
Y3743940D01*
X1923600Y5295190D02*
Y5300190D01*
X1976400Y5295190D02*
Y5300190D01*
X2202050Y5826440D02*
Y5831440D01*
X2254850Y5826440D02*
Y5831440D01*
X9097200Y6496440D02*
Y6501440D01*
X9150000Y6496440D02*
Y6501440D01*
X4388600Y5301440D02*
Y5306440D01*
X4441400Y5301440D02*
Y5306440D01*
X7741080Y5645190D02*
Y5650190D01*
X7793880Y5645190D02*
Y5650190D01*
X3621400Y5056440D02*
Y5061440D01*
X3568600Y5056440D02*
Y5061440D01*
X1396400Y4116440D02*
Y4121440D01*
X1343600Y4116440D02*
Y4121440D01*
X1811890Y3970800D02*
Y3975800D01*
X1759090Y3970800D02*
Y3975800D01*
X3126400Y4961440D02*
Y4966440D01*
X3073600Y4961440D02*
Y4966440D01*
X3126400Y5021440D02*
Y5026440D01*
X3073600Y5021440D02*
Y5026440D01*
X1295150Y5801440D02*
Y5806440D01*
X1242350Y5801440D02*
Y5806440D01*
X1295150Y5363940D02*
Y5368940D01*
X1242350Y5363940D02*
Y5368940D01*
X1343600Y4236440D02*
Y4241440D01*
X1396400Y4236440D02*
Y4241440D01*
X1343600Y4296440D02*
Y4301440D01*
X1396400Y4296440D02*
Y4301440D01*
X1343600Y4356440D02*
Y4361440D01*
X1396400Y4356440D02*
Y4361440D01*
X1684050Y3970190D02*
Y3975190D01*
X1631250Y3970190D02*
Y3975190D01*
X1343600Y4416440D02*
Y4421440D01*
X1396400Y4416440D02*
Y4421440D01*
X9261100Y6370190D02*
Y6375190D01*
X9313900Y6370190D02*
Y6375190D01*
X9798600Y6620490D02*
Y6625490D01*
X9851400Y6620490D02*
Y6625490D01*
X9742350Y6720190D02*
Y6725190D01*
X9795150Y6720190D02*
Y6725190D01*
X9361100Y4720190D02*
Y4725190D01*
X9413900Y4720190D02*
Y4725190D01*
X4388600Y5046440D02*
Y5051440D01*
X4441400Y5046440D02*
Y5051440D01*
X4248600Y5046440D02*
Y5051440D01*
X4301400Y5046440D02*
Y5051440D01*
X9413900Y4782690D02*
Y4787690D01*
X9361100Y4782690D02*
Y4787690D01*
X7066400Y6751440D02*
Y6756440D01*
X7013600Y6751440D02*
Y6756440D01*
X6941400Y6821440D02*
Y6826440D01*
X6888600Y6821440D02*
Y6826440D01*
X1088900Y5195190D02*
Y5200190D01*
X1036100Y5195190D02*
Y5200190D01*
X582650Y6163940D02*
Y6168940D01*
X529850Y6163940D02*
Y6168940D01*
X2870150Y4082690D02*
Y4087690D01*
X2817350Y4082690D02*
Y4087690D01*
X3132650Y4526440D02*
Y4531440D01*
X3079850Y4526440D02*
Y4531440D01*
X1417350Y5576440D02*
Y5581440D01*
X1470150Y5576440D02*
Y5581440D01*
X1617350Y5820190D02*
Y5825190D01*
X1670150Y5820190D02*
Y5825190D01*
X1242350Y5726440D02*
Y5731440D01*
X1295150Y5726440D02*
Y5731440D01*
X1148600Y5038940D02*
Y5043940D01*
X1201400Y5038940D02*
Y5043940D01*
X3326400Y4163940D02*
Y4168940D01*
X3273600Y4163940D02*
Y4168940D01*
X5648600Y5698640D02*
Y5703640D01*
X5701400Y5698640D02*
Y5703640D01*
X3488900Y4888940D02*
Y4893940D01*
X3436100Y4888940D02*
Y4893940D01*
X7618600Y6491440D02*
Y6496440D01*
X7671400Y6491440D02*
Y6496440D01*
X7498600Y6491440D02*
Y6496440D01*
X7551400Y6491440D02*
Y6496440D01*
X6578600Y6596440D02*
Y6601440D01*
X6631400Y6596440D02*
Y6601440D01*
X8069860Y5095190D02*
Y5100190D01*
X8122660Y5095190D02*
Y5100190D01*
X1736100Y6113940D02*
Y6118940D01*
X1788900Y6113940D02*
Y6118940D01*
X4916400Y5686440D02*
Y5691440D01*
X4863600Y5686440D02*
Y5691440D01*
X5871400Y5696440D02*
Y5701440D01*
X5818600Y5696440D02*
Y5701440D01*
X1323600Y3801440D02*
Y3806440D01*
X1376400Y3801440D02*
Y3806440D01*
X4928600Y6191440D02*
Y6196440D01*
X4981400Y6191440D02*
Y6196440D01*
X4703600Y5896440D02*
Y5901440D01*
X4756400Y5896440D02*
Y5901440D01*
X5923600Y5966440D02*
Y5971440D01*
X5976400Y5966440D02*
Y5971440D01*
X1323600Y3870190D02*
Y3875190D01*
X1376400Y3870190D02*
Y3875190D01*
X4008600Y6731440D02*
Y6736440D01*
X4061400Y6731440D02*
Y6736440D01*
Y6801440D02*
Y6806440D01*
X4008600Y6801440D02*
Y6806440D01*
X1788900Y5820190D02*
Y5825190D01*
X1736100Y5820190D02*
Y5825190D01*
X3442350Y4663940D02*
Y4668940D01*
X3495150Y4663940D02*
Y4668940D01*
X1951400Y6495190D02*
Y6500190D01*
X1898600Y6495190D02*
Y6500190D01*
X2412650Y6830190D02*
Y6835190D01*
X2359850Y6830190D02*
Y6835190D01*
X5583600Y6261440D02*
Y6266440D01*
X5636400Y6261440D02*
Y6266440D01*
X2432650Y6401440D02*
Y6406440D01*
X2379850Y6401440D02*
Y6406440D01*
X8286100Y6501440D02*
Y6506440D01*
X8338900Y6501440D02*
Y6506440D01*
X179850Y4463940D02*
Y4468940D01*
X232650Y4463940D02*
Y4468940D01*
X6941400Y6751440D02*
Y6756440D01*
X6888600Y6751440D02*
Y6756440D01*
X1920150Y4863940D02*
Y4868940D01*
X1867350Y4863940D02*
Y4868940D01*
X4928600Y6261440D02*
Y6266440D01*
X4981400Y6261440D02*
Y6266440D01*
X111100Y4707690D02*
Y4712690D01*
X163900Y4707690D02*
Y4712690D01*
X7336080Y5746440D02*
Y5751440D01*
X7388880Y5746440D02*
Y5751440D01*
X4133600Y6801440D02*
Y6806440D01*
X4186400Y6801440D02*
Y6806440D01*
X2432650Y6476440D02*
Y6481440D01*
X2379850Y6476440D02*
Y6481440D01*
X2359850Y6905190D02*
Y6910190D01*
X2412650Y6905190D02*
Y6910190D01*
X1826400Y6495190D02*
Y6500190D01*
X1773600Y6495190D02*
Y6500190D01*
X2841400Y5801440D02*
Y5806440D01*
X2894200Y5801440D02*
Y5806440D01*
X313900Y4707690D02*
Y4712690D01*
X261100Y4707690D02*
Y4712690D01*
X3273600Y5541440D02*
Y5546440D01*
X3326400Y5541440D02*
Y5546440D01*
X3088600Y5421440D02*
Y5426440D01*
X3141400Y5421440D02*
Y5426440D01*
X3121400Y5596440D02*
Y5601440D01*
X3068600Y5596440D02*
Y5601440D01*
X582650Y6226440D02*
Y6231440D01*
X529850Y6226440D02*
Y6231440D01*
X761100Y6263940D02*
Y6268940D01*
X813900Y6263940D02*
Y6268940D01*
X3116400Y5706440D02*
Y5711440D01*
X3063600Y5706440D02*
Y5711440D01*
X7336080Y5806440D02*
Y5811440D01*
X7388880Y5806440D02*
Y5811440D01*
X500000Y4466440D02*
Y4471440D01*
X447200Y4466440D02*
Y4471440D01*
X335000Y4466440D02*
Y4471440D01*
X387800Y4466440D02*
Y4471440D01*
X828600Y4531440D02*
Y4536440D01*
X881400Y4531440D02*
Y4536440D01*
X828600Y4591440D02*
Y4596440D01*
X881400Y4591440D02*
Y4596440D01*
X1057650Y4451440D02*
Y4456440D01*
X1004850Y4451440D02*
Y4456440D01*
X1057650Y4513940D02*
Y4518940D01*
X1004850Y4513940D02*
Y4518940D01*
X1604850Y3907690D02*
Y3912690D01*
X1657650Y3907690D02*
Y3912690D01*
X1861100Y3907690D02*
Y3912690D01*
X1913900Y3907690D02*
Y3912690D01*
X1729850Y3907690D02*
Y3912690D01*
X1782650Y3907690D02*
Y3912690D01*
X1888900Y4395190D02*
Y4400190D01*
X1836100Y4395190D02*
Y4400190D01*
X1343600Y4176440D02*
Y4181440D01*
X1396400Y4176440D02*
Y4181440D01*
X2511100Y5638940D02*
Y5643940D01*
X2563900Y5638940D02*
Y5643940D01*
X7013600Y6681440D02*
Y6686440D01*
X7066400Y6681440D02*
Y6686440D01*
X2103600Y4246440D02*
Y4251440D01*
X2156400Y4246440D02*
Y4251440D01*
X9982650Y6576440D02*
Y6581440D01*
X9929850Y6576440D02*
Y6581440D01*
X2103600Y4146440D02*
Y4151440D01*
X2156400Y4146440D02*
Y4151440D01*
X3131400Y4426260D02*
Y4431260D01*
X3078600Y4426260D02*
Y4431260D01*
X2536100Y5288940D02*
Y5293940D01*
X2588900Y5288940D02*
Y5293940D01*
X2863900Y5301440D02*
Y5306440D01*
X2811100Y5301440D02*
Y5306440D01*
X2761100Y3982690D02*
Y3987690D01*
X2813900Y3982690D02*
Y3987690D01*
X2926400Y3982690D02*
Y3987690D01*
X2873600Y3982690D02*
Y3987690D01*
X1267350Y5576440D02*
Y5581440D01*
X1320150Y5576440D02*
Y5581440D01*
X1326400Y5876440D02*
Y5881440D01*
X1273600Y5876440D02*
Y5881440D01*
X1795150Y6013940D02*
Y6018940D01*
X1742350Y6013940D02*
Y6018940D01*
X1295150Y5651440D02*
Y5656440D01*
X1242350Y5651440D02*
Y5656440D01*
X5416400Y5996440D02*
Y6001440D01*
X5363600Y5996440D02*
Y6001440D01*
X2126400Y6326440D02*
Y6331440D01*
X2073600Y6326440D02*
Y6331440D01*
X4061400Y6661440D02*
Y6666440D01*
X4008600Y6661440D02*
Y6666440D01*
X2088900Y6495190D02*
Y6500190D01*
X2036100Y6495190D02*
Y6500190D01*
X1186400Y5441440D02*
Y5446440D01*
X1133600Y5441440D02*
Y5446440D01*
X9170150Y6570190D02*
Y6575190D01*
X9117350Y6570190D02*
Y6575190D01*
X1420150Y5801440D02*
Y5806440D01*
X1367350Y5801440D02*
Y5806440D01*
X4301400Y4796440D02*
Y4801440D01*
X4248600Y4796440D02*
Y4801440D01*
X4441400Y5551440D02*
Y5556440D01*
X4388600Y5551440D02*
Y5556440D01*
X1054850Y4926440D02*
Y4931440D01*
X1107650Y4926440D02*
Y4931440D01*
X2359850Y6755190D02*
Y6760190D01*
X2412650Y6755190D02*
Y6760190D01*
X761100Y6201440D02*
Y6206440D01*
X813900Y6201440D02*
Y6206440D01*
X4162500Y5462540D02*
X4167500D01*
X4162500Y5515340D02*
X4167500D01*
X3472500Y5124090D02*
X3477500D01*
X3472500Y5071290D02*
X3477500D01*
X2235000Y5440040D02*
X2240000D01*
X2235000Y5492840D02*
X2240000D01*
X7872500Y6446290D02*
X7877500D01*
X7872500Y6499090D02*
X7877500D01*
X7953750D02*
X7958750D01*
X7953750Y6446290D02*
X7958750D01*
X5922500Y6137540D02*
X5927500D01*
X5922500Y6190340D02*
X5927500D01*
X5852500D02*
X5857500D01*
X5852500Y6137540D02*
X5857500D01*
X4457500Y6117540D02*
X4462500D01*
X4457500Y6170340D02*
X4462500D01*
X4457500Y6237540D02*
X4462500D01*
X4457500Y6290340D02*
X4462500D01*
X4622500Y6237540D02*
X4627500D01*
X4622500Y6290340D02*
X4627500D01*
X4527500Y6237540D02*
X4532500D01*
X4527500Y6290340D02*
X4532500D01*
X4692500Y6237540D02*
X4697500D01*
X4692500Y6290340D02*
X4697500D01*
X7802500Y6446290D02*
X7807500D01*
X7802500Y6499090D02*
X7807500D01*
X4387500Y6170340D02*
X4392500D01*
X4387500Y6117540D02*
X4392500D01*
X8497500Y5257540D02*
X8502500D01*
X8497500Y5310340D02*
X8502500D01*
X8497500Y5867840D02*
X8502500D01*
X8497500Y5815040D02*
X8502500D01*
X416250Y6161590D02*
X421250D01*
X416250Y6108790D02*
X421250D01*
X697500Y5861590D02*
X702500D01*
X697500Y5808790D02*
X702500D01*
X772500Y6005340D02*
X777500D01*
X772500Y5952540D02*
X777500D01*
X8572500Y5867840D02*
X8577500D01*
X8572500Y5815040D02*
X8577500D01*
X8278750Y6136590D02*
X8283750D01*
X8278750Y6083790D02*
X8283750D01*
X8177500Y5985340D02*
X8182500D01*
X8177500Y5932540D02*
X8182500D01*
X7972500Y5990340D02*
X7977500D01*
X7972500Y5937540D02*
X7977500D01*
X8285000Y6417840D02*
X8290000D01*
X8285000Y6365040D02*
X8290000D01*
X257500Y4557540D02*
X262500D01*
X257500Y4610340D02*
X262500D01*
X2960290Y5802540D02*
X2965290D01*
X2960290Y5855340D02*
X2965290D01*
X8228750Y5399090D02*
X8233750D01*
X8228750Y5346290D02*
X8233750D01*
X8078750Y6136590D02*
X8083750D01*
X8078750Y6083790D02*
X8083750D01*
X2043900Y5068940D02*
X2048900D01*
X2043900Y5121740D02*
X2048900D01*
X2447500Y3740040D02*
X2452500D01*
X2447500Y3792840D02*
X2452500D01*
X2941250Y5374090D02*
X2946250D01*
X2941250Y5321290D02*
X2946250D01*
X2353750Y5440040D02*
X2358750D01*
X2353750Y5492840D02*
X2358750D01*
X3402500Y5339170D02*
X3407500D01*
X3402500Y5391970D02*
X3407500D01*
X3402500Y5202540D02*
X3407500D01*
X3402500Y5255340D02*
X3407500D01*
X9260000Y6486590D02*
X9265000D01*
X9260000Y6433790D02*
X9265000D01*
X4162500Y5765340D02*
X4167500D01*
X4162500Y5712540D02*
X4167500D01*
X4162500Y5015340D02*
X4167500D01*
X4162500Y4962540D02*
X4167500D01*
X1541250Y5415040D02*
X1546250D01*
X1541250Y5467840D02*
X1546250D01*
X1842500Y4502540D02*
X1847500D01*
X1842500Y4555340D02*
X1847500D01*
X8178750Y6083790D02*
X8183750D01*
X8178750Y6136590D02*
X8183750D01*
X1647500Y4574090D02*
X1652500D01*
X1647500Y4521290D02*
X1652500D01*
X9428750Y6515040D02*
X9433750D01*
X9428750Y6567840D02*
X9433750D01*
X7828750Y5805340D02*
X7833750D01*
X7828750Y5752540D02*
X7833750D01*
X9283130Y6800340D02*
X9288130D01*
X9283130Y6747540D02*
X9288130D01*
X647500Y6152540D02*
X652500D01*
X647500Y6205340D02*
X652500D01*
X9666250Y6774090D02*
X9671250D01*
X9666250Y6721290D02*
X9671250D01*
X7671860Y5103940D02*
X7676860D01*
X7671860Y5156740D02*
X7676860D01*
X3487500Y5641740D02*
X3492500D01*
X3487500Y5588940D02*
X3492500D01*
X4162500Y5265340D02*
X4167500D01*
X4162500Y5212540D02*
X4167500D01*
X3487500Y5375340D02*
X3492500D01*
X3487500Y5322540D02*
X3492500D01*
X1510000Y5733790D02*
X1515000D01*
X1510000Y5786590D02*
X1515000D01*
X1322500Y5486590D02*
X1327500D01*
X1322500Y5433790D02*
X1327500D01*
X2478750Y6024090D02*
X2483750D01*
X2478750Y5971290D02*
X2483750D01*
X1578750Y4521290D02*
X1583750D01*
X1578750Y4574090D02*
X1583750D01*
X3360000Y4665040D02*
X3365000D01*
X3360000Y4717840D02*
X3365000D01*
X6577500Y6302540D02*
X6582500D01*
X6577500Y6355340D02*
X6582500D01*
X4987500Y5792540D02*
X4992500D01*
X4987500Y5845340D02*
X4992500D01*
X4857500Y6192540D02*
X4862500D01*
X4857500Y6245340D02*
X4862500D01*
X1828750Y6417840D02*
X1833750D01*
X1828750Y6365040D02*
X1833750D01*
X2278750Y6686590D02*
X2283750D01*
X2278750Y6633790D02*
X2283750D01*
X5052500Y6265340D02*
X5057500D01*
X5052500Y6212540D02*
X5057500D01*
X497500Y4347540D02*
X502500D01*
X497500Y4400340D02*
X502500D01*
X937500Y4587540D02*
X942500D01*
X937500Y4640340D02*
X942500D01*
X1012500Y4587540D02*
X1017500D01*
X1012500Y4640340D02*
X1017500D01*
X3153750Y4140340D02*
X3158750D01*
X3153750Y4087540D02*
X3158750D01*
X5272500Y6302540D02*
X5277500D01*
X5272500Y6249740D02*
X5277500D01*
X5352500Y6303940D02*
X5357500D01*
X5352500Y6251140D02*
X5357500D01*
X403750Y5624090D02*
X408750D01*
X403750Y5571290D02*
X408750D01*
X335000Y5624090D02*
X340000D01*
X335000Y5571290D02*
X340000D01*
X6784980Y5272540D02*
X6789980D01*
X6784980Y5325340D02*
X6789980D01*
X6557500Y5277540D02*
X6562500D01*
X6557500Y5330340D02*
X6562500D01*
X72500Y5227540D02*
X77500D01*
X72500Y5280340D02*
X77500D01*
X72500Y4867840D02*
X77500D01*
X72500Y4815040D02*
X77500D01*
X72500Y5377540D02*
X77500D01*
X72500Y5430340D02*
X77500D01*
X7328750Y5615040D02*
X7333750D01*
X7328750Y5667840D02*
X7333750D01*
X3402500Y5057540D02*
X3407500D01*
X3402500Y5110340D02*
X3407500D01*
X2787500Y5883940D02*
X2792500D01*
X2787500Y5936740D02*
X2792500D01*
X2947500Y4140340D02*
X2952500D01*
X2947500Y4087540D02*
X2952500D01*
X7810000Y6055340D02*
X7815000D01*
X7810000Y6002540D02*
X7815000D01*
X1541250Y5349090D02*
X1546250D01*
X1541250Y5296290D02*
X1546250D01*
X8057500Y6410340D02*
X8062500D01*
X8057500Y6357540D02*
X8062500D01*
X628750Y5861590D02*
X633750D01*
X628750Y5808790D02*
X633750D01*
X197500Y4557540D02*
X202500D01*
X197500Y4610340D02*
X202500D01*
X603750Y4508790D02*
X608750D01*
X603750Y4561590D02*
X608750D01*
X9185000Y6371290D02*
X9190000D01*
X9185000Y6424090D02*
X9190000D01*
X2322500Y4071290D02*
X2327500D01*
X2322500Y4124090D02*
X2327500D01*
X3077500Y4665340D02*
X3082500D01*
X3077500Y4612540D02*
X3082500D01*
X9091250Y6371290D02*
X9096250D01*
X9091250Y6424090D02*
X9096250D01*
X10053750Y6336590D02*
X10058750D01*
X10053750Y6283790D02*
X10058750D01*
X2316250Y5224090D02*
X2321250D01*
X2316250Y5171290D02*
X2321250D01*
X2028750Y4708790D02*
X2033750D01*
X2028750Y4761590D02*
X2033750D01*
X3077500Y4762540D02*
X3082500D01*
X3077500Y4815340D02*
X3082500D01*
X2716250Y4087540D02*
X2721250D01*
X2716250Y4140340D02*
X2721250D01*
X2866250Y5242840D02*
X2871250D01*
X2866250Y5190040D02*
X2871250D01*
X2487500Y5230340D02*
X2492500D01*
X2487500Y5177540D02*
X2492500D01*
X2597500Y4087540D02*
X2602500D01*
X2597500Y4140340D02*
X2602500D01*
X2803750Y5242840D02*
X2808750D01*
X2803750Y5190040D02*
X2808750D01*
X2035000Y4508790D02*
X2040000D01*
X2035000Y4561590D02*
X2040000D01*
X3085000Y4087540D02*
X3090000D01*
X3085000Y4140340D02*
X3090000D01*
X3016250Y4087540D02*
X3021250D01*
X3016250Y4140340D02*
X3021250D01*
X1785000Y5383790D02*
X1790000D01*
X1785000Y5436590D02*
X1790000D01*
X1303750Y5983790D02*
X1308750D01*
X1303750Y6036590D02*
X1308750D01*
X1245000Y6230340D02*
X1250000D01*
X1245000Y6177540D02*
X1250000D01*
X4787500Y6245340D02*
X4792500D01*
X4787500Y6192540D02*
X4792500D01*
X7403750Y5615040D02*
X7408750D01*
X7403750Y5667840D02*
X7408750D01*
X272500Y5624090D02*
X277500D01*
X272500Y5571290D02*
X277500D01*
X1066250Y4799090D02*
X1071250D01*
X1066250Y4746290D02*
X1071250D01*
X1253750Y4877540D02*
X1258750D01*
X1253750Y4930340D02*
X1258750D01*
X1178750D02*
X1183750D01*
X1178750Y4877540D02*
X1183750D01*
X1810000Y5299090D02*
X1815000D01*
X1810000Y5246290D02*
X1815000D01*
G54D14*
X4242690Y4962330D02*
X4250690D01*
X4242690Y4885550D02*
X4250690D01*
X6214310Y5845550D02*
X6222310D01*
X6214310Y5922330D02*
X6222310D01*
X4222690Y6157330D02*
X4230690D01*
X4222690Y6080550D02*
X4230690D01*
X2236000Y3893940D02*
X2244000D01*
X2236000Y3817170D02*
X2244000D01*
X8000570Y5085550D02*
X8008570D01*
X8000570Y5162330D02*
X8008570D01*
X8539310Y5084300D02*
X8547310D01*
X8539310Y5161080D02*
X8547310D01*
X8337690Y5347330D02*
X8345690D01*
X8337690Y5270550D02*
X8345690D01*
X3265190Y4342330D02*
X3273190D01*
X3265190Y4265550D02*
X3273190D01*
X1076810Y5040550D02*
X1084810D01*
X1076810Y5117330D02*
X1084810D01*
X7576470Y5085550D02*
X7584470D01*
X7576470Y5162330D02*
X7584470D01*
X4913060Y5765550D02*
X4921060D01*
X4913060Y5842330D02*
X4921060D01*
X4242690Y5712330D02*
X4250690D01*
X4242690Y5635550D02*
X4250690D01*
X4242690Y5462330D02*
X4250690D01*
X4242690Y5385550D02*
X4250690D01*
X4242690Y5212330D02*
X4250690D01*
X4242690Y5135550D02*
X4250690D01*
X4826440Y5973580D02*
X4834440D01*
X4826440Y5896800D02*
X4834440D01*
X5899310Y5795550D02*
X5907310D01*
X5899310Y5872330D02*
X5907310D01*
X6059310Y5795550D02*
X6067310D01*
X6059310Y5872330D02*
X6067310D01*
X8299310Y6200550D02*
X8307310D01*
X8299310Y6277330D02*
X8307310D01*
X552690Y6517330D02*
X560690D01*
X552690Y6440550D02*
X560690D01*
X8072690Y6277330D02*
X8080690D01*
X8072690Y6200550D02*
X8080690D01*
X8358060Y5084300D02*
X8366060D01*
X8358060Y5161080D02*
X8366060D01*
X8752690Y6486080D02*
X8760690D01*
X8752690Y6409300D02*
X8760690D01*
X5642690Y5874530D02*
X5650690D01*
X5642690Y5797750D02*
X5650690D01*
X6664310Y6440550D02*
X6672310D01*
X6664310Y6517330D02*
X6672310D01*
X7229310Y6715550D02*
X7237310D01*
X7229310Y6792330D02*
X7237310D01*
X7433060Y5090550D02*
X7441060D01*
X7433060Y5167330D02*
X7441060D01*
X3265190Y4479830D02*
X3273190D01*
X3265190Y4403050D02*
X3273190D01*
X7874310Y5085550D02*
X7882310D01*
X7874310Y5162330D02*
X7882310D01*
X3254310Y5705550D02*
X3262310D01*
X3254310Y5782330D02*
X3262310D01*
X2346440Y6648580D02*
X2354440D01*
X2346440Y6571800D02*
X2354440D01*
G54D15*
X4330310Y4923940D02*
X4336310D01*
X6128690Y5883940D02*
X6134690D01*
X4310310Y6118940D02*
X4316310D01*
X2323610Y3855550D02*
X2329610D01*
X7914950Y5123940D02*
X7920950D01*
X8453690Y5122690D02*
X8459690D01*
X8425310Y5308940D02*
X8431310D01*
X3352810Y4303940D02*
X3358810D01*
X991190Y5078940D02*
X997190D01*
X7490860Y5123940D02*
X7496860D01*
X4827440Y5803940D02*
X4833440D01*
X4330310Y5673940D02*
X4336310D01*
X4330310Y5423940D02*
X4336310D01*
X4330310Y5173940D02*
X4336310D01*
X4914060Y5935190D02*
X4920060D01*
X5813690Y5833940D02*
X5819690D01*
X5973690D02*
X5979690D01*
X8213690Y6238940D02*
X8219690D01*
X640310Y6478940D02*
X646310D01*
X8160310Y6238940D02*
X8166310D01*
X8272440Y5122690D02*
X8278440D01*
X8840310Y6447690D02*
X8846310D01*
X5730310Y5836140D02*
X5736310D01*
X6578690Y6478940D02*
X6584690D01*
X7143690Y6753940D02*
X7149690D01*
X7347440Y5128940D02*
X7353440D01*
X3352810Y4441440D02*
X3358810D01*
X7788690Y5123940D02*
X7794690D01*
X3168690Y5743940D02*
X3174690D01*
X2434060Y6610190D02*
X2440060D01*
G54D14*
X4088390Y4718250D02*
Y4726250D01*
X4011610Y4718250D02*
Y4726250D01*
X7901610Y6276630D02*
Y6284630D01*
X7978390Y6276630D02*
Y6284630D01*
X4536610Y5941630D02*
Y5949630D01*
X4613390Y5941630D02*
Y5949630D01*
X488390Y6512000D02*
Y6520000D01*
X411610Y6512000D02*
Y6520000D01*
X9396610Y6626630D02*
Y6634630D01*
X9473390Y6626630D02*
Y6634630D01*
X3507140Y4824500D02*
Y4832500D01*
X3430360Y4824500D02*
Y4832500D01*
X582140Y6099500D02*
Y6107500D01*
X505360Y6099500D02*
Y6107500D01*
X482140Y6374500D02*
Y6382500D01*
X405360Y6374500D02*
Y6382500D01*
X794640Y6412000D02*
Y6420000D01*
X717860Y6412000D02*
Y6420000D01*
X813390Y6143250D02*
Y6151250D01*
X736610Y6143250D02*
Y6151250D01*
X8236610Y5781630D02*
Y5789630D01*
X8313390Y5781630D02*
Y5789630D01*
X8031610Y5781630D02*
Y5789630D01*
X8108390Y5781630D02*
Y5789630D01*
X8241610Y5931630D02*
Y5939630D01*
X8318390Y5931630D02*
Y5939630D01*
X8041610Y5931630D02*
Y5939630D01*
X8118390Y5931630D02*
Y5939630D01*
X1361610Y5294130D02*
Y5302130D01*
X1438390Y5294130D02*
Y5302130D01*
X3556610Y5636630D02*
Y5644630D01*
X3633390Y5636630D02*
Y5644630D01*
X3556610Y5371630D02*
Y5379630D01*
X3633390Y5371630D02*
Y5379630D01*
X3556610Y5121630D02*
Y5129630D01*
X3633390Y5121630D02*
Y5129630D01*
X3556610Y4871630D02*
Y4879630D01*
X3633390Y4871630D02*
Y4879630D01*
X1399110Y5425380D02*
Y5433380D01*
X1475890Y5425380D02*
Y5433380D01*
X4836610Y6031630D02*
Y6039630D01*
X4913390Y6031630D02*
Y6039630D01*
X8091610Y5641630D02*
Y5649630D01*
X8168390Y5641630D02*
Y5649630D01*
X5731610Y5951630D02*
Y5959630D01*
X5808390Y5951630D02*
Y5959630D01*
X8130360Y6350380D02*
Y6358380D01*
X8207140Y6350380D02*
Y6358380D01*
X624110Y5950380D02*
Y5958380D01*
X700890Y5950380D02*
Y5958380D01*
X9526610Y6626630D02*
Y6634630D01*
X9603390Y6626630D02*
Y6634630D01*
X7596610Y6236630D02*
Y6244630D01*
X7673390Y6236630D02*
Y6244630D01*
X2623390Y6005750D02*
Y6013750D01*
X2546610Y6005750D02*
Y6013750D01*
X4701610Y6031630D02*
Y6039630D01*
X4778390Y6031630D02*
Y6039630D01*
X3923390Y6748250D02*
Y6756250D01*
X3846610Y6748250D02*
Y6756250D01*
X1905360Y6337880D02*
Y6345880D01*
X1982140Y6337880D02*
Y6345880D01*
X1219640Y4719130D02*
Y4727130D01*
X1142860Y4719130D02*
Y4727130D01*
G54D15*
X4050000Y4632630D02*
Y4638630D01*
X7940000Y6364250D02*
Y6370250D01*
X4575000Y6029250D02*
Y6035250D01*
X450000Y6426380D02*
Y6432380D01*
X9435000Y6714250D02*
Y6720250D01*
X3468750Y4738880D02*
Y4744880D01*
X543750Y6013880D02*
Y6019880D01*
X443750Y6288880D02*
Y6294880D01*
X756250Y6326380D02*
Y6332380D01*
X775000Y6057630D02*
Y6063630D01*
X8275000Y5869250D02*
Y5875250D01*
X8070000Y5869250D02*
Y5875250D01*
X8280000Y6019250D02*
Y6025250D01*
X8080000Y6019250D02*
Y6025250D01*
X1400000Y5381750D02*
Y5387750D01*
X3595000Y5724250D02*
Y5730250D01*
Y5459250D02*
Y5465250D01*
Y5209250D02*
Y5215250D01*
Y4959250D02*
Y4965250D01*
X1437500Y5513000D02*
Y5519000D01*
X4875000Y6119250D02*
Y6125250D01*
X8130000Y5729250D02*
Y5735250D01*
X5770000Y6039250D02*
Y6045250D01*
X8168750Y6438000D02*
Y6444000D01*
X662500Y6038000D02*
Y6044000D01*
X9565000Y6714250D02*
Y6720250D01*
X7635000Y6324250D02*
Y6330250D01*
X2585000Y5920130D02*
Y5926130D01*
X4740000Y6119250D02*
Y6125250D01*
X3885000Y6662630D02*
Y6668630D01*
X1943750Y6425500D02*
Y6431500D01*
X1181250Y4806750D02*
Y4812750D01*
G54D16*
X3264000Y4996940D02*
Y5010940D01*
X3336000Y4996940D02*
Y5010940D01*
X1979750Y5215690D02*
Y5229690D01*
X1907750Y5215690D02*
Y5229690D01*
X2746000Y5166940D02*
Y5180940D01*
X2674000Y5166940D02*
Y5180940D01*
X2464000Y3930010D02*
Y3944010D01*
X2536000Y3930010D02*
Y3944010D01*
X664000Y5465440D02*
Y5479440D01*
X736000Y5465440D02*
Y5479440D01*
X3331000Y5621940D02*
Y5635940D01*
X3259000Y5621940D02*
Y5635940D01*
X7398480Y5871940D02*
Y5885940D01*
X7326480Y5871940D02*
Y5885940D01*
X9920250Y6490690D02*
Y6504690D01*
X9992250Y6490690D02*
Y6504690D01*
X307750Y5796940D02*
Y5810940D01*
X379750Y5796940D02*
Y5810940D01*
X523500Y5796940D02*
Y5810940D01*
X451500Y5796940D02*
Y5810940D01*
X9920250Y6403190D02*
Y6417190D01*
X9992250Y6403190D02*
Y6417190D01*
X936000Y4456940D02*
Y4470940D01*
X864000Y4456940D02*
Y4470940D01*
X6291000Y6226940D02*
Y6240940D01*
X6219000Y6226940D02*
Y6240940D01*
X6641500Y5224440D02*
Y5238440D01*
X6713500Y5224440D02*
Y5238440D01*
X6641480Y5311940D02*
Y5325940D01*
X6713480Y5311940D02*
Y5325940D01*
X9448500Y6434440D02*
Y6448440D01*
X9376500Y6434440D02*
Y6448440D01*
X7599000Y6406940D02*
Y6420940D01*
X7671000Y6406940D02*
Y6420940D01*
X6579000Y6671940D02*
Y6685940D01*
X6651000Y6671940D02*
Y6685940D01*
X3069000Y5501940D02*
Y5515940D01*
X3141000Y5501940D02*
Y5515940D01*
G54D17*
X9359130Y6834000D02*
Y6863880D01*
X9532130Y6834000D02*
Y6863880D01*
X10561500Y6459000D02*
Y6488880D01*
X10388500Y6459000D02*
Y6488880D01*
X10713500Y6459000D02*
Y6488880D01*
X10886500Y6459000D02*
Y6488880D01*
X9032250Y4901500D02*
Y4931380D01*
X9205250Y4901500D02*
Y4931380D01*
G54D18*
X1127160Y5760190D03*
X772840D03*
X1127160Y5860190D03*
X772840D03*
X4048570Y5711520D03*
X3694240D03*
X4048570Y5811520D03*
X3694240D03*
X4048570Y5461520D03*
X3694240D03*
X4048570Y5561520D03*
X3694240D03*
X4048570Y5211520D03*
X3694240D03*
X4048570Y5311520D03*
X3694240D03*
X4048570Y4961520D03*
X3694240D03*
X4048570Y5061520D03*
X3694240D03*
X3579090Y4760190D03*
X3933410D03*
X3579090Y4660190D03*
X3933410D03*
G54D19*
X461175Y4619100D02*
X480865D01*
X461175Y4638780D02*
X480865D01*
X461175Y4599410D02*
X480865D01*
X461175Y4658470D02*
X480865D01*
X339135Y4599410D02*
X358825D01*
X339135Y4658470D02*
X358825D01*
X339135Y4619100D02*
X358825D01*
X339135Y4638780D02*
X358825D01*
G54D20*
X3236550Y5331400D02*
Y5361400D01*
X3144030Y5331400D02*
Y5361400D01*
X3329070Y5331400D02*
Y5361400D01*
G54D21*
X3201550Y5098400D02*
X3271550D01*
G54D20*
X7735000Y5821460D02*
X7765000D01*
X7735000Y5913980D02*
X7765000D01*
X7735000Y5728940D02*
X7765000D01*
G54D21*
X7502000Y5786460D02*
Y5856460D01*
G54D22*
X1811750Y4337210D02*
X1862750D01*
X1811750Y4317520D02*
X1862750D01*
X1811750Y4297840D02*
X1862750D01*
X1811750Y4278150D02*
X1862750D01*
X1811750Y4258470D02*
X1862750D01*
X1811750Y4238780D02*
X1862750D01*
X1811750Y4219100D02*
X1862750D01*
X1811750Y4199410D02*
X1862750D01*
X1811750Y4179730D02*
X1862750D01*
X1811750Y4160040D02*
X1862750D01*
X1811750Y4140360D02*
X1862750D01*
X1811750Y4120670D02*
X1862750D01*
X1487250Y4337210D02*
X1538250D01*
X1487250Y4317520D02*
X1538250D01*
X1487250Y4297840D02*
X1538250D01*
X1487250Y4278150D02*
X1538250D01*
X1487250Y4258470D02*
X1538250D01*
X1487250Y4238780D02*
X1538250D01*
X1487250Y4219100D02*
X1538250D01*
X1487250Y4199410D02*
X1538250D01*
X1487250Y4179730D02*
X1538250D01*
X1487250Y4160040D02*
X1538250D01*
X1487250Y4140360D02*
X1538250D01*
X1487250Y4120670D02*
X1538250D01*
X1783270Y4041190D02*
Y4092190D01*
X1763580Y4041190D02*
Y4092190D01*
X1743900Y4041190D02*
Y4092190D01*
X1724210Y4041190D02*
Y4092190D01*
X1704530Y4041190D02*
Y4092190D01*
X1684840Y4041190D02*
Y4092190D01*
X1665160Y4041190D02*
Y4092190D01*
X1645470Y4041190D02*
Y4092190D01*
X1625790Y4041190D02*
Y4092190D01*
X1606100Y4041190D02*
Y4092190D01*
X1586420Y4041190D02*
Y4092190D01*
X1566730Y4041190D02*
Y4092190D01*
X1783270Y4365690D02*
Y4416690D01*
X1763580Y4365690D02*
Y4416690D01*
X1743900Y4365690D02*
Y4416690D01*
X1724210Y4365690D02*
Y4416690D01*
X1704530Y4365690D02*
Y4416690D01*
X1684840Y4365690D02*
Y4416690D01*
X1665160Y4365690D02*
Y4416690D01*
X1645470Y4365690D02*
Y4416690D01*
X1625790Y4365690D02*
Y4416690D01*
X1606100Y4365690D02*
Y4416690D01*
X1586420Y4365690D02*
Y4416690D01*
X1566730Y4365690D02*
Y4416690D01*
G54D23*
X9553810Y6497990D02*
X9599810D01*
X9780190D02*
X9826190D01*
X9553810Y6523590D02*
X9599810D01*
X9553810Y6549180D02*
X9599810D01*
X9553810Y6574770D02*
X9599810D01*
X9780190D02*
X9826190D01*
X9780190Y6523590D02*
X9826190D01*
X9780190Y6549180D02*
X9826190D01*
X9553810Y6472410D02*
X9599810D01*
X9553810Y6421220D02*
X9599810D01*
X9553810Y6446810D02*
X9599810D01*
X9780190Y6472410D02*
X9826190D01*
X9780190Y6446810D02*
X9826190D01*
X9780190Y6421220D02*
X9826190D01*
G54D24*
X9690000Y6496020D02*
Y6499960D01*
G54D25*
X1350970Y5647790D02*
X1370970D01*
X1350970Y5722590D02*
X1370970D01*
X1441530Y5647790D02*
X1461530D01*
X1441530Y5722590D02*
X1461530D01*
X1441530Y5685190D02*
X1461530D01*
X2560280Y5547590D02*
X2580280D01*
X2560280Y5472790D02*
X2580280D01*
X2469720Y5547590D02*
X2489720D01*
X2469720Y5472790D02*
X2489720D01*
X2560280Y5510190D02*
X2580280D01*
X2469700D02*
X2489700D01*
X3014720Y5776540D02*
X3034720D01*
X3014720Y5851340D02*
X3034720D01*
X3105280Y5776540D02*
X3125280D01*
X3105280Y5851340D02*
X3125280D01*
X3014720Y5813940D02*
X3034720D01*
X3105300D02*
X3125300D01*
G54D22*
X2246540Y5034460D02*
Y5085460D01*
X2226850Y5034460D02*
Y5085460D01*
X2344960Y5034460D02*
Y5085460D01*
X2325280Y5034460D02*
Y5085460D01*
X2305590Y5034460D02*
Y5085460D01*
X2285910Y5034460D02*
Y5085460D01*
X2266220Y5034460D02*
Y5085460D01*
X2541810Y5034460D02*
Y5085460D01*
X2522130Y5034460D02*
Y5085460D01*
X2502440Y5034460D02*
Y5085460D01*
X2482760Y5034460D02*
Y5085460D01*
X2463070Y5034460D02*
Y5085460D01*
X2443390Y5034460D02*
Y5085460D01*
X2423700Y5034460D02*
Y5085460D01*
X2404020Y5034460D02*
Y5085460D01*
X2640240Y5034460D02*
Y5085460D01*
X2620550Y5034460D02*
Y5085460D01*
X2600870Y5034460D02*
Y5085460D01*
X2581180Y5034460D02*
Y5085460D01*
X2561500Y5034460D02*
Y5085460D01*
X2384330Y5034460D02*
Y5085460D01*
X2659920Y5034460D02*
Y5085460D01*
X2856770Y5034460D02*
Y5085460D01*
X2837090Y5034460D02*
Y5085460D01*
X2817400Y5034460D02*
Y5085460D01*
X2797720Y5034460D02*
Y5085460D01*
X2778030Y5034460D02*
Y5085460D01*
X2758350Y5034460D02*
Y5085460D01*
X2738660Y5034460D02*
Y5085460D01*
X2718980Y5034460D02*
Y5085460D01*
X2699290Y5034460D02*
Y5085460D01*
X2915830Y5034460D02*
Y5085460D01*
X2896140Y5034460D02*
Y5085460D01*
X2876460Y5034460D02*
Y5085460D01*
X2226850Y4199820D02*
Y4250820D01*
X2246540Y4199820D02*
Y4250820D01*
X2285910Y4199820D02*
Y4250820D01*
X2305590Y4199820D02*
Y4250820D01*
X2325280Y4199820D02*
Y4250820D01*
X2344960Y4199820D02*
Y4250820D01*
X2266220Y4199820D02*
Y4250820D01*
X2404020Y4199820D02*
Y4250820D01*
X2423700Y4199820D02*
Y4250820D01*
X2443390Y4199820D02*
Y4250820D01*
X2482760Y4199820D02*
Y4250820D01*
X2502440Y4199820D02*
Y4250820D01*
X2522130Y4199820D02*
Y4250820D01*
X2541810Y4199820D02*
Y4250820D01*
X2600870Y4199820D02*
Y4250820D01*
X2620550Y4199820D02*
Y4250820D01*
X2640240Y4199820D02*
Y4250820D01*
X2561500Y4199820D02*
Y4250820D01*
X2581180Y4199820D02*
Y4250820D01*
X2384330Y4199820D02*
Y4250820D01*
X2659920Y4199820D02*
Y4250820D01*
X2463070Y4199820D02*
Y4250820D01*
X2699290Y4199820D02*
Y4250820D01*
X2718980Y4199820D02*
Y4250820D01*
X2738660Y4199820D02*
Y4250820D01*
X2758350Y4199820D02*
Y4250820D01*
X2778030Y4199820D02*
Y4250820D01*
X2797720Y4199820D02*
Y4250820D01*
X2817400Y4199820D02*
Y4250820D01*
X2837090Y4199820D02*
Y4250820D01*
X2856770Y4199820D02*
Y4250820D01*
X2896140Y4199820D02*
Y4250820D01*
X2915830Y4199820D02*
Y4250820D01*
X2876460Y4199820D02*
Y4250820D01*
X2364650Y5034460D02*
Y5085460D01*
X2679610Y5034460D02*
Y5085460D01*
X2364650Y4199820D02*
Y4250820D01*
X2679610Y4199820D02*
Y4250820D01*
X2128520Y4987130D02*
X2179520D01*
X2128520Y4967440D02*
X2179520D01*
X2128520Y4928070D02*
X2179520D01*
X2128520Y4908390D02*
X2179520D01*
X2128520Y4888700D02*
X2179520D01*
X2128520Y4869020D02*
X2179520D01*
X2128520Y4849330D02*
X2179520D01*
X2128520Y4829650D02*
X2179520D01*
X2128520Y4809960D02*
X2179520D01*
X2128520Y4790280D02*
X2179520D01*
X2128520Y4770590D02*
X2179520D01*
X2128520Y4750910D02*
X2179520D01*
X2128520Y4731220D02*
X2179520D01*
X2128520Y4711540D02*
X2179520D01*
X2128520Y4691850D02*
X2179520D01*
X2128520Y4672170D02*
X2179520D01*
X2128520Y4613110D02*
X2179520D01*
X2128520Y4593430D02*
X2179520D01*
X2128520Y4573740D02*
X2179520D01*
X2128520Y4554060D02*
X2179520D01*
X2128520Y4534370D02*
X2179520D01*
X2128520Y4514690D02*
X2179520D01*
X2128520Y4495000D02*
X2179520D01*
X2128520Y4475320D02*
X2179520D01*
X2128520Y4455630D02*
X2179520D01*
X2128520Y4435950D02*
X2179520D01*
X2128520Y4416260D02*
X2179520D01*
X2128520Y4396580D02*
X2179520D01*
X2128520Y4376890D02*
X2179520D01*
X2128520Y4357210D02*
X2179520D01*
X2128520Y4317840D02*
X2179520D01*
X2128520Y4298150D02*
X2179520D01*
X2963160Y4967440D02*
X3014160D01*
X2963160Y4987130D02*
X3014160D01*
X2963160Y4672170D02*
X3014160D01*
X2963160Y4691850D02*
X3014160D01*
X2963160Y4711540D02*
X3014160D01*
X2963160Y4731220D02*
X3014160D01*
X2963160Y4750910D02*
X3014160D01*
X2963160Y4770590D02*
X3014160D01*
X2963160Y4790280D02*
X3014160D01*
X2963160Y4809960D02*
X3014160D01*
X2963160Y4829650D02*
X3014160D01*
X2963160Y4849330D02*
X3014160D01*
X2963160Y4869020D02*
X3014160D01*
X2963160Y4888700D02*
X3014160D01*
X2963160Y4908390D02*
X3014160D01*
X2963160Y4928070D02*
X3014160D01*
X2963160Y4357210D02*
X3014160D01*
X2963160Y4376890D02*
X3014160D01*
X2963160Y4396580D02*
X3014160D01*
X2963160Y4416260D02*
X3014160D01*
X2963160Y4435950D02*
X3014160D01*
X2963160Y4455630D02*
X3014160D01*
X2963160Y4475320D02*
X3014160D01*
X2963160Y4495000D02*
X3014160D01*
X2963160Y4514690D02*
X3014160D01*
X2963160Y4534370D02*
X3014160D01*
X2963160Y4554060D02*
X3014160D01*
X2963160Y4573740D02*
X3014160D01*
X2963160Y4593430D02*
X3014160D01*
X2963160Y4613110D02*
X3014160D01*
X2963160Y4298150D02*
X3014160D01*
X2963160Y4317840D02*
X3014160D01*
X2128520Y4947760D02*
X2179520D01*
X2128520Y4652480D02*
X2179520D01*
X2128520Y4632800D02*
X2179520D01*
X2128520Y4337520D02*
X2179520D01*
X2963160Y4632800D02*
X3014160D01*
X2963160Y4652480D02*
X3014160D01*
X2963160Y4947760D02*
X3014160D01*
X2963160Y4337520D02*
X3014160D01*
G54D26*
X1836910Y5954090D02*
Y5966090D01*
X1888090Y5954090D02*
Y5966090D01*
X1836910Y5879290D02*
Y5891290D01*
X1888090Y5879290D02*
Y5891290D01*
X1862500Y5954090D02*
Y5966090D01*
Y5879290D02*
Y5891290D01*
G54D24*
X1531250Y5978940D03*
G54D27*
X1386820Y5940550D02*
X1441820D01*
X1386820Y5966140D02*
X1441820D01*
X1620680D02*
X1675680D01*
X1620680Y5940550D02*
X1675680D01*
X1386820Y5991740D02*
X1441820D01*
X1386820Y6017330D02*
X1441820D01*
X1386820Y6042920D02*
X1441820D01*
X1386820Y6068510D02*
X1441820D01*
X1620680D02*
X1675680D01*
X1620680Y6042920D02*
X1675680D01*
X1620680Y6017330D02*
X1675680D01*
X1620680Y5991740D02*
X1675680D01*
X1386820Y5889370D02*
X1441820D01*
X1386820Y5914960D02*
X1441820D01*
X1620680D02*
X1675680D01*
X1620680Y5889370D02*
X1675680D01*
G54D25*
X9565000Y6103490D02*
Y6142490D01*
X9515000Y6103490D02*
Y6142490D01*
Y6303500D02*
Y6342500D01*
X9565000Y6303500D02*
Y6342500D01*
X9615000Y6103490D02*
Y6142490D01*
X9665000Y6103490D02*
Y6142490D01*
X9615000Y6303500D02*
Y6342500D01*
X9665000Y6303500D02*
Y6342500D01*
X9825000Y6103490D02*
Y6142490D01*
X9775000Y6103490D02*
Y6142490D01*
Y6303500D02*
Y6342500D01*
X9825000Y6303500D02*
Y6342500D01*
X9875000Y6103490D02*
Y6142490D01*
X9925000Y6103490D02*
Y6142490D01*
X9875000Y6303500D02*
Y6342500D01*
X9925000Y6303500D02*
Y6342500D01*
G54D28*
X1921500Y4145690D02*
Y4147690D01*
Y4114190D02*
Y4116190D01*
X1984500Y4145690D02*
Y4147690D01*
Y4114190D02*
Y4116190D01*
X1921500Y4177180D02*
Y4179180D01*
X1984500Y4177180D02*
Y4179180D01*
X1921500Y4082700D02*
Y4084700D01*
X1984500Y4082700D02*
Y4084700D01*
X1922010Y4305930D02*
Y4307930D01*
Y4274440D02*
Y4276440D01*
X1985000Y4305930D02*
Y4307930D01*
Y4274440D02*
Y4276440D01*
X1922010Y4337430D02*
Y4339430D01*
X1985000Y4337430D02*
Y4339430D01*
X1922010Y4242940D02*
Y4244940D01*
X1985000Y4242940D02*
Y4244940D01*
X3164750Y4340440D02*
X3166750D01*
X3133250D02*
X3135250D01*
X3164750Y4277440D02*
X3166750D01*
X3133250D02*
X3135250D01*
X3196240Y4340440D02*
X3198240D01*
X3196240Y4277440D02*
X3198240D01*
X3101760Y4340440D02*
X3103760D01*
X3101760Y4277440D02*
X3103760D01*
G54D29*
X8397000Y5811850D02*
X8413000D01*
X8397000Y5926030D02*
X8413000D01*
X2872000Y5884770D02*
X2888000D01*
X2872000Y5998940D02*
X2888000D01*
X3322000Y5729770D02*
X3338000D01*
X3322000Y5843940D02*
X3338000D01*
X1223250Y5990600D02*
X1239250D01*
X1223250Y6104780D02*
X1239250D01*
X1135750Y5990600D02*
X1151750D01*
X1135750Y6104780D02*
X1151750D01*
X1217000Y4574780D02*
X1233000D01*
X1217000Y4460600D02*
X1233000D01*
X5532910Y5978140D02*
Y5994140D01*
X5647090Y5978140D02*
Y5994140D01*
X4482910Y4670940D02*
Y4686940D01*
X4597090Y4670940D02*
Y4686940D01*
X4480410Y4045940D02*
Y4061940D01*
X4594590Y4045940D02*
Y4061940D01*
X2417910Y6102190D02*
Y6118190D01*
X2532090Y6102190D02*
Y6118190D01*
X9082090Y5733440D02*
Y5749440D01*
X8967910Y5733440D02*
Y5749440D01*
X3088340Y5945940D02*
Y5961940D01*
X2974160Y5945940D02*
Y5961940D01*
X9388340Y5077190D02*
Y5093190D01*
X9274160Y5077190D02*
Y5093190D01*
X9224160Y5733440D02*
Y5749440D01*
X9338340Y5733440D02*
Y5749440D01*
G54D30*
X7178900Y6265440D02*
Y6332440D01*
X7401100Y6265440D02*
Y6332440D01*
X6641100Y6130440D02*
Y6197440D01*
X6418900Y6130440D02*
Y6197440D01*
G54D31*
X1513490Y3775190D02*
X1652490D01*
X1887510D02*
X2026510D01*
X2637240Y3835190D02*
X2776240D01*
X3011260D02*
X3150260D01*
G54D32*
X2645000Y5246300D02*
Y5305360D01*
X2745000Y5246300D02*
Y5305360D01*
G54D33*
X2695000Y5443155D02*
Y5580945D01*
G54D34*
X307250Y3832140D02*
X380250D01*
X307250Y4013240D02*
X380250D01*
G54D35*
X8955750Y5369725D02*
Y5468155D01*
X9345510Y5369725D02*
Y5468155D01*
X8992620Y6035975D02*
Y6134405D01*
X9382380Y6035975D02*
Y6134405D01*
G54D36*
X2845040Y5642840D02*
X2974960D01*
X2845040Y5505040D02*
X2974960D01*
G54D34*
X9171800Y5048690D02*
Y5121690D01*
X8990700Y5048690D02*
Y5121690D01*
X10144450Y6097440D02*
Y6170440D01*
X10325550Y6097440D02*
Y6170440D01*
G54D37*
X7184410Y6453940D02*
X7235590D01*
X7184410Y6503940D02*
X7235590D01*
X7364410D02*
X7415590D01*
X7364410Y6453940D02*
X7415590D01*
X6420000Y6488350D02*
Y6539530D01*
X6470000Y6488350D02*
Y6539530D01*
Y6308350D02*
Y6359530D01*
X6420000Y6308350D02*
Y6359530D01*
G54D38*
X1402500Y6165550D02*
Y6197050D01*
X1502500Y6165550D02*
Y6197050D01*
Y6460830D02*
Y6492330D01*
X1402500Y6460830D02*
Y6492330D01*
G54D39*
X7578790Y4080610D02*
Y4102270D01*
X7208710Y4080610D02*
Y4102270D01*
X8710040Y4080610D02*
Y4102270D01*
X8339960Y4080610D02*
Y4102270D01*
X8147540Y4080610D02*
Y4102270D01*
X7777460Y4080610D02*
Y4102270D01*
G54D25*
X2865740Y5733940D02*
X2891740D01*
X2958260D02*
X2984260D01*
X2046990Y6410190D02*
X2072990D01*
X2139510D02*
X2165510D01*
X8640740Y5853940D02*
X8666740D01*
X8733260D02*
X8759260D01*
G54D30*
X1242500Y6323940D03*
Y6473940D03*
X5020000Y5948940D03*
Y6098940D03*
X5465000Y6097540D03*
Y6247540D03*
X5165000Y6021140D03*
Y6171140D03*
X7050000Y6263940D03*
Y6413940D03*
X6440000Y6803940D03*
Y6653940D03*
X2275000Y6341440D03*
Y6491440D03*
X1657500Y6323940D03*
Y6473940D03*
X5605000Y6153940D03*
X5755000D03*
X1800000Y5610190D03*
X1650000D03*
X6910000Y6543940D03*
X7060000D03*
X6130000Y6348940D03*
X6280000D03*
G54D40*
X98030Y4576030D02*
X101970D01*
X98030Y4461850D02*
X101970D01*
X503030Y4161850D02*
X506970D01*
X503030Y4276030D02*
X506970D01*
G54D25*
X5275000Y6056880D02*
Y6082880D01*
Y6149400D02*
Y6175400D01*
X5355000Y6058280D02*
Y6084280D01*
Y6150800D02*
Y6176800D01*
G54D16*
X7730500Y6005440D02*
X7744500D01*
X7730500Y6077440D02*
X7744500D01*
X1093000Y4587940D02*
X1107000D01*
X1093000Y4659940D02*
X1107000D01*
X3143000Y4814940D02*
X3157000D01*
X3143000Y4742940D02*
X3157000D01*
X1911750Y4764940D02*
X1925750D01*
X1911750Y4692940D02*
X1925750D01*
X7503000Y6419940D02*
X7517000D01*
X7503000Y6347940D02*
X7517000D01*
X550750Y4803940D02*
X611750D01*
X550750Y4925990D02*
X611750D01*
X10129500Y6267920D02*
X10190500D01*
X10129500Y6389960D02*
X10190500D01*
X10279500Y6267920D02*
X10340500D01*
X10279500Y6389960D02*
X10340500D01*
X7207730Y5454690D02*
Y5515690D01*
X7329770Y5454690D02*
Y5515690D01*
G54D17*
X10535060Y6182440D02*
X10564940D01*
X10535060Y6355440D02*
X10564940D01*
X10700060Y6182440D02*
X10729940D01*
X10700060Y6355440D02*
X10729940D01*
G36*
X10200000Y4144280D02*
X10114300Y4229980D01*
X10200000Y4315680D01*
X10285700Y4229980D01*
X10200000Y4144280D01*
G37*
G36*
Y3543240D02*
X10114300Y3628940D01*
X10200000Y3714640D01*
X10285700Y3628940D01*
X10200000Y3543240D01*
G37*
G36*
X9598960D02*
X9513260Y3628940D01*
X9598960Y3714640D01*
X9684660Y3628940D01*
X9598960Y3543240D01*
G37*
G36*
Y4144280D02*
X9513260Y4229980D01*
X9598960Y4315680D01*
X9684660Y4229980D01*
X9598960Y4144280D01*
G37*
G54D41*
X9455860Y4122690D02*
X9534600D01*
X9455860Y3728990D02*
X9534600D01*
X10266880D02*
X10345620D01*
X10266880Y4122690D02*
X10345620D01*
G54D21*
X1849000Y5585190D02*
Y5635190D01*
X1601000Y5585190D02*
Y5635190D01*
G54D18*
X1638000Y5597190D02*
Y5626190D01*
X1808000Y5597190D02*
Y5626190D01*
X6595000Y5439440D02*
Y5468440D01*
X6765000Y5439440D02*
Y5468440D01*
G54D12*
X1783220Y5035190D02*
X1820620D01*
X1783220Y5085190D02*
X1820620D01*
X1783220Y5135190D02*
X1820620D01*
X1783220Y5185190D02*
X1820620D01*
X1491880Y5035190D02*
X1529280D01*
X1491880Y5085190D02*
X1529280D01*
X1491880Y5135190D02*
X1529280D01*
X1491880Y5185190D02*
X1529280D01*
G54D42*
X0Y3503940D02*
X11100000D01*
Y7007880D01*
X0D02*
X11100000D01*
X0Y3503940D02*
Y7007880D01*
G36*
X6195320Y8207560D02*
Y8307560D01*
X6295310D01*
Y8207560D01*
X6195320D01*
G37*
G36*
Y8087880D02*
Y8187880D01*
X6295310D01*
Y8087880D01*
X6195320D01*
G37*
G36*
X5505320Y8207560D02*
Y8307560D01*
X5605310D01*
Y8207560D01*
X5505320D01*
G37*
G36*
Y8087880D02*
Y8187880D01*
X5605310D01*
Y8087880D01*
X5505320D01*
G37*
G36*
X8994490Y10167880D02*
Y10267880D01*
X9094490D01*
Y10167880D01*
X8994490D01*
G37*
G36*
X8874800D02*
Y10267880D01*
X8974800D01*
Y10167880D01*
X8874800D01*
G37*
G36*
X8711930Y9056340D02*
Y9156340D01*
X8811930D01*
Y9056340D01*
X8711930D01*
G37*
G36*
Y8936660D02*
Y9036660D01*
X8811930D01*
Y8936660D01*
X8711930D01*
G37*
G36*
X8698460Y9610640D02*
Y9710640D01*
X8798460D01*
Y9610640D01*
X8698460D01*
G37*
G36*
Y9490950D02*
Y9590950D01*
X8798460D01*
Y9490950D01*
X8698460D01*
G37*
G36*
X8592240Y9056340D02*
Y9156340D01*
X8692240D01*
Y9056340D01*
X8592240D01*
G37*
G36*
Y8936660D02*
Y9036660D01*
X8692240D01*
Y8936660D01*
X8592240D01*
G37*
G36*
X8578780Y9610640D02*
Y9710640D01*
X8678780D01*
Y9610640D01*
X8578780D01*
G37*
G36*
Y9490950D02*
Y9590950D01*
X8678780D01*
Y9490950D01*
X8578780D01*
G37*
G36*
X6315000Y8207560D02*
Y8307560D01*
X6415000D01*
Y8207560D01*
X6315000D01*
G37*
G36*
Y8087880D02*
Y8187880D01*
X6415000D01*
Y8087880D01*
X6315000D01*
G37*
G36*
X5970000Y8207560D02*
Y8307560D01*
X6070000D01*
Y8207560D01*
X5970000D01*
G37*
G36*
Y8087880D02*
Y8187880D01*
X6070000D01*
Y8087880D01*
X5970000D01*
G37*
G36*
X5625000Y8207560D02*
Y8307560D01*
X5725000D01*
Y8207560D01*
X5625000D01*
G37*
G36*
Y8087880D02*
Y8187880D01*
X5725000D01*
Y8087880D01*
X5625000D01*
G37*
G36*
X5260000Y8207560D02*
Y8307560D01*
X5360000D01*
Y8207560D01*
X5260000D01*
G37*
G36*
Y8087880D02*
Y8187880D01*
X5360000D01*
Y8087880D01*
X5260000D01*
G37*
G36*
X5259690Y9185080D02*
Y9285080D01*
X5359690D01*
Y9185080D01*
X5259690D01*
G37*
G36*
X5140000D02*
Y9285080D01*
X5240000D01*
Y9185080D01*
X5140000D01*
G37*
G36*
X2113720Y9626870D02*
Y9726870D01*
X2213720D01*
Y9626870D01*
X2113720D01*
G37*
G36*
Y9507180D02*
Y9607180D01*
X2213720D01*
Y9507180D01*
X2113720D01*
G37*
G36*
X1994030Y9626870D02*
Y9726870D01*
X2094030D01*
Y9626870D01*
X1994030D01*
G37*
G36*
Y9507180D02*
Y9607180D01*
X2094030D01*
Y9507180D01*
X1994030D01*
G37*
G36*
X8994490Y10287560D02*
Y10387570D01*
X9094490D01*
Y10287560D01*
X8994490D01*
G37*
G36*
X8874800D02*
Y10387570D01*
X8974800D01*
Y10287560D01*
X8874800D01*
G37*
G36*
X5850310Y8207560D02*
Y8307560D01*
X5950320D01*
Y8207560D01*
X5850310D01*
G37*
G36*
Y8087880D02*
Y8187880D01*
X5950320D01*
Y8087880D01*
X5850310D01*
G37*
G36*
X5259690Y9304760D02*
Y9404770D01*
X5359690D01*
Y9304760D01*
X5259690D01*
G37*
G36*
X5140310Y8207560D02*
Y8307560D01*
X5240320D01*
Y8207560D01*
X5140310D01*
G37*
G36*
Y8087880D02*
Y8187880D01*
X5240320D01*
Y8087880D01*
X5140310D01*
G37*
G36*
X5140000Y9304760D02*
Y9404770D01*
X5240000D01*
Y9304760D01*
X5140000D01*
G37*
G54D10*
X6215000Y8479375D02*
Y8534485D01*
X6395000Y8479375D02*
Y8534485D01*
X6050000Y8479375D02*
Y8534485D01*
X5870000Y8479375D02*
Y8534485D01*
X5525000Y8479375D02*
Y8534485D01*
X5705000Y8479375D02*
Y8534485D01*
X5340000Y8479375D02*
Y8534485D01*
X5160000Y8479375D02*
Y8534485D01*
X8611690Y8735325D02*
Y8790435D01*
X8792800Y8735325D02*
Y8790435D01*
G54D11*
X8100215Y10107880D02*
X8108085D01*
X1660665Y8914130D02*
X1668535D01*
X7821465Y9837880D02*
X7829335D01*
G54D12*
X8104150Y10133470D03*
Y10082290D03*
X8033320Y10133470D03*
Y10082290D03*
X1735430Y8939720D03*
Y8888540D03*
X1664600Y8939720D03*
Y8888540D03*
X7825400Y9863470D03*
Y9812290D03*
X7754570Y9863470D03*
Y9812290D03*
G54D10*
X5505905Y9204530D02*
X5561015D01*
X5505905Y9385630D02*
X5561015D01*
X8377445Y9691190D02*
X8432555D01*
X8377445Y9510090D02*
X8432555D01*
X9240715Y10187330D02*
X9295825D01*
X9240715Y10368430D02*
X9295825D01*
X2359945Y9526630D02*
X2415055D01*
X2359945Y9707730D02*
X2415055D01*
G54D13*
X4248600Y9055380D02*
Y9060380D01*
X4301400Y9055380D02*
Y9060380D01*
X4388600Y8300380D02*
Y8305380D01*
X4441400Y8300380D02*
Y8305380D01*
X3256400Y8170380D02*
Y8175380D01*
X3203600Y8170380D02*
Y8175380D01*
X3256400Y8100380D02*
Y8105380D01*
X3203600Y8100380D02*
Y8105380D01*
X3268600Y8425380D02*
Y8430380D01*
X3321400Y8425380D02*
Y8430380D01*
X3268600Y8360380D02*
Y8365380D01*
X3321400Y8360380D02*
Y8365380D01*
X3326400Y8290380D02*
Y8295380D01*
X3273600Y8290380D02*
Y8295380D01*
X3078600Y8385380D02*
Y8390380D01*
X3131400Y8385380D02*
Y8390380D01*
X2132650Y8911630D02*
Y8916630D01*
X2079850Y8911630D02*
Y8916630D01*
X507650Y9224130D02*
Y9229130D01*
X454850Y9224130D02*
Y9229130D01*
X317350Y9224130D02*
Y9229130D01*
X370150Y9224130D02*
Y9229130D01*
X8167350Y10005380D02*
Y10010380D01*
X8220150Y10005380D02*
Y10010380D01*
X4573600Y9670380D02*
Y9675380D01*
X4626400Y9670380D02*
Y9675380D01*
X7876400Y10070380D02*
Y10075380D01*
X7823600Y10070380D02*
Y10075380D01*
X5856400Y9765380D02*
Y9770380D01*
X5803600Y9765380D02*
Y9770380D01*
X5878600Y9570380D02*
Y9575380D01*
X5931400Y9570380D02*
Y9575380D01*
X4626400Y9600380D02*
Y9605380D01*
X4573600Y9600380D02*
Y9605380D01*
X4248600Y8805380D02*
Y8810380D01*
X4301400Y8805380D02*
Y8810380D01*
X9325000Y10095380D02*
Y10100380D01*
X9272200Y10095380D02*
Y10100380D01*
X1832650Y8217880D02*
Y8222880D01*
X1779850Y8217880D02*
Y8222880D01*
X8013900Y9230380D02*
Y9235380D01*
X7961100Y9230380D02*
Y9235380D01*
X8238600Y9230380D02*
Y9235380D01*
X8291400Y9230380D02*
Y9235380D01*
Y9160380D02*
Y9165380D01*
X8238600Y9160380D02*
Y9165380D01*
X7961100Y9142880D02*
Y9147880D01*
X8013900Y9142880D02*
Y9147880D01*
X417350Y9730380D02*
Y9735380D01*
X470150Y9730380D02*
Y9735380D01*
X561100Y9855380D02*
Y9860380D01*
X613900Y9855380D02*
Y9860380D01*
X545150Y9455380D02*
Y9460380D01*
X492350Y9455380D02*
Y9460380D01*
X795150Y9980380D02*
Y9985380D01*
X742350Y9980380D02*
Y9985380D01*
X701400Y9767880D02*
Y9772880D01*
X648600Y9767880D02*
Y9772880D01*
X6066400Y9200380D02*
Y9205380D01*
X6013600Y9200380D02*
Y9205380D01*
X8604850Y8599130D02*
Y8604130D01*
X8657650Y8599130D02*
Y8604130D01*
X3183600Y9435380D02*
Y9440380D01*
X3236400Y9435380D02*
Y9440380D01*
X635000Y8195380D02*
Y8200380D01*
X582200Y8195380D02*
Y8200380D01*
X635000Y8130380D02*
Y8135380D01*
X582200Y8130380D02*
Y8135380D01*
X501400Y8030380D02*
Y8035380D01*
X448600Y8030380D02*
Y8035380D01*
X333600Y8030380D02*
Y8035380D01*
X386400Y8030380D02*
Y8035380D01*
X3626400Y9310380D02*
Y9315380D01*
X3573600Y9310380D02*
Y9315380D01*
X3236400Y9350380D02*
Y9355380D01*
X3183600Y9350380D02*
Y9355380D01*
X2167800Y7390380D02*
Y7395380D01*
X2115000Y7390380D02*
Y7395380D01*
X3621400Y9060380D02*
Y9065380D01*
X3568600Y9060380D02*
Y9065380D01*
X3621400Y8810380D02*
Y8815380D01*
X3568600Y8810380D02*
Y8815380D01*
X8727800Y8740380D02*
Y8745380D01*
X8675000Y8740380D02*
Y8745380D01*
X1867350Y8430380D02*
Y8435380D01*
X1920150Y8430380D02*
Y8435380D01*
X2211100Y7242880D02*
Y7247880D01*
X2263900Y7242880D02*
Y7247880D01*
X2329850Y7242880D02*
Y7247880D01*
X2382650Y7242880D02*
Y7247880D01*
X1923600Y8799130D02*
Y8804130D01*
X1976400Y8799130D02*
Y8804130D01*
X2202050Y9330380D02*
Y9335380D01*
X2254850Y9330380D02*
Y9335380D01*
X9097200Y10000380D02*
Y10005380D01*
X9150000Y10000380D02*
Y10005380D01*
X4388600Y8805380D02*
Y8810380D01*
X4441400Y8805380D02*
Y8810380D01*
X7741080Y9149130D02*
Y9154130D01*
X7793880Y9149130D02*
Y9154130D01*
X3621400Y8560380D02*
Y8565380D01*
X3568600Y8560380D02*
Y8565380D01*
X1396400Y7620380D02*
Y7625380D01*
X1343600Y7620380D02*
Y7625380D01*
X1811890Y7474740D02*
Y7479740D01*
X1759090Y7474740D02*
Y7479740D01*
X3126400Y8465380D02*
Y8470380D01*
X3073600Y8465380D02*
Y8470380D01*
X3126400Y8525380D02*
Y8530380D01*
X3073600Y8525380D02*
Y8530380D01*
X1295150Y9305380D02*
Y9310380D01*
X1242350Y9305380D02*
Y9310380D01*
X1295150Y8867880D02*
Y8872880D01*
X1242350Y8867880D02*
Y8872880D01*
X1343600Y7740380D02*
Y7745380D01*
X1396400Y7740380D02*
Y7745380D01*
X1343600Y7800380D02*
Y7805380D01*
X1396400Y7800380D02*
Y7805380D01*
X1343600Y7860380D02*
Y7865380D01*
X1396400Y7860380D02*
Y7865380D01*
X1684050Y7474130D02*
Y7479130D01*
X1631250Y7474130D02*
Y7479130D01*
X1343600Y7920380D02*
Y7925380D01*
X1396400Y7920380D02*
Y7925380D01*
X9261100Y9874130D02*
Y9879130D01*
X9313900Y9874130D02*
Y9879130D01*
X9798600Y10124430D02*
Y10129430D01*
X9851400Y10124430D02*
Y10129430D01*
X9742350Y10224130D02*
Y10229130D01*
X9795150Y10224130D02*
Y10229130D01*
X9361100Y8224130D02*
Y8229130D01*
X9413900Y8224130D02*
Y8229130D01*
X4388600Y8550380D02*
Y8555380D01*
X4441400Y8550380D02*
Y8555380D01*
X4248600Y8550380D02*
Y8555380D01*
X4301400Y8550380D02*
Y8555380D01*
X9413900Y8286630D02*
Y8291630D01*
X9361100Y8286630D02*
Y8291630D01*
X7066400Y10255380D02*
Y10260380D01*
X7013600Y10255380D02*
Y10260380D01*
X6941400Y10325380D02*
Y10330380D01*
X6888600Y10325380D02*
Y10330380D01*
X1088900Y8699130D02*
Y8704130D01*
X1036100Y8699130D02*
Y8704130D01*
X582650Y9667880D02*
Y9672880D01*
X529850Y9667880D02*
Y9672880D01*
X2870150Y7586630D02*
Y7591630D01*
X2817350Y7586630D02*
Y7591630D01*
X3132650Y8030380D02*
Y8035380D01*
X3079850Y8030380D02*
Y8035380D01*
X1417350Y9080380D02*
Y9085380D01*
X1470150Y9080380D02*
Y9085380D01*
X1617350Y9324130D02*
Y9329130D01*
X1670150Y9324130D02*
Y9329130D01*
X1242350Y9230380D02*
Y9235380D01*
X1295150Y9230380D02*
Y9235380D01*
X1148600Y8542880D02*
Y8547880D01*
X1201400Y8542880D02*
Y8547880D01*
X3326400Y7667880D02*
Y7672880D01*
X3273600Y7667880D02*
Y7672880D01*
X5648600Y9202580D02*
Y9207580D01*
X5701400Y9202580D02*
Y9207580D01*
X3488900Y8392880D02*
Y8397880D01*
X3436100Y8392880D02*
Y8397880D01*
X7618600Y9995380D02*
Y10000380D01*
X7671400Y9995380D02*
Y10000380D01*
X7498600Y9995380D02*
Y10000380D01*
X7551400Y9995380D02*
Y10000380D01*
X6578600Y10100380D02*
Y10105380D01*
X6631400Y10100380D02*
Y10105380D01*
X8069860Y8599130D02*
Y8604130D01*
X8122660Y8599130D02*
Y8604130D01*
X1736100Y9617880D02*
Y9622880D01*
X1788900Y9617880D02*
Y9622880D01*
X4916400Y9190380D02*
Y9195380D01*
X4863600Y9190380D02*
Y9195380D01*
X5871400Y9200380D02*
Y9205380D01*
X5818600Y9200380D02*
Y9205380D01*
X1323600Y7305380D02*
Y7310380D01*
X1376400Y7305380D02*
Y7310380D01*
X4928600Y9695380D02*
Y9700380D01*
X4981400Y9695380D02*
Y9700380D01*
X4703600Y9400380D02*
Y9405380D01*
X4756400Y9400380D02*
Y9405380D01*
X5923600Y9470380D02*
Y9475380D01*
X5976400Y9470380D02*
Y9475380D01*
X1323600Y7374130D02*
Y7379130D01*
X1376400Y7374130D02*
Y7379130D01*
X4008600Y10235380D02*
Y10240380D01*
X4061400Y10235380D02*
Y10240380D01*
Y10305380D02*
Y10310380D01*
X4008600Y10305380D02*
Y10310380D01*
X1788900Y9324130D02*
Y9329130D01*
X1736100Y9324130D02*
Y9329130D01*
X3442350Y8167880D02*
Y8172880D01*
X3495150Y8167880D02*
Y8172880D01*
X1951400Y9999130D02*
Y10004130D01*
X1898600Y9999130D02*
Y10004130D01*
X2412650Y10334130D02*
Y10339130D01*
X2359850Y10334130D02*
Y10339130D01*
X5583600Y9765380D02*
Y9770380D01*
X5636400Y9765380D02*
Y9770380D01*
X2432650Y9905380D02*
Y9910380D01*
X2379850Y9905380D02*
Y9910380D01*
X8286100Y10005380D02*
Y10010380D01*
X8338900Y10005380D02*
Y10010380D01*
X179850Y7967880D02*
Y7972880D01*
X232650Y7967880D02*
Y7972880D01*
X6941400Y10255380D02*
Y10260380D01*
X6888600Y10255380D02*
Y10260380D01*
X1920150Y8367880D02*
Y8372880D01*
X1867350Y8367880D02*
Y8372880D01*
X4928600Y9765380D02*
Y9770380D01*
X4981400Y9765380D02*
Y9770380D01*
X111100Y8211630D02*
Y8216630D01*
X163900Y8211630D02*
Y8216630D01*
X7336080Y9250380D02*
Y9255380D01*
X7388880Y9250380D02*
Y9255380D01*
X4133600Y10305380D02*
Y10310380D01*
X4186400Y10305380D02*
Y10310380D01*
X2432650Y9980380D02*
Y9985380D01*
X2379850Y9980380D02*
Y9985380D01*
X2359850Y10409130D02*
Y10414130D01*
X2412650Y10409130D02*
Y10414130D01*
X1826400Y9999130D02*
Y10004130D01*
X1773600Y9999130D02*
Y10004130D01*
X2841400Y9305380D02*
Y9310380D01*
X2894200Y9305380D02*
Y9310380D01*
X313900Y8211630D02*
Y8216630D01*
X261100Y8211630D02*
Y8216630D01*
X3273600Y9045380D02*
Y9050380D01*
X3326400Y9045380D02*
Y9050380D01*
X3088600Y8925380D02*
Y8930380D01*
X3141400Y8925380D02*
Y8930380D01*
X3121400Y9100380D02*
Y9105380D01*
X3068600Y9100380D02*
Y9105380D01*
X582650Y9730380D02*
Y9735380D01*
X529850Y9730380D02*
Y9735380D01*
X761100Y9767880D02*
Y9772880D01*
X813900Y9767880D02*
Y9772880D01*
X3116400Y9210380D02*
Y9215380D01*
X3063600Y9210380D02*
Y9215380D01*
X7336080Y9310380D02*
Y9315380D01*
X7388880Y9310380D02*
Y9315380D01*
X500000Y7970380D02*
Y7975380D01*
X447200Y7970380D02*
Y7975380D01*
X335000Y7970380D02*
Y7975380D01*
X387800Y7970380D02*
Y7975380D01*
X828600Y8035380D02*
Y8040380D01*
X881400Y8035380D02*
Y8040380D01*
X828600Y8095380D02*
Y8100380D01*
X881400Y8095380D02*
Y8100380D01*
X1057650Y7955380D02*
Y7960380D01*
X1004850Y7955380D02*
Y7960380D01*
X1057650Y8017880D02*
Y8022880D01*
X1004850Y8017880D02*
Y8022880D01*
X1604850Y7411630D02*
Y7416630D01*
X1657650Y7411630D02*
Y7416630D01*
X1861100Y7411630D02*
Y7416630D01*
X1913900Y7411630D02*
Y7416630D01*
X1729850Y7411630D02*
Y7416630D01*
X1782650Y7411630D02*
Y7416630D01*
X1888900Y7899130D02*
Y7904130D01*
X1836100Y7899130D02*
Y7904130D01*
X1343600Y7680380D02*
Y7685380D01*
X1396400Y7680380D02*
Y7685380D01*
X2511100Y9142880D02*
Y9147880D01*
X2563900Y9142880D02*
Y9147880D01*
X7013600Y10185380D02*
Y10190380D01*
X7066400Y10185380D02*
Y10190380D01*
X2103600Y7750380D02*
Y7755380D01*
X2156400Y7750380D02*
Y7755380D01*
X9982650Y10080380D02*
Y10085380D01*
X9929850Y10080380D02*
Y10085380D01*
X2103600Y7650380D02*
Y7655380D01*
X2156400Y7650380D02*
Y7655380D01*
X3131400Y7930200D02*
Y7935200D01*
X3078600Y7930200D02*
Y7935200D01*
X2536100Y8792880D02*
Y8797880D01*
X2588900Y8792880D02*
Y8797880D01*
X2863900Y8805380D02*
Y8810380D01*
X2811100Y8805380D02*
Y8810380D01*
X2761100Y7486630D02*
Y7491630D01*
X2813900Y7486630D02*
Y7491630D01*
X2926400Y7486630D02*
Y7491630D01*
X2873600Y7486630D02*
Y7491630D01*
X1267350Y9080380D02*
Y9085380D01*
X1320150Y9080380D02*
Y9085380D01*
X1326400Y9380380D02*
Y9385380D01*
X1273600Y9380380D02*
Y9385380D01*
X1795150Y9517880D02*
Y9522880D01*
X1742350Y9517880D02*
Y9522880D01*
X1295150Y9155380D02*
Y9160380D01*
X1242350Y9155380D02*
Y9160380D01*
X5416400Y9500380D02*
Y9505380D01*
X5363600Y9500380D02*
Y9505380D01*
X2126400Y9830380D02*
Y9835380D01*
X2073600Y9830380D02*
Y9835380D01*
X4061400Y10165380D02*
Y10170380D01*
X4008600Y10165380D02*
Y10170380D01*
X2088900Y9999130D02*
Y10004130D01*
X2036100Y9999130D02*
Y10004130D01*
X1186400Y8945380D02*
Y8950380D01*
X1133600Y8945380D02*
Y8950380D01*
X9170150Y10074130D02*
Y10079130D01*
X9117350Y10074130D02*
Y10079130D01*
X1420150Y9305380D02*
Y9310380D01*
X1367350Y9305380D02*
Y9310380D01*
X4301400Y8300380D02*
Y8305380D01*
X4248600Y8300380D02*
Y8305380D01*
X4441400Y9055380D02*
Y9060380D01*
X4388600Y9055380D02*
Y9060380D01*
X1054850Y8430380D02*
Y8435380D01*
X1107650Y8430380D02*
Y8435380D01*
X2359850Y10259130D02*
Y10264130D01*
X2412650Y10259130D02*
Y10264130D01*
X761100Y9705380D02*
Y9710380D01*
X813900Y9705380D02*
Y9710380D01*
X4162500Y8966480D02*
X4167500D01*
X4162500Y9019280D02*
X4167500D01*
X3472500Y8628030D02*
X3477500D01*
X3472500Y8575230D02*
X3477500D01*
X2235000Y8943980D02*
X2240000D01*
X2235000Y8996780D02*
X2240000D01*
X7872500Y9950230D02*
X7877500D01*
X7872500Y10003030D02*
X7877500D01*
X7953750D02*
X7958750D01*
X7953750Y9950230D02*
X7958750D01*
X5922500Y9641480D02*
X5927500D01*
X5922500Y9694280D02*
X5927500D01*
X5852500D02*
X5857500D01*
X5852500Y9641480D02*
X5857500D01*
X4457500Y9621480D02*
X4462500D01*
X4457500Y9674280D02*
X4462500D01*
X4457500Y9741480D02*
X4462500D01*
X4457500Y9794280D02*
X4462500D01*
X4622500Y9741480D02*
X4627500D01*
X4622500Y9794280D02*
X4627500D01*
X4527500Y9741480D02*
X4532500D01*
X4527500Y9794280D02*
X4532500D01*
X4692500Y9741480D02*
X4697500D01*
X4692500Y9794280D02*
X4697500D01*
X7802500Y9950230D02*
X7807500D01*
X7802500Y10003030D02*
X7807500D01*
X4387500Y9674280D02*
X4392500D01*
X4387500Y9621480D02*
X4392500D01*
X8497500Y8761480D02*
X8502500D01*
X8497500Y8814280D02*
X8502500D01*
X8497500Y9371780D02*
X8502500D01*
X8497500Y9318980D02*
X8502500D01*
X416250Y9665530D02*
X421250D01*
X416250Y9612730D02*
X421250D01*
X697500Y9365530D02*
X702500D01*
X697500Y9312730D02*
X702500D01*
X772500Y9509280D02*
X777500D01*
X772500Y9456480D02*
X777500D01*
X8572500Y9371780D02*
X8577500D01*
X8572500Y9318980D02*
X8577500D01*
X8278750Y9640530D02*
X8283750D01*
X8278750Y9587730D02*
X8283750D01*
X8177500Y9489280D02*
X8182500D01*
X8177500Y9436480D02*
X8182500D01*
X7972500Y9494280D02*
X7977500D01*
X7972500Y9441480D02*
X7977500D01*
X8285000Y9921780D02*
X8290000D01*
X8285000Y9868980D02*
X8290000D01*
X257500Y8061480D02*
X262500D01*
X257500Y8114280D02*
X262500D01*
X2960290Y9306480D02*
X2965290D01*
X2960290Y9359280D02*
X2965290D01*
X8228750Y8903030D02*
X8233750D01*
X8228750Y8850230D02*
X8233750D01*
X8078750Y9640530D02*
X8083750D01*
X8078750Y9587730D02*
X8083750D01*
X2043900Y8572880D02*
X2048900D01*
X2043900Y8625680D02*
X2048900D01*
X2447500Y7243980D02*
X2452500D01*
X2447500Y7296780D02*
X2452500D01*
X2941250Y8878030D02*
X2946250D01*
X2941250Y8825230D02*
X2946250D01*
X2353750Y8943980D02*
X2358750D01*
X2353750Y8996780D02*
X2358750D01*
X3402500Y8843110D02*
X3407500D01*
X3402500Y8895910D02*
X3407500D01*
X3402500Y8706480D02*
X3407500D01*
X3402500Y8759280D02*
X3407500D01*
X9260000Y9990530D02*
X9265000D01*
X9260000Y9937730D02*
X9265000D01*
X4162500Y9269280D02*
X4167500D01*
X4162500Y9216480D02*
X4167500D01*
X4162500Y8519280D02*
X4167500D01*
X4162500Y8466480D02*
X4167500D01*
X1541250Y8918980D02*
X1546250D01*
X1541250Y8971780D02*
X1546250D01*
X1842500Y8006480D02*
X1847500D01*
X1842500Y8059280D02*
X1847500D01*
X8178750Y9587730D02*
X8183750D01*
X8178750Y9640530D02*
X8183750D01*
X1647500Y8078030D02*
X1652500D01*
X1647500Y8025230D02*
X1652500D01*
X9428750Y10018980D02*
X9433750D01*
X9428750Y10071780D02*
X9433750D01*
X7828750Y9309280D02*
X7833750D01*
X7828750Y9256480D02*
X7833750D01*
X9283130Y10304280D02*
X9288130D01*
X9283130Y10251480D02*
X9288130D01*
X647500Y9656480D02*
X652500D01*
X647500Y9709280D02*
X652500D01*
X9666250Y10278030D02*
X9671250D01*
X9666250Y10225230D02*
X9671250D01*
X7671860Y8607880D02*
X7676860D01*
X7671860Y8660680D02*
X7676860D01*
X3487500Y9145680D02*
X3492500D01*
X3487500Y9092880D02*
X3492500D01*
X4162500Y8769280D02*
X4167500D01*
X4162500Y8716480D02*
X4167500D01*
X3487500Y8879280D02*
X3492500D01*
X3487500Y8826480D02*
X3492500D01*
X1510000Y9237730D02*
X1515000D01*
X1510000Y9290530D02*
X1515000D01*
X1322500Y8990530D02*
X1327500D01*
X1322500Y8937730D02*
X1327500D01*
X2478750Y9528030D02*
X2483750D01*
X2478750Y9475230D02*
X2483750D01*
X1578750Y8025230D02*
X1583750D01*
X1578750Y8078030D02*
X1583750D01*
X3360000Y8168980D02*
X3365000D01*
X3360000Y8221780D02*
X3365000D01*
X6577500Y9806480D02*
X6582500D01*
X6577500Y9859280D02*
X6582500D01*
X4987500Y9296480D02*
X4992500D01*
X4987500Y9349280D02*
X4992500D01*
X4857500Y9696480D02*
X4862500D01*
X4857500Y9749280D02*
X4862500D01*
X1828750Y9921780D02*
X1833750D01*
X1828750Y9868980D02*
X1833750D01*
X2278750Y10190530D02*
X2283750D01*
X2278750Y10137730D02*
X2283750D01*
X5052500Y9769280D02*
X5057500D01*
X5052500Y9716480D02*
X5057500D01*
X497500Y7851480D02*
X502500D01*
X497500Y7904280D02*
X502500D01*
X937500Y8091480D02*
X942500D01*
X937500Y8144280D02*
X942500D01*
X1012500Y8091480D02*
X1017500D01*
X1012500Y8144280D02*
X1017500D01*
X3153750Y7644280D02*
X3158750D01*
X3153750Y7591480D02*
X3158750D01*
X5272500Y9806480D02*
X5277500D01*
X5272500Y9753680D02*
X5277500D01*
X5352500Y9807880D02*
X5357500D01*
X5352500Y9755080D02*
X5357500D01*
X403750Y9128030D02*
X408750D01*
X403750Y9075230D02*
X408750D01*
X335000Y9128030D02*
X340000D01*
X335000Y9075230D02*
X340000D01*
X6784980Y8776480D02*
X6789980D01*
X6784980Y8829280D02*
X6789980D01*
X6557500Y8781480D02*
X6562500D01*
X6557500Y8834280D02*
X6562500D01*
X72500Y8731480D02*
X77500D01*
X72500Y8784280D02*
X77500D01*
X72500Y8371780D02*
X77500D01*
X72500Y8318980D02*
X77500D01*
X72500Y8881480D02*
X77500D01*
X72500Y8934280D02*
X77500D01*
X7328750Y9118980D02*
X7333750D01*
X7328750Y9171780D02*
X7333750D01*
X3402500Y8561480D02*
X3407500D01*
X3402500Y8614280D02*
X3407500D01*
X2787500Y9387880D02*
X2792500D01*
X2787500Y9440680D02*
X2792500D01*
X2947500Y7644280D02*
X2952500D01*
X2947500Y7591480D02*
X2952500D01*
X7810000Y9559280D02*
X7815000D01*
X7810000Y9506480D02*
X7815000D01*
X1541250Y8853030D02*
X1546250D01*
X1541250Y8800230D02*
X1546250D01*
X8057500Y9914280D02*
X8062500D01*
X8057500Y9861480D02*
X8062500D01*
X628750Y9365530D02*
X633750D01*
X628750Y9312730D02*
X633750D01*
X197500Y8061480D02*
X202500D01*
X197500Y8114280D02*
X202500D01*
X603750Y8012730D02*
X608750D01*
X603750Y8065530D02*
X608750D01*
X9185000Y9875230D02*
X9190000D01*
X9185000Y9928030D02*
X9190000D01*
X2322500Y7575230D02*
X2327500D01*
X2322500Y7628030D02*
X2327500D01*
X3077500Y8169280D02*
X3082500D01*
X3077500Y8116480D02*
X3082500D01*
X9091250Y9875230D02*
X9096250D01*
X9091250Y9928030D02*
X9096250D01*
X10053750Y9840530D02*
X10058750D01*
X10053750Y9787730D02*
X10058750D01*
X2316250Y8728030D02*
X2321250D01*
X2316250Y8675230D02*
X2321250D01*
X2028750Y8212730D02*
X2033750D01*
X2028750Y8265530D02*
X2033750D01*
X3077500Y8266480D02*
X3082500D01*
X3077500Y8319280D02*
X3082500D01*
X2716250Y7591480D02*
X2721250D01*
X2716250Y7644280D02*
X2721250D01*
X2866250Y8746780D02*
X2871250D01*
X2866250Y8693980D02*
X2871250D01*
X2487500Y8734280D02*
X2492500D01*
X2487500Y8681480D02*
X2492500D01*
X2597500Y7591480D02*
X2602500D01*
X2597500Y7644280D02*
X2602500D01*
X2803750Y8746780D02*
X2808750D01*
X2803750Y8693980D02*
X2808750D01*
X2035000Y8012730D02*
X2040000D01*
X2035000Y8065530D02*
X2040000D01*
X3085000Y7591480D02*
X3090000D01*
X3085000Y7644280D02*
X3090000D01*
X3016250Y7591480D02*
X3021250D01*
X3016250Y7644280D02*
X3021250D01*
X1785000Y8887730D02*
X1790000D01*
X1785000Y8940530D02*
X1790000D01*
X1303750Y9487730D02*
X1308750D01*
X1303750Y9540530D02*
X1308750D01*
X1245000Y9734280D02*
X1250000D01*
X1245000Y9681480D02*
X1250000D01*
X4787500Y9749280D02*
X4792500D01*
X4787500Y9696480D02*
X4792500D01*
X7403750Y9118980D02*
X7408750D01*
X7403750Y9171780D02*
X7408750D01*
X272500Y9128030D02*
X277500D01*
X272500Y9075230D02*
X277500D01*
X1066250Y8303030D02*
X1071250D01*
X1066250Y8250230D02*
X1071250D01*
X1253750Y8381480D02*
X1258750D01*
X1253750Y8434280D02*
X1258750D01*
X1178750D02*
X1183750D01*
X1178750Y8381480D02*
X1183750D01*
X1810000Y8803030D02*
X1815000D01*
X1810000Y8750230D02*
X1815000D01*
G54D14*
X4242690Y8466270D02*
X4250690D01*
X4242690Y8389490D02*
X4250690D01*
X6214310Y9349490D02*
X6222310D01*
X6214310Y9426270D02*
X6222310D01*
X4222690Y9661270D02*
X4230690D01*
X4222690Y9584490D02*
X4230690D01*
X2236000Y7397880D02*
X2244000D01*
X2236000Y7321110D02*
X2244000D01*
X8000570Y8589490D02*
X8008570D01*
X8000570Y8666270D02*
X8008570D01*
X8539310Y8588240D02*
X8547310D01*
X8539310Y8665020D02*
X8547310D01*
X8337690Y8851270D02*
X8345690D01*
X8337690Y8774490D02*
X8345690D01*
X3265190Y7846270D02*
X3273190D01*
X3265190Y7769490D02*
X3273190D01*
X1076810Y8544490D02*
X1084810D01*
X1076810Y8621270D02*
X1084810D01*
X7576470Y8589490D02*
X7584470D01*
X7576470Y8666270D02*
X7584470D01*
X4913060Y9269490D02*
X4921060D01*
X4913060Y9346270D02*
X4921060D01*
X4242690Y9216270D02*
X4250690D01*
X4242690Y9139490D02*
X4250690D01*
X4242690Y8966270D02*
X4250690D01*
X4242690Y8889490D02*
X4250690D01*
X4242690Y8716270D02*
X4250690D01*
X4242690Y8639490D02*
X4250690D01*
X4826440Y9477520D02*
X4834440D01*
X4826440Y9400740D02*
X4834440D01*
X5899310Y9299490D02*
X5907310D01*
X5899310Y9376270D02*
X5907310D01*
X6059310Y9299490D02*
X6067310D01*
X6059310Y9376270D02*
X6067310D01*
X8299310Y9704490D02*
X8307310D01*
X8299310Y9781270D02*
X8307310D01*
X552690Y10021270D02*
X560690D01*
X552690Y9944490D02*
X560690D01*
X8072690Y9781270D02*
X8080690D01*
X8072690Y9704490D02*
X8080690D01*
X8358060Y8588240D02*
X8366060D01*
X8358060Y8665020D02*
X8366060D01*
X8752690Y9990020D02*
X8760690D01*
X8752690Y9913240D02*
X8760690D01*
X5642690Y9378470D02*
X5650690D01*
X5642690Y9301690D02*
X5650690D01*
X6664310Y9944490D02*
X6672310D01*
X6664310Y10021270D02*
X6672310D01*
X7229310Y10219490D02*
X7237310D01*
X7229310Y10296270D02*
X7237310D01*
X7433060Y8594490D02*
X7441060D01*
X7433060Y8671270D02*
X7441060D01*
X3265190Y7983770D02*
X3273190D01*
X3265190Y7906990D02*
X3273190D01*
X7874310Y8589490D02*
X7882310D01*
X7874310Y8666270D02*
X7882310D01*
X3254310Y9209490D02*
X3262310D01*
X3254310Y9286270D02*
X3262310D01*
X2346440Y10152520D02*
X2354440D01*
X2346440Y10075740D02*
X2354440D01*
G54D15*
X4330310Y8427880D02*
X4336310D01*
X6128690Y9387880D02*
X6134690D01*
X4310310Y9622880D02*
X4316310D01*
X2323610Y7359490D02*
X2329610D01*
X7914950Y8627880D02*
X7920950D01*
X8453690Y8626630D02*
X8459690D01*
X8425310Y8812880D02*
X8431310D01*
X3352810Y7807880D02*
X3358810D01*
X991190Y8582880D02*
X997190D01*
X7490860Y8627880D02*
X7496860D01*
X4827440Y9307880D02*
X4833440D01*
X4330310Y9177880D02*
X4336310D01*
X4330310Y8927880D02*
X4336310D01*
X4330310Y8677880D02*
X4336310D01*
X4914060Y9439130D02*
X4920060D01*
X5813690Y9337880D02*
X5819690D01*
X5973690D02*
X5979690D01*
X8213690Y9742880D02*
X8219690D01*
X640310Y9982880D02*
X646310D01*
X8160310Y9742880D02*
X8166310D01*
X8272440Y8626630D02*
X8278440D01*
X8840310Y9951630D02*
X8846310D01*
X5730310Y9340080D02*
X5736310D01*
X6578690Y9982880D02*
X6584690D01*
X7143690Y10257880D02*
X7149690D01*
X7347440Y8632880D02*
X7353440D01*
X3352810Y7945380D02*
X3358810D01*
X7788690Y8627880D02*
X7794690D01*
X3168690Y9247880D02*
X3174690D01*
X2434060Y10114130D02*
X2440060D01*
G54D14*
X4088390Y8222190D02*
Y8230190D01*
X4011610Y8222190D02*
Y8230190D01*
X7901610Y9780570D02*
Y9788570D01*
X7978390Y9780570D02*
Y9788570D01*
X4536610Y9445570D02*
Y9453570D01*
X4613390Y9445570D02*
Y9453570D01*
X488390Y10015940D02*
Y10023940D01*
X411610Y10015940D02*
Y10023940D01*
X9396610Y10130570D02*
Y10138570D01*
X9473390Y10130570D02*
Y10138570D01*
X3507140Y8328440D02*
Y8336440D01*
X3430360Y8328440D02*
Y8336440D01*
X582140Y9603440D02*
Y9611440D01*
X505360Y9603440D02*
Y9611440D01*
X482140Y9878440D02*
Y9886440D01*
X405360Y9878440D02*
Y9886440D01*
X794640Y9915940D02*
Y9923940D01*
X717860Y9915940D02*
Y9923940D01*
X813390Y9647190D02*
Y9655190D01*
X736610Y9647190D02*
Y9655190D01*
X8236610Y9285570D02*
Y9293570D01*
X8313390Y9285570D02*
Y9293570D01*
X8031610Y9285570D02*
Y9293570D01*
X8108390Y9285570D02*
Y9293570D01*
X8241610Y9435570D02*
Y9443570D01*
X8318390Y9435570D02*
Y9443570D01*
X8041610Y9435570D02*
Y9443570D01*
X8118390Y9435570D02*
Y9443570D01*
X1361610Y8798070D02*
Y8806070D01*
X1438390Y8798070D02*
Y8806070D01*
X3556610Y9140570D02*
Y9148570D01*
X3633390Y9140570D02*
Y9148570D01*
X3556610Y8875570D02*
Y8883570D01*
X3633390Y8875570D02*
Y8883570D01*
X3556610Y8625570D02*
Y8633570D01*
X3633390Y8625570D02*
Y8633570D01*
X3556610Y8375570D02*
Y8383570D01*
X3633390Y8375570D02*
Y8383570D01*
X1399110Y8929320D02*
Y8937320D01*
X1475890Y8929320D02*
Y8937320D01*
X4836610Y9535570D02*
Y9543570D01*
X4913390Y9535570D02*
Y9543570D01*
X8091610Y9145570D02*
Y9153570D01*
X8168390Y9145570D02*
Y9153570D01*
X5731610Y9455570D02*
Y9463570D01*
X5808390Y9455570D02*
Y9463570D01*
X8130360Y9854320D02*
Y9862320D01*
X8207140Y9854320D02*
Y9862320D01*
X624110Y9454320D02*
Y9462320D01*
X700890Y9454320D02*
Y9462320D01*
X9526610Y10130570D02*
Y10138570D01*
X9603390Y10130570D02*
Y10138570D01*
X7596610Y9740570D02*
Y9748570D01*
X7673390Y9740570D02*
Y9748570D01*
X2623390Y9509690D02*
Y9517690D01*
X2546610Y9509690D02*
Y9517690D01*
X4701610Y9535570D02*
Y9543570D01*
X4778390Y9535570D02*
Y9543570D01*
X3923390Y10252190D02*
Y10260190D01*
X3846610Y10252190D02*
Y10260190D01*
X1905360Y9841820D02*
Y9849820D01*
X1982140Y9841820D02*
Y9849820D01*
X1219640Y8223070D02*
Y8231070D01*
X1142860Y8223070D02*
Y8231070D01*
G54D15*
X4050000Y8136570D02*
Y8142570D01*
X7940000Y9868190D02*
Y9874190D01*
X4575000Y9533190D02*
Y9539190D01*
X450000Y9930320D02*
Y9936320D01*
X9435000Y10218190D02*
Y10224190D01*
X3468750Y8242820D02*
Y8248820D01*
X543750Y9517820D02*
Y9523820D01*
X443750Y9792820D02*
Y9798820D01*
X756250Y9830320D02*
Y9836320D01*
X775000Y9561570D02*
Y9567570D01*
X8275000Y9373190D02*
Y9379190D01*
X8070000Y9373190D02*
Y9379190D01*
X8280000Y9523190D02*
Y9529190D01*
X8080000Y9523190D02*
Y9529190D01*
X1400000Y8885690D02*
Y8891690D01*
X3595000Y9228190D02*
Y9234190D01*
Y8963190D02*
Y8969190D01*
Y8713190D02*
Y8719190D01*
Y8463190D02*
Y8469190D01*
X1437500Y9016940D02*
Y9022940D01*
X4875000Y9623190D02*
Y9629190D01*
X8130000Y9233190D02*
Y9239190D01*
X5770000Y9543190D02*
Y9549190D01*
X8168750Y9941940D02*
Y9947940D01*
X662500Y9541940D02*
Y9547940D01*
X9565000Y10218190D02*
Y10224190D01*
X7635000Y9828190D02*
Y9834190D01*
X2585000Y9424070D02*
Y9430070D01*
X4740000Y9623190D02*
Y9629190D01*
X3885000Y10166570D02*
Y10172570D01*
X1943750Y9929440D02*
Y9935440D01*
X1181250Y8310690D02*
Y8316690D01*
G54D16*
X3264000Y8500880D02*
Y8514880D01*
X3336000Y8500880D02*
Y8514880D01*
X1979750Y8719630D02*
Y8733630D01*
X1907750Y8719630D02*
Y8733630D01*
X2746000Y8670880D02*
Y8684880D01*
X2674000Y8670880D02*
Y8684880D01*
X2464000Y7433950D02*
Y7447950D01*
X2536000Y7433950D02*
Y7447950D01*
X664000Y8969380D02*
Y8983380D01*
X736000Y8969380D02*
Y8983380D01*
X3331000Y9125880D02*
Y9139880D01*
X3259000Y9125880D02*
Y9139880D01*
X7398480Y9375880D02*
Y9389880D01*
X7326480Y9375880D02*
Y9389880D01*
X9920250Y9994630D02*
Y10008630D01*
X9992250Y9994630D02*
Y10008630D01*
X307750Y9300880D02*
Y9314880D01*
X379750Y9300880D02*
Y9314880D01*
X523500Y9300880D02*
Y9314880D01*
X451500Y9300880D02*
Y9314880D01*
X9920250Y9907130D02*
Y9921130D01*
X9992250Y9907130D02*
Y9921130D01*
X936000Y7960880D02*
Y7974880D01*
X864000Y7960880D02*
Y7974880D01*
X6291000Y9730880D02*
Y9744880D01*
X6219000Y9730880D02*
Y9744880D01*
X6641500Y8728380D02*
Y8742380D01*
X6713500Y8728380D02*
Y8742380D01*
X6641480Y8815880D02*
Y8829880D01*
X6713480Y8815880D02*
Y8829880D01*
X9448500Y9938380D02*
Y9952380D01*
X9376500Y9938380D02*
Y9952380D01*
X7599000Y9910880D02*
Y9924880D01*
X7671000Y9910880D02*
Y9924880D01*
X6579000Y10175880D02*
Y10189880D01*
X6651000Y10175880D02*
Y10189880D01*
X3069000Y9005880D02*
Y9019880D01*
X3141000Y9005880D02*
Y9019880D01*
G54D17*
X9359130Y10337940D02*
Y10367820D01*
X9532130Y10337940D02*
Y10367820D01*
X10561500Y9962940D02*
Y9992820D01*
X10388500Y9962940D02*
Y9992820D01*
X10713500Y9962940D02*
Y9992820D01*
X10886500Y9962940D02*
Y9992820D01*
X9032250Y8405440D02*
Y8435320D01*
X9205250Y8405440D02*
Y8435320D01*
G54D18*
X1127160Y9264130D03*
X772840D03*
X1127160Y9364130D03*
X772840D03*
X4048570Y9215460D03*
X3694240D03*
X4048570Y9315460D03*
X3694240D03*
X4048570Y8965460D03*
X3694240D03*
X4048570Y9065460D03*
X3694240D03*
X4048570Y8715460D03*
X3694240D03*
X4048570Y8815460D03*
X3694240D03*
X4048570Y8465460D03*
X3694240D03*
X4048570Y8565460D03*
X3694240D03*
X3579090Y8264130D03*
X3933410D03*
X3579090Y8164130D03*
X3933410D03*
G54D19*
X461175Y8123040D02*
X480865D01*
X461175Y8142720D02*
X480865D01*
X461175Y8103350D02*
X480865D01*
X461175Y8162410D02*
X480865D01*
X339135Y8103350D02*
X358825D01*
X339135Y8162410D02*
X358825D01*
X339135Y8123040D02*
X358825D01*
X339135Y8142720D02*
X358825D01*
G54D20*
X3236550Y8835340D02*
Y8865340D01*
X3144030Y8835340D02*
Y8865340D01*
X3329070Y8835340D02*
Y8865340D01*
G54D21*
X3201550Y8602340D02*
X3271550D01*
G54D20*
X7735000Y9325400D02*
X7765000D01*
X7735000Y9417920D02*
X7765000D01*
X7735000Y9232880D02*
X7765000D01*
G54D21*
X7502000Y9290400D02*
Y9360400D01*
G54D22*
X1811750Y7841150D02*
X1862750D01*
X1811750Y7821460D02*
X1862750D01*
X1811750Y7801780D02*
X1862750D01*
X1811750Y7782090D02*
X1862750D01*
X1811750Y7762410D02*
X1862750D01*
X1811750Y7742720D02*
X1862750D01*
X1811750Y7723040D02*
X1862750D01*
X1811750Y7703350D02*
X1862750D01*
X1811750Y7683670D02*
X1862750D01*
X1811750Y7663980D02*
X1862750D01*
X1811750Y7644300D02*
X1862750D01*
X1811750Y7624610D02*
X1862750D01*
X1487250Y7841150D02*
X1538250D01*
X1487250Y7821460D02*
X1538250D01*
X1487250Y7801780D02*
X1538250D01*
X1487250Y7782090D02*
X1538250D01*
X1487250Y7762410D02*
X1538250D01*
X1487250Y7742720D02*
X1538250D01*
X1487250Y7723040D02*
X1538250D01*
X1487250Y7703350D02*
X1538250D01*
X1487250Y7683670D02*
X1538250D01*
X1487250Y7663980D02*
X1538250D01*
X1487250Y7644300D02*
X1538250D01*
X1487250Y7624610D02*
X1538250D01*
X1783270Y7545130D02*
Y7596130D01*
X1763580Y7545130D02*
Y7596130D01*
X1743900Y7545130D02*
Y7596130D01*
X1724210Y7545130D02*
Y7596130D01*
X1704530Y7545130D02*
Y7596130D01*
X1684840Y7545130D02*
Y7596130D01*
X1665160Y7545130D02*
Y7596130D01*
X1645470Y7545130D02*
Y7596130D01*
X1625790Y7545130D02*
Y7596130D01*
X1606100Y7545130D02*
Y7596130D01*
X1586420Y7545130D02*
Y7596130D01*
X1566730Y7545130D02*
Y7596130D01*
X1783270Y7869630D02*
Y7920630D01*
X1763580Y7869630D02*
Y7920630D01*
X1743900Y7869630D02*
Y7920630D01*
X1724210Y7869630D02*
Y7920630D01*
X1704530Y7869630D02*
Y7920630D01*
X1684840Y7869630D02*
Y7920630D01*
X1665160Y7869630D02*
Y7920630D01*
X1645470Y7869630D02*
Y7920630D01*
X1625790Y7869630D02*
Y7920630D01*
X1606100Y7869630D02*
Y7920630D01*
X1586420Y7869630D02*
Y7920630D01*
X1566730Y7869630D02*
Y7920630D01*
G54D23*
X9553810Y10001930D02*
X9599810D01*
X9780190D02*
X9826190D01*
X9553810Y10027530D02*
X9599810D01*
X9553810Y10053120D02*
X9599810D01*
X9553810Y10078710D02*
X9599810D01*
X9780190D02*
X9826190D01*
X9780190Y10027530D02*
X9826190D01*
X9780190Y10053120D02*
X9826190D01*
X9553810Y9976350D02*
X9599810D01*
X9553810Y9925160D02*
X9599810D01*
X9553810Y9950750D02*
X9599810D01*
X9780190Y9976350D02*
X9826190D01*
X9780190Y9950750D02*
X9826190D01*
X9780190Y9925160D02*
X9826190D01*
G54D24*
X9690000Y9999960D02*
Y10003900D01*
G54D25*
X1350970Y9151730D02*
X1370970D01*
X1350970Y9226530D02*
X1370970D01*
X1441530Y9151730D02*
X1461530D01*
X1441530Y9226530D02*
X1461530D01*
X1441530Y9189130D02*
X1461530D01*
X2560280Y9051530D02*
X2580280D01*
X2560280Y8976730D02*
X2580280D01*
X2469720Y9051530D02*
X2489720D01*
X2469720Y8976730D02*
X2489720D01*
X2560280Y9014130D02*
X2580280D01*
X2469700D02*
X2489700D01*
X3014720Y9280480D02*
X3034720D01*
X3014720Y9355280D02*
X3034720D01*
X3105280Y9280480D02*
X3125280D01*
X3105280Y9355280D02*
X3125280D01*
X3014720Y9317880D02*
X3034720D01*
X3105300D02*
X3125300D01*
G54D22*
X2246540Y8538400D02*
Y8589400D01*
X2226850Y8538400D02*
Y8589400D01*
X2344960Y8538400D02*
Y8589400D01*
X2325280Y8538400D02*
Y8589400D01*
X2305590Y8538400D02*
Y8589400D01*
X2285910Y8538400D02*
Y8589400D01*
X2266220Y8538400D02*
Y8589400D01*
X2541810Y8538400D02*
Y8589400D01*
X2522130Y8538400D02*
Y8589400D01*
X2502440Y8538400D02*
Y8589400D01*
X2482760Y8538400D02*
Y8589400D01*
X2463070Y8538400D02*
Y8589400D01*
X2443390Y8538400D02*
Y8589400D01*
X2423700Y8538400D02*
Y8589400D01*
X2404020Y8538400D02*
Y8589400D01*
X2640240Y8538400D02*
Y8589400D01*
X2620550Y8538400D02*
Y8589400D01*
X2600870Y8538400D02*
Y8589400D01*
X2581180Y8538400D02*
Y8589400D01*
X2561500Y8538400D02*
Y8589400D01*
X2384330Y8538400D02*
Y8589400D01*
X2659920Y8538400D02*
Y8589400D01*
X2856770Y8538400D02*
Y8589400D01*
X2837090Y8538400D02*
Y8589400D01*
X2817400Y8538400D02*
Y8589400D01*
X2797720Y8538400D02*
Y8589400D01*
X2778030Y8538400D02*
Y8589400D01*
X2758350Y8538400D02*
Y8589400D01*
X2738660Y8538400D02*
Y8589400D01*
X2718980Y8538400D02*
Y8589400D01*
X2699290Y8538400D02*
Y8589400D01*
X2915830Y8538400D02*
Y8589400D01*
X2896140Y8538400D02*
Y8589400D01*
X2876460Y8538400D02*
Y8589400D01*
X2226850Y7703760D02*
Y7754760D01*
X2246540Y7703760D02*
Y7754760D01*
X2285910Y7703760D02*
Y7754760D01*
X2305590Y7703760D02*
Y7754760D01*
X2325280Y7703760D02*
Y7754760D01*
X2344960Y7703760D02*
Y7754760D01*
X2266220Y7703760D02*
Y7754760D01*
X2404020Y7703760D02*
Y7754760D01*
X2423700Y7703760D02*
Y7754760D01*
X2443390Y7703760D02*
Y7754760D01*
X2482760Y7703760D02*
Y7754760D01*
X2502440Y7703760D02*
Y7754760D01*
X2522130Y7703760D02*
Y7754760D01*
X2541810Y7703760D02*
Y7754760D01*
X2600870Y7703760D02*
Y7754760D01*
X2620550Y7703760D02*
Y7754760D01*
X2640240Y7703760D02*
Y7754760D01*
X2561500Y7703760D02*
Y7754760D01*
X2581180Y7703760D02*
Y7754760D01*
X2384330Y7703760D02*
Y7754760D01*
X2659920Y7703760D02*
Y7754760D01*
X2463070Y7703760D02*
Y7754760D01*
X2699290Y7703760D02*
Y7754760D01*
X2718980Y7703760D02*
Y7754760D01*
X2738660Y7703760D02*
Y7754760D01*
X2758350Y7703760D02*
Y7754760D01*
X2778030Y7703760D02*
Y7754760D01*
X2797720Y7703760D02*
Y7754760D01*
X2817400Y7703760D02*
Y7754760D01*
X2837090Y7703760D02*
Y7754760D01*
X2856770Y7703760D02*
Y7754760D01*
X2896140Y7703760D02*
Y7754760D01*
X2915830Y7703760D02*
Y7754760D01*
X2876460Y7703760D02*
Y7754760D01*
X2364650Y8538400D02*
Y8589400D01*
X2679610Y8538400D02*
Y8589400D01*
X2364650Y7703760D02*
Y7754760D01*
X2679610Y7703760D02*
Y7754760D01*
X2128520Y8491070D02*
X2179520D01*
X2128520Y8471380D02*
X2179520D01*
X2128520Y8432010D02*
X2179520D01*
X2128520Y8412330D02*
X2179520D01*
X2128520Y8392640D02*
X2179520D01*
X2128520Y8372960D02*
X2179520D01*
X2128520Y8353270D02*
X2179520D01*
X2128520Y8333590D02*
X2179520D01*
X2128520Y8313900D02*
X2179520D01*
X2128520Y8294220D02*
X2179520D01*
X2128520Y8274530D02*
X2179520D01*
X2128520Y8254850D02*
X2179520D01*
X2128520Y8235160D02*
X2179520D01*
X2128520Y8215480D02*
X2179520D01*
X2128520Y8195790D02*
X2179520D01*
X2128520Y8176110D02*
X2179520D01*
X2128520Y8117050D02*
X2179520D01*
X2128520Y8097370D02*
X2179520D01*
X2128520Y8077680D02*
X2179520D01*
X2128520Y8058000D02*
X2179520D01*
X2128520Y8038310D02*
X2179520D01*
X2128520Y8018630D02*
X2179520D01*
X2128520Y7998940D02*
X2179520D01*
X2128520Y7979260D02*
X2179520D01*
X2128520Y7959570D02*
X2179520D01*
X2128520Y7939890D02*
X2179520D01*
X2128520Y7920200D02*
X2179520D01*
X2128520Y7900520D02*
X2179520D01*
X2128520Y7880830D02*
X2179520D01*
X2128520Y7861150D02*
X2179520D01*
X2128520Y7821780D02*
X2179520D01*
X2128520Y7802090D02*
X2179520D01*
X2963160Y8471380D02*
X3014160D01*
X2963160Y8491070D02*
X3014160D01*
X2963160Y8176110D02*
X3014160D01*
X2963160Y8195790D02*
X3014160D01*
X2963160Y8215480D02*
X3014160D01*
X2963160Y8235160D02*
X3014160D01*
X2963160Y8254850D02*
X3014160D01*
X2963160Y8274530D02*
X3014160D01*
X2963160Y8294220D02*
X3014160D01*
X2963160Y8313900D02*
X3014160D01*
X2963160Y8333590D02*
X3014160D01*
X2963160Y8353270D02*
X3014160D01*
X2963160Y8372960D02*
X3014160D01*
X2963160Y8392640D02*
X3014160D01*
X2963160Y8412330D02*
X3014160D01*
X2963160Y8432010D02*
X3014160D01*
X2963160Y7861150D02*
X3014160D01*
X2963160Y7880830D02*
X3014160D01*
X2963160Y7900520D02*
X3014160D01*
X2963160Y7920200D02*
X3014160D01*
X2963160Y7939890D02*
X3014160D01*
X2963160Y7959570D02*
X3014160D01*
X2963160Y7979260D02*
X3014160D01*
X2963160Y7998940D02*
X3014160D01*
X2963160Y8018630D02*
X3014160D01*
X2963160Y8038310D02*
X3014160D01*
X2963160Y8058000D02*
X3014160D01*
X2963160Y8077680D02*
X3014160D01*
X2963160Y8097370D02*
X3014160D01*
X2963160Y8117050D02*
X3014160D01*
X2963160Y7802090D02*
X3014160D01*
X2963160Y7821780D02*
X3014160D01*
X2128520Y8451700D02*
X2179520D01*
X2128520Y8156420D02*
X2179520D01*
X2128520Y8136740D02*
X2179520D01*
X2128520Y7841460D02*
X2179520D01*
X2963160Y8136740D02*
X3014160D01*
X2963160Y8156420D02*
X3014160D01*
X2963160Y8451700D02*
X3014160D01*
X2963160Y7841460D02*
X3014160D01*
G54D26*
X1836910Y9458030D02*
Y9470030D01*
X1888090Y9458030D02*
Y9470030D01*
X1836910Y9383230D02*
Y9395230D01*
X1888090Y9383230D02*
Y9395230D01*
X1862500Y9458030D02*
Y9470030D01*
Y9383230D02*
Y9395230D01*
G54D24*
X1531250Y9482880D03*
G54D27*
X1386820Y9444490D02*
X1441820D01*
X1386820Y9470080D02*
X1441820D01*
X1620680D02*
X1675680D01*
X1620680Y9444490D02*
X1675680D01*
X1386820Y9495680D02*
X1441820D01*
X1386820Y9521270D02*
X1441820D01*
X1386820Y9546860D02*
X1441820D01*
X1386820Y9572450D02*
X1441820D01*
X1620680D02*
X1675680D01*
X1620680Y9546860D02*
X1675680D01*
X1620680Y9521270D02*
X1675680D01*
X1620680Y9495680D02*
X1675680D01*
X1386820Y9393310D02*
X1441820D01*
X1386820Y9418900D02*
X1441820D01*
X1620680D02*
X1675680D01*
X1620680Y9393310D02*
X1675680D01*
G54D25*
X9565000Y9607430D02*
Y9646430D01*
X9515000Y9607430D02*
Y9646430D01*
Y9807440D02*
Y9846440D01*
X9565000Y9807440D02*
Y9846440D01*
X9615000Y9607430D02*
Y9646430D01*
X9665000Y9607430D02*
Y9646430D01*
X9615000Y9807440D02*
Y9846440D01*
X9665000Y9807440D02*
Y9846440D01*
X9825000Y9607430D02*
Y9646430D01*
X9775000Y9607430D02*
Y9646430D01*
Y9807440D02*
Y9846440D01*
X9825000Y9807440D02*
Y9846440D01*
X9875000Y9607430D02*
Y9646430D01*
X9925000Y9607430D02*
Y9646430D01*
X9875000Y9807440D02*
Y9846440D01*
X9925000Y9807440D02*
Y9846440D01*
G54D28*
X1921500Y7649630D02*
Y7651630D01*
Y7618130D02*
Y7620130D01*
X1984500Y7649630D02*
Y7651630D01*
Y7618130D02*
Y7620130D01*
X1921500Y7681120D02*
Y7683120D01*
X1984500Y7681120D02*
Y7683120D01*
X1921500Y7586640D02*
Y7588640D01*
X1984500Y7586640D02*
Y7588640D01*
X1922010Y7809870D02*
Y7811870D01*
Y7778380D02*
Y7780380D01*
X1985000Y7809870D02*
Y7811870D01*
Y7778380D02*
Y7780380D01*
X1922010Y7841370D02*
Y7843370D01*
X1985000Y7841370D02*
Y7843370D01*
X1922010Y7746880D02*
Y7748880D01*
X1985000Y7746880D02*
Y7748880D01*
X3164750Y7844380D02*
X3166750D01*
X3133250D02*
X3135250D01*
X3164750Y7781380D02*
X3166750D01*
X3133250D02*
X3135250D01*
X3196240Y7844380D02*
X3198240D01*
X3196240Y7781380D02*
X3198240D01*
X3101760Y7844380D02*
X3103760D01*
X3101760Y7781380D02*
X3103760D01*
G54D29*
X8397000Y9315790D02*
X8413000D01*
X8397000Y9429970D02*
X8413000D01*
X2872000Y9388710D02*
X2888000D01*
X2872000Y9502880D02*
X2888000D01*
X3322000Y9233710D02*
X3338000D01*
X3322000Y9347880D02*
X3338000D01*
X1223250Y9494540D02*
X1239250D01*
X1223250Y9608720D02*
X1239250D01*
X1135750Y9494540D02*
X1151750D01*
X1135750Y9608720D02*
X1151750D01*
X1217000Y8078720D02*
X1233000D01*
X1217000Y7964540D02*
X1233000D01*
X5532910Y9482080D02*
Y9498080D01*
X5647090Y9482080D02*
Y9498080D01*
X4482910Y8174880D02*
Y8190880D01*
X4597090Y8174880D02*
Y8190880D01*
X4480410Y7549880D02*
Y7565880D01*
X4594590Y7549880D02*
Y7565880D01*
X2417910Y9606130D02*
Y9622130D01*
X2532090Y9606130D02*
Y9622130D01*
X9082090Y9237380D02*
Y9253380D01*
X8967910Y9237380D02*
Y9253380D01*
X3088340Y9449880D02*
Y9465880D01*
X2974160Y9449880D02*
Y9465880D01*
X9388340Y8581130D02*
Y8597130D01*
X9274160Y8581130D02*
Y8597130D01*
X9224160Y9237380D02*
Y9253380D01*
X9338340Y9237380D02*
Y9253380D01*
G54D30*
X7178900Y9769380D02*
Y9836380D01*
X7401100Y9769380D02*
Y9836380D01*
X6641100Y9634380D02*
Y9701380D01*
X6418900Y9634380D02*
Y9701380D01*
G54D31*
X1513490Y7279130D02*
X1652490D01*
X1887510D02*
X2026510D01*
X2637240Y7339130D02*
X2776240D01*
X3011260D02*
X3150260D01*
G54D32*
X2645000Y8750240D02*
Y8809300D01*
X2745000Y8750240D02*
Y8809300D01*
G54D33*
X2695000Y8947095D02*
Y9084885D01*
G54D34*
X307250Y7336080D02*
X380250D01*
X307250Y7517180D02*
X380250D01*
G54D35*
X8955750Y8873665D02*
Y8972095D01*
X9345510Y8873665D02*
Y8972095D01*
X8992620Y9539915D02*
Y9638345D01*
X9382380Y9539915D02*
Y9638345D01*
G54D36*
X2845040Y9146780D02*
X2974960D01*
X2845040Y9008980D02*
X2974960D01*
G54D34*
X9171800Y8552630D02*
Y8625630D01*
X8990700Y8552630D02*
Y8625630D01*
X10144450Y9601380D02*
Y9674380D01*
X10325550Y9601380D02*
Y9674380D01*
G54D37*
X7184410Y9957880D02*
X7235590D01*
X7184410Y10007880D02*
X7235590D01*
X7364410D02*
X7415590D01*
X7364410Y9957880D02*
X7415590D01*
X6420000Y9992290D02*
Y10043470D01*
X6470000Y9992290D02*
Y10043470D01*
Y9812290D02*
Y9863470D01*
X6420000Y9812290D02*
Y9863470D01*
G54D38*
X1402500Y9669490D02*
Y9700990D01*
X1502500Y9669490D02*
Y9700990D01*
Y9964770D02*
Y9996270D01*
X1402500Y9964770D02*
Y9996270D01*
G54D39*
X7578790Y7584550D02*
Y7606210D01*
X7208710Y7584550D02*
Y7606210D01*
X8710040Y7584550D02*
Y7606210D01*
X8339960Y7584550D02*
Y7606210D01*
X8147540Y7584550D02*
Y7606210D01*
X7777460Y7584550D02*
Y7606210D01*
G54D25*
X2865740Y9237880D02*
X2891740D01*
X2958260D02*
X2984260D01*
X2046990Y9914130D02*
X2072990D01*
X2139510D02*
X2165510D01*
X8640740Y9357880D02*
X8666740D01*
X8733260D02*
X8759260D01*
G54D30*
X1242500Y9827880D03*
Y9977880D03*
X5020000Y9452880D03*
Y9602880D03*
X5465000Y9601480D03*
Y9751480D03*
X5165000Y9525080D03*
Y9675080D03*
X7050000Y9767880D03*
Y9917880D03*
X6440000Y10307880D03*
Y10157880D03*
X2275000Y9845380D03*
Y9995380D03*
X1657500Y9827880D03*
Y9977880D03*
X5605000Y9657880D03*
X5755000D03*
X1800000Y9114130D03*
X1650000D03*
X6910000Y10047880D03*
X7060000D03*
X6130000Y9852880D03*
X6280000D03*
G54D40*
X98030Y8079970D02*
X101970D01*
X98030Y7965790D02*
X101970D01*
X503030Y7665790D02*
X506970D01*
X503030Y7779970D02*
X506970D01*
G54D25*
X5275000Y9560820D02*
Y9586820D01*
Y9653340D02*
Y9679340D01*
X5355000Y9562220D02*
Y9588220D01*
Y9654740D02*
Y9680740D01*
G54D16*
X7730500Y9509380D02*
X7744500D01*
X7730500Y9581380D02*
X7744500D01*
X1093000Y8091880D02*
X1107000D01*
X1093000Y8163880D02*
X1107000D01*
X3143000Y8318880D02*
X3157000D01*
X3143000Y8246880D02*
X3157000D01*
X1911750Y8268880D02*
X1925750D01*
X1911750Y8196880D02*
X1925750D01*
X7503000Y9923880D02*
X7517000D01*
X7503000Y9851880D02*
X7517000D01*
X550750Y8307880D02*
X611750D01*
X550750Y8429930D02*
X611750D01*
X10129500Y9771860D02*
X10190500D01*
X10129500Y9893900D02*
X10190500D01*
X10279500Y9771860D02*
X10340500D01*
X10279500Y9893900D02*
X10340500D01*
X7207730Y8958630D02*
Y9019630D01*
X7329770Y8958630D02*
Y9019630D01*
G54D17*
X10535060Y9686380D02*
X10564940D01*
X10535060Y9859380D02*
X10564940D01*
X10700060Y9686380D02*
X10729940D01*
X10700060Y9859380D02*
X10729940D01*
G36*
X10200000Y7648220D02*
X10114300Y7733920D01*
X10200000Y7819620D01*
X10285700Y7733920D01*
X10200000Y7648220D01*
G37*
G36*
Y7047180D02*
X10114300Y7132880D01*
X10200000Y7218580D01*
X10285700Y7132880D01*
X10200000Y7047180D01*
G37*
G36*
X9598960D02*
X9513260Y7132880D01*
X9598960Y7218580D01*
X9684660Y7132880D01*
X9598960Y7047180D01*
G37*
G36*
Y7648220D02*
X9513260Y7733920D01*
X9598960Y7819620D01*
X9684660Y7733920D01*
X9598960Y7648220D01*
G37*
G54D41*
X9455860Y7626630D02*
X9534600D01*
X9455860Y7232930D02*
X9534600D01*
X10266880D02*
X10345620D01*
X10266880Y7626630D02*
X10345620D01*
G54D21*
X1849000Y9089130D02*
Y9139130D01*
X1601000Y9089130D02*
Y9139130D01*
G54D18*
X1638000Y9101130D02*
Y9130130D01*
X1808000Y9101130D02*
Y9130130D01*
X6595000Y8943380D02*
Y8972380D01*
X6765000Y8943380D02*
Y8972380D01*
G54D12*
X1783220Y8539130D02*
X1820620D01*
X1783220Y8589130D02*
X1820620D01*
X1783220Y8639130D02*
X1820620D01*
X1783220Y8689130D02*
X1820620D01*
X1491880Y8539130D02*
X1529280D01*
X1491880Y8589130D02*
X1529280D01*
X1491880Y8639130D02*
X1529280D01*
X1491880Y8689130D02*
X1529280D01*
G54D42*
X0Y7007880D02*
X11100000D01*
Y10511820D01*
X0D02*
X11100000D01*
X0Y7007880D02*
Y10511820D01*
G36*
X6195320Y11711500D02*
Y11811500D01*
X6295310D01*
Y11711500D01*
X6195320D01*
G37*
G36*
Y11591820D02*
Y11691820D01*
X6295310D01*
Y11591820D01*
X6195320D01*
G37*
G36*
X5505320Y11711500D02*
Y11811500D01*
X5605310D01*
Y11711500D01*
X5505320D01*
G37*
G36*
Y11591820D02*
Y11691820D01*
X5605310D01*
Y11591820D01*
X5505320D01*
G37*
G36*
X8994490Y13671820D02*
Y13771820D01*
X9094490D01*
Y13671820D01*
X8994490D01*
G37*
G36*
X8874800D02*
Y13771820D01*
X8974800D01*
Y13671820D01*
X8874800D01*
G37*
G36*
X8711930Y12560280D02*
Y12660280D01*
X8811930D01*
Y12560280D01*
X8711930D01*
G37*
G36*
Y12440600D02*
Y12540600D01*
X8811930D01*
Y12440600D01*
X8711930D01*
G37*
G36*
X8698460Y13114580D02*
Y13214580D01*
X8798460D01*
Y13114580D01*
X8698460D01*
G37*
G36*
Y12994890D02*
Y13094890D01*
X8798460D01*
Y12994890D01*
X8698460D01*
G37*
G36*
X8592240Y12560280D02*
Y12660280D01*
X8692240D01*
Y12560280D01*
X8592240D01*
G37*
G36*
Y12440600D02*
Y12540600D01*
X8692240D01*
Y12440600D01*
X8592240D01*
G37*
G36*
X8578780Y13114580D02*
Y13214580D01*
X8678780D01*
Y13114580D01*
X8578780D01*
G37*
G36*
Y12994890D02*
Y13094890D01*
X8678780D01*
Y12994890D01*
X8578780D01*
G37*
G36*
X6315000Y11711500D02*
Y11811500D01*
X6415000D01*
Y11711500D01*
X6315000D01*
G37*
G36*
Y11591820D02*
Y11691820D01*
X6415000D01*
Y11591820D01*
X6315000D01*
G37*
G36*
X5970000Y11711500D02*
Y11811500D01*
X6070000D01*
Y11711500D01*
X5970000D01*
G37*
G36*
Y11591820D02*
Y11691820D01*
X6070000D01*
Y11591820D01*
X5970000D01*
G37*
G36*
X5625000Y11711500D02*
Y11811500D01*
X5725000D01*
Y11711500D01*
X5625000D01*
G37*
G36*
Y11591820D02*
Y11691820D01*
X5725000D01*
Y11591820D01*
X5625000D01*
G37*
G36*
X5260000Y11711500D02*
Y11811500D01*
X5360000D01*
Y11711500D01*
X5260000D01*
G37*
G36*
Y11591820D02*
Y11691820D01*
X5360000D01*
Y11591820D01*
X5260000D01*
G37*
G36*
X5259690Y12689020D02*
Y12789020D01*
X5359690D01*
Y12689020D01*
X5259690D01*
G37*
G36*
X5140000D02*
Y12789020D01*
X5240000D01*
Y12689020D01*
X5140000D01*
G37*
G36*
X2113720Y13130810D02*
Y13230810D01*
X2213720D01*
Y13130810D01*
X2113720D01*
G37*
G36*
Y13011120D02*
Y13111120D01*
X2213720D01*
Y13011120D01*
X2113720D01*
G37*
G36*
X1994030Y13130810D02*
Y13230810D01*
X2094030D01*
Y13130810D01*
X1994030D01*
G37*
G36*
Y13011120D02*
Y13111120D01*
X2094030D01*
Y13011120D01*
X1994030D01*
G37*
G36*
X8994490Y13791500D02*
Y13891510D01*
X9094490D01*
Y13791500D01*
X8994490D01*
G37*
G36*
X8874800D02*
Y13891510D01*
X8974800D01*
Y13791500D01*
X8874800D01*
G37*
G36*
X5850310Y11711500D02*
Y11811500D01*
X5950320D01*
Y11711500D01*
X5850310D01*
G37*
G36*
Y11591820D02*
Y11691820D01*
X5950320D01*
Y11591820D01*
X5850310D01*
G37*
G36*
X5259690Y12808700D02*
Y12908710D01*
X5359690D01*
Y12808700D01*
X5259690D01*
G37*
G36*
X5140310Y11711500D02*
Y11811500D01*
X5240320D01*
Y11711500D01*
X5140310D01*
G37*
G36*
Y11591820D02*
Y11691820D01*
X5240320D01*
Y11591820D01*
X5140310D01*
G37*
G36*
X5140000Y12808700D02*
Y12908710D01*
X5240000D01*
Y12808700D01*
X5140000D01*
G37*
G54D10*
X6215000Y11983315D02*
Y12038425D01*
X6395000Y11983315D02*
Y12038425D01*
X6050000Y11983315D02*
Y12038425D01*
X5870000Y11983315D02*
Y12038425D01*
X5525000Y11983315D02*
Y12038425D01*
X5705000Y11983315D02*
Y12038425D01*
X5340000Y11983315D02*
Y12038425D01*
X5160000Y11983315D02*
Y12038425D01*
X8611690Y12239265D02*
Y12294375D01*
X8792800Y12239265D02*
Y12294375D01*
G54D11*
X8100215Y13611820D02*
X8108085D01*
X1660665Y12418070D02*
X1668535D01*
X7821465Y13341820D02*
X7829335D01*
G54D12*
X8104150Y13637410D03*
Y13586230D03*
X8033320Y13637410D03*
Y13586230D03*
X1735430Y12443660D03*
Y12392480D03*
X1664600Y12443660D03*
Y12392480D03*
X7825400Y13367410D03*
Y13316230D03*
X7754570Y13367410D03*
Y13316230D03*
G54D10*
X5505905Y12708470D02*
X5561015D01*
X5505905Y12889570D02*
X5561015D01*
X8377445Y13195130D02*
X8432555D01*
X8377445Y13014030D02*
X8432555D01*
X9240715Y13691270D02*
X9295825D01*
X9240715Y13872370D02*
X9295825D01*
X2359945Y13030570D02*
X2415055D01*
X2359945Y13211670D02*
X2415055D01*
G54D13*
X4248600Y12559320D02*
Y12564320D01*
X4301400Y12559320D02*
Y12564320D01*
X4388600Y11804320D02*
Y11809320D01*
X4441400Y11804320D02*
Y11809320D01*
X3256400Y11674320D02*
Y11679320D01*
X3203600Y11674320D02*
Y11679320D01*
X3256400Y11604320D02*
Y11609320D01*
X3203600Y11604320D02*
Y11609320D01*
X3268600Y11929320D02*
Y11934320D01*
X3321400Y11929320D02*
Y11934320D01*
X3268600Y11864320D02*
Y11869320D01*
X3321400Y11864320D02*
Y11869320D01*
X3326400Y11794320D02*
Y11799320D01*
X3273600Y11794320D02*
Y11799320D01*
X3078600Y11889320D02*
Y11894320D01*
X3131400Y11889320D02*
Y11894320D01*
X2132650Y12415570D02*
Y12420570D01*
X2079850Y12415570D02*
Y12420570D01*
X507650Y12728070D02*
Y12733070D01*
X454850Y12728070D02*
Y12733070D01*
X317350Y12728070D02*
Y12733070D01*
X370150Y12728070D02*
Y12733070D01*
X8167350Y13509320D02*
Y13514320D01*
X8220150Y13509320D02*
Y13514320D01*
X4573600Y13174320D02*
Y13179320D01*
X4626400Y13174320D02*
Y13179320D01*
X7876400Y13574320D02*
Y13579320D01*
X7823600Y13574320D02*
Y13579320D01*
X5856400Y13269320D02*
Y13274320D01*
X5803600Y13269320D02*
Y13274320D01*
X5878600Y13074320D02*
Y13079320D01*
X5931400Y13074320D02*
Y13079320D01*
X4626400Y13104320D02*
Y13109320D01*
X4573600Y13104320D02*
Y13109320D01*
X4248600Y12309320D02*
Y12314320D01*
X4301400Y12309320D02*
Y12314320D01*
X9325000Y13599320D02*
Y13604320D01*
X9272200Y13599320D02*
Y13604320D01*
X1832650Y11721820D02*
Y11726820D01*
X1779850Y11721820D02*
Y11726820D01*
X8013900Y12734320D02*
Y12739320D01*
X7961100Y12734320D02*
Y12739320D01*
X8238600Y12734320D02*
Y12739320D01*
X8291400Y12734320D02*
Y12739320D01*
Y12664320D02*
Y12669320D01*
X8238600Y12664320D02*
Y12669320D01*
X7961100Y12646820D02*
Y12651820D01*
X8013900Y12646820D02*
Y12651820D01*
X417350Y13234320D02*
Y13239320D01*
X470150Y13234320D02*
Y13239320D01*
X561100Y13359320D02*
Y13364320D01*
X613900Y13359320D02*
Y13364320D01*
X545150Y12959320D02*
Y12964320D01*
X492350Y12959320D02*
Y12964320D01*
X795150Y13484320D02*
Y13489320D01*
X742350Y13484320D02*
Y13489320D01*
X701400Y13271820D02*
Y13276820D01*
X648600Y13271820D02*
Y13276820D01*
X6066400Y12704320D02*
Y12709320D01*
X6013600Y12704320D02*
Y12709320D01*
X8604850Y12103070D02*
Y12108070D01*
X8657650Y12103070D02*
Y12108070D01*
X3183600Y12939320D02*
Y12944320D01*
X3236400Y12939320D02*
Y12944320D01*
X635000Y11699320D02*
Y11704320D01*
X582200Y11699320D02*
Y11704320D01*
X635000Y11634320D02*
Y11639320D01*
X582200Y11634320D02*
Y11639320D01*
X501400Y11534320D02*
Y11539320D01*
X448600Y11534320D02*
Y11539320D01*
X333600Y11534320D02*
Y11539320D01*
X386400Y11534320D02*
Y11539320D01*
X3626400Y12814320D02*
Y12819320D01*
X3573600Y12814320D02*
Y12819320D01*
X3236400Y12854320D02*
Y12859320D01*
X3183600Y12854320D02*
Y12859320D01*
X2167800Y10894320D02*
Y10899320D01*
X2115000Y10894320D02*
Y10899320D01*
X3621400Y12564320D02*
Y12569320D01*
X3568600Y12564320D02*
Y12569320D01*
X3621400Y12314320D02*
Y12319320D01*
X3568600Y12314320D02*
Y12319320D01*
X8727800Y12244320D02*
Y12249320D01*
X8675000Y12244320D02*
Y12249320D01*
X1867350Y11934320D02*
Y11939320D01*
X1920150Y11934320D02*
Y11939320D01*
X2211100Y10746820D02*
Y10751820D01*
X2263900Y10746820D02*
Y10751820D01*
X2329850Y10746820D02*
Y10751820D01*
X2382650Y10746820D02*
Y10751820D01*
X1923600Y12303070D02*
Y12308070D01*
X1976400Y12303070D02*
Y12308070D01*
X2202050Y12834320D02*
Y12839320D01*
X2254850Y12834320D02*
Y12839320D01*
X9097200Y13504320D02*
Y13509320D01*
X9150000Y13504320D02*
Y13509320D01*
X4388600Y12309320D02*
Y12314320D01*
X4441400Y12309320D02*
Y12314320D01*
X7741080Y12653070D02*
Y12658070D01*
X7793880Y12653070D02*
Y12658070D01*
X3621400Y12064320D02*
Y12069320D01*
X3568600Y12064320D02*
Y12069320D01*
X1396400Y11124320D02*
Y11129320D01*
X1343600Y11124320D02*
Y11129320D01*
X1811890Y10978680D02*
Y10983680D01*
X1759090Y10978680D02*
Y10983680D01*
X3126400Y11969320D02*
Y11974320D01*
X3073600Y11969320D02*
Y11974320D01*
X3126400Y12029320D02*
Y12034320D01*
X3073600Y12029320D02*
Y12034320D01*
X1295150Y12809320D02*
Y12814320D01*
X1242350Y12809320D02*
Y12814320D01*
X1295150Y12371820D02*
Y12376820D01*
X1242350Y12371820D02*
Y12376820D01*
X1343600Y11244320D02*
Y11249320D01*
X1396400Y11244320D02*
Y11249320D01*
X1343600Y11304320D02*
Y11309320D01*
X1396400Y11304320D02*
Y11309320D01*
X1343600Y11364320D02*
Y11369320D01*
X1396400Y11364320D02*
Y11369320D01*
X1684050Y10978070D02*
Y10983070D01*
X1631250Y10978070D02*
Y10983070D01*
X1343600Y11424320D02*
Y11429320D01*
X1396400Y11424320D02*
Y11429320D01*
X9261100Y13378070D02*
Y13383070D01*
X9313900Y13378070D02*
Y13383070D01*
X9798600Y13628370D02*
Y13633370D01*
X9851400Y13628370D02*
Y13633370D01*
X9742350Y13728070D02*
Y13733070D01*
X9795150Y13728070D02*
Y13733070D01*
X9361100Y11728070D02*
Y11733070D01*
X9413900Y11728070D02*
Y11733070D01*
X4388600Y12054320D02*
Y12059320D01*
X4441400Y12054320D02*
Y12059320D01*
X4248600Y12054320D02*
Y12059320D01*
X4301400Y12054320D02*
Y12059320D01*
X9413900Y11790570D02*
Y11795570D01*
X9361100Y11790570D02*
Y11795570D01*
X7066400Y13759320D02*
Y13764320D01*
X7013600Y13759320D02*
Y13764320D01*
X6941400Y13829320D02*
Y13834320D01*
X6888600Y13829320D02*
Y13834320D01*
X1088900Y12203070D02*
Y12208070D01*
X1036100Y12203070D02*
Y12208070D01*
X582650Y13171820D02*
Y13176820D01*
X529850Y13171820D02*
Y13176820D01*
X2870150Y11090570D02*
Y11095570D01*
X2817350Y11090570D02*
Y11095570D01*
X3132650Y11534320D02*
Y11539320D01*
X3079850Y11534320D02*
Y11539320D01*
X1417350Y12584320D02*
Y12589320D01*
X1470150Y12584320D02*
Y12589320D01*
X1617350Y12828070D02*
Y12833070D01*
X1670150Y12828070D02*
Y12833070D01*
X1242350Y12734320D02*
Y12739320D01*
X1295150Y12734320D02*
Y12739320D01*
X1148600Y12046820D02*
Y12051820D01*
X1201400Y12046820D02*
Y12051820D01*
X3326400Y11171820D02*
Y11176820D01*
X3273600Y11171820D02*
Y11176820D01*
X5648600Y12706520D02*
Y12711520D01*
X5701400Y12706520D02*
Y12711520D01*
X3488900Y11896820D02*
Y11901820D01*
X3436100Y11896820D02*
Y11901820D01*
X7618600Y13499320D02*
Y13504320D01*
X7671400Y13499320D02*
Y13504320D01*
X7498600Y13499320D02*
Y13504320D01*
X7551400Y13499320D02*
Y13504320D01*
X6578600Y13604320D02*
Y13609320D01*
X6631400Y13604320D02*
Y13609320D01*
X8069860Y12103070D02*
Y12108070D01*
X8122660Y12103070D02*
Y12108070D01*
X1736100Y13121820D02*
Y13126820D01*
X1788900Y13121820D02*
Y13126820D01*
X4916400Y12694320D02*
Y12699320D01*
X4863600Y12694320D02*
Y12699320D01*
X5871400Y12704320D02*
Y12709320D01*
X5818600Y12704320D02*
Y12709320D01*
X1323600Y10809320D02*
Y10814320D01*
X1376400Y10809320D02*
Y10814320D01*
X4928600Y13199320D02*
Y13204320D01*
X4981400Y13199320D02*
Y13204320D01*
X4703600Y12904320D02*
Y12909320D01*
X4756400Y12904320D02*
Y12909320D01*
X5923600Y12974320D02*
Y12979320D01*
X5976400Y12974320D02*
Y12979320D01*
X1323600Y10878070D02*
Y10883070D01*
X1376400Y10878070D02*
Y10883070D01*
X4008600Y13739320D02*
Y13744320D01*
X4061400Y13739320D02*
Y13744320D01*
Y13809320D02*
Y13814320D01*
X4008600Y13809320D02*
Y13814320D01*
X1788900Y12828070D02*
Y12833070D01*
X1736100Y12828070D02*
Y12833070D01*
X3442350Y11671820D02*
Y11676820D01*
X3495150Y11671820D02*
Y11676820D01*
X1951400Y13503070D02*
Y13508070D01*
X1898600Y13503070D02*
Y13508070D01*
X2412650Y13838070D02*
Y13843070D01*
X2359850Y13838070D02*
Y13843070D01*
X5583600Y13269320D02*
Y13274320D01*
X5636400Y13269320D02*
Y13274320D01*
X2432650Y13409320D02*
Y13414320D01*
X2379850Y13409320D02*
Y13414320D01*
X8286100Y13509320D02*
Y13514320D01*
X8338900Y13509320D02*
Y13514320D01*
X179850Y11471820D02*
Y11476820D01*
X232650Y11471820D02*
Y11476820D01*
X6941400Y13759320D02*
Y13764320D01*
X6888600Y13759320D02*
Y13764320D01*
X1920150Y11871820D02*
Y11876820D01*
X1867350Y11871820D02*
Y11876820D01*
X4928600Y13269320D02*
Y13274320D01*
X4981400Y13269320D02*
Y13274320D01*
X111100Y11715570D02*
Y11720570D01*
X163900Y11715570D02*
Y11720570D01*
X7336080Y12754320D02*
Y12759320D01*
X7388880Y12754320D02*
Y12759320D01*
X4133600Y13809320D02*
Y13814320D01*
X4186400Y13809320D02*
Y13814320D01*
X2432650Y13484320D02*
Y13489320D01*
X2379850Y13484320D02*
Y13489320D01*
X2359850Y13913070D02*
Y13918070D01*
X2412650Y13913070D02*
Y13918070D01*
X1826400Y13503070D02*
Y13508070D01*
X1773600Y13503070D02*
Y13508070D01*
X2841400Y12809320D02*
Y12814320D01*
X2894200Y12809320D02*
Y12814320D01*
X313900Y11715570D02*
Y11720570D01*
X261100Y11715570D02*
Y11720570D01*
X3273600Y12549320D02*
Y12554320D01*
X3326400Y12549320D02*
Y12554320D01*
X3088600Y12429320D02*
Y12434320D01*
X3141400Y12429320D02*
Y12434320D01*
X3121400Y12604320D02*
Y12609320D01*
X3068600Y12604320D02*
Y12609320D01*
X582650Y13234320D02*
Y13239320D01*
X529850Y13234320D02*
Y13239320D01*
X761100Y13271820D02*
Y13276820D01*
X813900Y13271820D02*
Y13276820D01*
X3116400Y12714320D02*
Y12719320D01*
X3063600Y12714320D02*
Y12719320D01*
X7336080Y12814320D02*
Y12819320D01*
X7388880Y12814320D02*
Y12819320D01*
X500000Y11474320D02*
Y11479320D01*
X447200Y11474320D02*
Y11479320D01*
X335000Y11474320D02*
Y11479320D01*
X387800Y11474320D02*
Y11479320D01*
X828600Y11539320D02*
Y11544320D01*
X881400Y11539320D02*
Y11544320D01*
X828600Y11599320D02*
Y11604320D01*
X881400Y11599320D02*
Y11604320D01*
X1057650Y11459320D02*
Y11464320D01*
X1004850Y11459320D02*
Y11464320D01*
X1057650Y11521820D02*
Y11526820D01*
X1004850Y11521820D02*
Y11526820D01*
X1604850Y10915570D02*
Y10920570D01*
X1657650Y10915570D02*
Y10920570D01*
X1861100Y10915570D02*
Y10920570D01*
X1913900Y10915570D02*
Y10920570D01*
X1729850Y10915570D02*
Y10920570D01*
X1782650Y10915570D02*
Y10920570D01*
X1888900Y11403070D02*
Y11408070D01*
X1836100Y11403070D02*
Y11408070D01*
X1343600Y11184320D02*
Y11189320D01*
X1396400Y11184320D02*
Y11189320D01*
X2511100Y12646820D02*
Y12651820D01*
X2563900Y12646820D02*
Y12651820D01*
X7013600Y13689320D02*
Y13694320D01*
X7066400Y13689320D02*
Y13694320D01*
X2103600Y11254320D02*
Y11259320D01*
X2156400Y11254320D02*
Y11259320D01*
X9982650Y13584320D02*
Y13589320D01*
X9929850Y13584320D02*
Y13589320D01*
X2103600Y11154320D02*
Y11159320D01*
X2156400Y11154320D02*
Y11159320D01*
X3131400Y11434140D02*
Y11439140D01*
X3078600Y11434140D02*
Y11439140D01*
X2536100Y12296820D02*
Y12301820D01*
X2588900Y12296820D02*
Y12301820D01*
X2863900Y12309320D02*
Y12314320D01*
X2811100Y12309320D02*
Y12314320D01*
X2761100Y10990570D02*
Y10995570D01*
X2813900Y10990570D02*
Y10995570D01*
X2926400Y10990570D02*
Y10995570D01*
X2873600Y10990570D02*
Y10995570D01*
X1267350Y12584320D02*
Y12589320D01*
X1320150Y12584320D02*
Y12589320D01*
X1326400Y12884320D02*
Y12889320D01*
X1273600Y12884320D02*
Y12889320D01*
X1795150Y13021820D02*
Y13026820D01*
X1742350Y13021820D02*
Y13026820D01*
X1295150Y12659320D02*
Y12664320D01*
X1242350Y12659320D02*
Y12664320D01*
X5416400Y13004320D02*
Y13009320D01*
X5363600Y13004320D02*
Y13009320D01*
X2126400Y13334320D02*
Y13339320D01*
X2073600Y13334320D02*
Y13339320D01*
X4061400Y13669320D02*
Y13674320D01*
X4008600Y13669320D02*
Y13674320D01*
X2088900Y13503070D02*
Y13508070D01*
X2036100Y13503070D02*
Y13508070D01*
X1186400Y12449320D02*
Y12454320D01*
X1133600Y12449320D02*
Y12454320D01*
X9170150Y13578070D02*
Y13583070D01*
X9117350Y13578070D02*
Y13583070D01*
X1420150Y12809320D02*
Y12814320D01*
X1367350Y12809320D02*
Y12814320D01*
X4301400Y11804320D02*
Y11809320D01*
X4248600Y11804320D02*
Y11809320D01*
X4441400Y12559320D02*
Y12564320D01*
X4388600Y12559320D02*
Y12564320D01*
X1054850Y11934320D02*
Y11939320D01*
X1107650Y11934320D02*
Y11939320D01*
X2359850Y13763070D02*
Y13768070D01*
X2412650Y13763070D02*
Y13768070D01*
X761100Y13209320D02*
Y13214320D01*
X813900Y13209320D02*
Y13214320D01*
X4162500Y12470420D02*
X4167500D01*
X4162500Y12523220D02*
X4167500D01*
X3472500Y12131970D02*
X3477500D01*
X3472500Y12079170D02*
X3477500D01*
X2235000Y12447920D02*
X2240000D01*
X2235000Y12500720D02*
X2240000D01*
X7872500Y13454170D02*
X7877500D01*
X7872500Y13506970D02*
X7877500D01*
X7953750D02*
X7958750D01*
X7953750Y13454170D02*
X7958750D01*
X5922500Y13145420D02*
X5927500D01*
X5922500Y13198220D02*
X5927500D01*
X5852500D02*
X5857500D01*
X5852500Y13145420D02*
X5857500D01*
X4457500Y13125420D02*
X4462500D01*
X4457500Y13178220D02*
X4462500D01*
X4457500Y13245420D02*
X4462500D01*
X4457500Y13298220D02*
X4462500D01*
X4622500Y13245420D02*
X4627500D01*
X4622500Y13298220D02*
X4627500D01*
X4527500Y13245420D02*
X4532500D01*
X4527500Y13298220D02*
X4532500D01*
X4692500Y13245420D02*
X4697500D01*
X4692500Y13298220D02*
X4697500D01*
X7802500Y13454170D02*
X7807500D01*
X7802500Y13506970D02*
X7807500D01*
X4387500Y13178220D02*
X4392500D01*
X4387500Y13125420D02*
X4392500D01*
X8497500Y12265420D02*
X8502500D01*
X8497500Y12318220D02*
X8502500D01*
X8497500Y12875720D02*
X8502500D01*
X8497500Y12822920D02*
X8502500D01*
X416250Y13169470D02*
X421250D01*
X416250Y13116670D02*
X421250D01*
X697500Y12869470D02*
X702500D01*
X697500Y12816670D02*
X702500D01*
X772500Y13013220D02*
X777500D01*
X772500Y12960420D02*
X777500D01*
X8572500Y12875720D02*
X8577500D01*
X8572500Y12822920D02*
X8577500D01*
X8278750Y13144470D02*
X8283750D01*
X8278750Y13091670D02*
X8283750D01*
X8177500Y12993220D02*
X8182500D01*
X8177500Y12940420D02*
X8182500D01*
X7972500Y12998220D02*
X7977500D01*
X7972500Y12945420D02*
X7977500D01*
X8285000Y13425720D02*
X8290000D01*
X8285000Y13372920D02*
X8290000D01*
X257500Y11565420D02*
X262500D01*
X257500Y11618220D02*
X262500D01*
X2960290Y12810420D02*
X2965290D01*
X2960290Y12863220D02*
X2965290D01*
X8228750Y12406970D02*
X8233750D01*
X8228750Y12354170D02*
X8233750D01*
X8078750Y13144470D02*
X8083750D01*
X8078750Y13091670D02*
X8083750D01*
X2043900Y12076820D02*
X2048900D01*
X2043900Y12129620D02*
X2048900D01*
X2447500Y10747920D02*
X2452500D01*
X2447500Y10800720D02*
X2452500D01*
X2941250Y12381970D02*
X2946250D01*
X2941250Y12329170D02*
X2946250D01*
X2353750Y12447920D02*
X2358750D01*
X2353750Y12500720D02*
X2358750D01*
X3402500Y12347050D02*
X3407500D01*
X3402500Y12399850D02*
X3407500D01*
X3402500Y12210420D02*
X3407500D01*
X3402500Y12263220D02*
X3407500D01*
X9260000Y13494470D02*
X9265000D01*
X9260000Y13441670D02*
X9265000D01*
X4162500Y12773220D02*
X4167500D01*
X4162500Y12720420D02*
X4167500D01*
X4162500Y12023220D02*
X4167500D01*
X4162500Y11970420D02*
X4167500D01*
X1541250Y12422920D02*
X1546250D01*
X1541250Y12475720D02*
X1546250D01*
X1842500Y11510420D02*
X1847500D01*
X1842500Y11563220D02*
X1847500D01*
X8178750Y13091670D02*
X8183750D01*
X8178750Y13144470D02*
X8183750D01*
X1647500Y11581970D02*
X1652500D01*
X1647500Y11529170D02*
X1652500D01*
X9428750Y13522920D02*
X9433750D01*
X9428750Y13575720D02*
X9433750D01*
X7828750Y12813220D02*
X7833750D01*
X7828750Y12760420D02*
X7833750D01*
X9283130Y13808220D02*
X9288130D01*
X9283130Y13755420D02*
X9288130D01*
X647500Y13160420D02*
X652500D01*
X647500Y13213220D02*
X652500D01*
X9666250Y13781970D02*
X9671250D01*
X9666250Y13729170D02*
X9671250D01*
X7671860Y12111820D02*
X7676860D01*
X7671860Y12164620D02*
X7676860D01*
X3487500Y12649620D02*
X3492500D01*
X3487500Y12596820D02*
X3492500D01*
X4162500Y12273220D02*
X4167500D01*
X4162500Y12220420D02*
X4167500D01*
X3487500Y12383220D02*
X3492500D01*
X3487500Y12330420D02*
X3492500D01*
X1510000Y12741670D02*
X1515000D01*
X1510000Y12794470D02*
X1515000D01*
X1322500Y12494470D02*
X1327500D01*
X1322500Y12441670D02*
X1327500D01*
X2478750Y13031970D02*
X2483750D01*
X2478750Y12979170D02*
X2483750D01*
X1578750Y11529170D02*
X1583750D01*
X1578750Y11581970D02*
X1583750D01*
X3360000Y11672920D02*
X3365000D01*
X3360000Y11725720D02*
X3365000D01*
X6577500Y13310420D02*
X6582500D01*
X6577500Y13363220D02*
X6582500D01*
X4987500Y12800420D02*
X4992500D01*
X4987500Y12853220D02*
X4992500D01*
X4857500Y13200420D02*
X4862500D01*
X4857500Y13253220D02*
X4862500D01*
X1828750Y13425720D02*
X1833750D01*
X1828750Y13372920D02*
X1833750D01*
X2278750Y13694470D02*
X2283750D01*
X2278750Y13641670D02*
X2283750D01*
X5052500Y13273220D02*
X5057500D01*
X5052500Y13220420D02*
X5057500D01*
X497500Y11355420D02*
X502500D01*
X497500Y11408220D02*
X502500D01*
X937500Y11595420D02*
X942500D01*
X937500Y11648220D02*
X942500D01*
X1012500Y11595420D02*
X1017500D01*
X1012500Y11648220D02*
X1017500D01*
X3153750Y11148220D02*
X3158750D01*
X3153750Y11095420D02*
X3158750D01*
X5272500Y13310420D02*
X5277500D01*
X5272500Y13257620D02*
X5277500D01*
X5352500Y13311820D02*
X5357500D01*
X5352500Y13259020D02*
X5357500D01*
X403750Y12631970D02*
X408750D01*
X403750Y12579170D02*
X408750D01*
X335000Y12631970D02*
X340000D01*
X335000Y12579170D02*
X340000D01*
X6784980Y12280420D02*
X6789980D01*
X6784980Y12333220D02*
X6789980D01*
X6557500Y12285420D02*
X6562500D01*
X6557500Y12338220D02*
X6562500D01*
X72500Y12235420D02*
X77500D01*
X72500Y12288220D02*
X77500D01*
X72500Y11875720D02*
X77500D01*
X72500Y11822920D02*
X77500D01*
X72500Y12385420D02*
X77500D01*
X72500Y12438220D02*
X77500D01*
X7328750Y12622920D02*
X7333750D01*
X7328750Y12675720D02*
X7333750D01*
X3402500Y12065420D02*
X3407500D01*
X3402500Y12118220D02*
X3407500D01*
X2787500Y12891820D02*
X2792500D01*
X2787500Y12944620D02*
X2792500D01*
X2947500Y11148220D02*
X2952500D01*
X2947500Y11095420D02*
X2952500D01*
X7810000Y13063220D02*
X7815000D01*
X7810000Y13010420D02*
X7815000D01*
X1541250Y12356970D02*
X1546250D01*
X1541250Y12304170D02*
X1546250D01*
X8057500Y13418220D02*
X8062500D01*
X8057500Y13365420D02*
X8062500D01*
X628750Y12869470D02*
X633750D01*
X628750Y12816670D02*
X633750D01*
X197500Y11565420D02*
X202500D01*
X197500Y11618220D02*
X202500D01*
X603750Y11516670D02*
X608750D01*
X603750Y11569470D02*
X608750D01*
X9185000Y13379170D02*
X9190000D01*
X9185000Y13431970D02*
X9190000D01*
X2322500Y11079170D02*
X2327500D01*
X2322500Y11131970D02*
X2327500D01*
X3077500Y11673220D02*
X3082500D01*
X3077500Y11620420D02*
X3082500D01*
X9091250Y13379170D02*
X9096250D01*
X9091250Y13431970D02*
X9096250D01*
X10053750Y13344470D02*
X10058750D01*
X10053750Y13291670D02*
X10058750D01*
X2316250Y12231970D02*
X2321250D01*
X2316250Y12179170D02*
X2321250D01*
X2028750Y11716670D02*
X2033750D01*
X2028750Y11769470D02*
X2033750D01*
X3077500Y11770420D02*
X3082500D01*
X3077500Y11823220D02*
X3082500D01*
X2716250Y11095420D02*
X2721250D01*
X2716250Y11148220D02*
X2721250D01*
X2866250Y12250720D02*
X2871250D01*
X2866250Y12197920D02*
X2871250D01*
X2487500Y12238220D02*
X2492500D01*
X2487500Y12185420D02*
X2492500D01*
X2597500Y11095420D02*
X2602500D01*
X2597500Y11148220D02*
X2602500D01*
X2803750Y12250720D02*
X2808750D01*
X2803750Y12197920D02*
X2808750D01*
X2035000Y11516670D02*
X2040000D01*
X2035000Y11569470D02*
X2040000D01*
X3085000Y11095420D02*
X3090000D01*
X3085000Y11148220D02*
X3090000D01*
X3016250Y11095420D02*
X3021250D01*
X3016250Y11148220D02*
X3021250D01*
X1785000Y12391670D02*
X1790000D01*
X1785000Y12444470D02*
X1790000D01*
X1303750Y12991670D02*
X1308750D01*
X1303750Y13044470D02*
X1308750D01*
X1245000Y13238220D02*
X1250000D01*
X1245000Y13185420D02*
X1250000D01*
X4787500Y13253220D02*
X4792500D01*
X4787500Y13200420D02*
X4792500D01*
X7403750Y12622920D02*
X7408750D01*
X7403750Y12675720D02*
X7408750D01*
X272500Y12631970D02*
X277500D01*
X272500Y12579170D02*
X277500D01*
X1066250Y11806970D02*
X1071250D01*
X1066250Y11754170D02*
X1071250D01*
X1253750Y11885420D02*
X1258750D01*
X1253750Y11938220D02*
X1258750D01*
X1178750D02*
X1183750D01*
X1178750Y11885420D02*
X1183750D01*
X1810000Y12306970D02*
X1815000D01*
X1810000Y12254170D02*
X1815000D01*
G54D14*
X4242690Y11970210D02*
X4250690D01*
X4242690Y11893430D02*
X4250690D01*
X6214310Y12853430D02*
X6222310D01*
X6214310Y12930210D02*
X6222310D01*
X4222690Y13165210D02*
X4230690D01*
X4222690Y13088430D02*
X4230690D01*
X2236000Y10901820D02*
X2244000D01*
X2236000Y10825050D02*
X2244000D01*
X8000570Y12093430D02*
X8008570D01*
X8000570Y12170210D02*
X8008570D01*
X8539310Y12092180D02*
X8547310D01*
X8539310Y12168960D02*
X8547310D01*
X8337690Y12355210D02*
X8345690D01*
X8337690Y12278430D02*
X8345690D01*
X3265190Y11350210D02*
X3273190D01*
X3265190Y11273430D02*
X3273190D01*
X1076810Y12048430D02*
X1084810D01*
X1076810Y12125210D02*
X1084810D01*
X7576470Y12093430D02*
X7584470D01*
X7576470Y12170210D02*
X7584470D01*
X4913060Y12773430D02*
X4921060D01*
X4913060Y12850210D02*
X4921060D01*
X4242690Y12720210D02*
X4250690D01*
X4242690Y12643430D02*
X4250690D01*
X4242690Y12470210D02*
X4250690D01*
X4242690Y12393430D02*
X4250690D01*
X4242690Y12220210D02*
X4250690D01*
X4242690Y12143430D02*
X4250690D01*
X4826440Y12981460D02*
X4834440D01*
X4826440Y12904680D02*
X4834440D01*
X5899310Y12803430D02*
X5907310D01*
X5899310Y12880210D02*
X5907310D01*
X6059310Y12803430D02*
X6067310D01*
X6059310Y12880210D02*
X6067310D01*
X8299310Y13208430D02*
X8307310D01*
X8299310Y13285210D02*
X8307310D01*
X552690Y13525210D02*
X560690D01*
X552690Y13448430D02*
X560690D01*
X8072690Y13285210D02*
X8080690D01*
X8072690Y13208430D02*
X8080690D01*
X8358060Y12092180D02*
X8366060D01*
X8358060Y12168960D02*
X8366060D01*
X8752690Y13493960D02*
X8760690D01*
X8752690Y13417180D02*
X8760690D01*
X5642690Y12882410D02*
X5650690D01*
X5642690Y12805630D02*
X5650690D01*
X6664310Y13448430D02*
X6672310D01*
X6664310Y13525210D02*
X6672310D01*
X7229310Y13723430D02*
X7237310D01*
X7229310Y13800210D02*
X7237310D01*
X7433060Y12098430D02*
X7441060D01*
X7433060Y12175210D02*
X7441060D01*
X3265190Y11487710D02*
X3273190D01*
X3265190Y11410930D02*
X3273190D01*
X7874310Y12093430D02*
X7882310D01*
X7874310Y12170210D02*
X7882310D01*
X3254310Y12713430D02*
X3262310D01*
X3254310Y12790210D02*
X3262310D01*
X2346440Y13656460D02*
X2354440D01*
X2346440Y13579680D02*
X2354440D01*
G54D15*
X4330310Y11931820D02*
X4336310D01*
X6128690Y12891820D02*
X6134690D01*
X4310310Y13126820D02*
X4316310D01*
X2323610Y10863430D02*
X2329610D01*
X7914950Y12131820D02*
X7920950D01*
X8453690Y12130570D02*
X8459690D01*
X8425310Y12316820D02*
X8431310D01*
X3352810Y11311820D02*
X3358810D01*
X991190Y12086820D02*
X997190D01*
X7490860Y12131820D02*
X7496860D01*
X4827440Y12811820D02*
X4833440D01*
X4330310Y12681820D02*
X4336310D01*
X4330310Y12431820D02*
X4336310D01*
X4330310Y12181820D02*
X4336310D01*
X4914060Y12943070D02*
X4920060D01*
X5813690Y12841820D02*
X5819690D01*
X5973690D02*
X5979690D01*
X8213690Y13246820D02*
X8219690D01*
X640310Y13486820D02*
X646310D01*
X8160310Y13246820D02*
X8166310D01*
X8272440Y12130570D02*
X8278440D01*
X8840310Y13455570D02*
X8846310D01*
X5730310Y12844020D02*
X5736310D01*
X6578690Y13486820D02*
X6584690D01*
X7143690Y13761820D02*
X7149690D01*
X7347440Y12136820D02*
X7353440D01*
X3352810Y11449320D02*
X3358810D01*
X7788690Y12131820D02*
X7794690D01*
X3168690Y12751820D02*
X3174690D01*
X2434060Y13618070D02*
X2440060D01*
G54D14*
X4088390Y11726130D02*
Y11734130D01*
X4011610Y11726130D02*
Y11734130D01*
X7901610Y13284510D02*
Y13292510D01*
X7978390Y13284510D02*
Y13292510D01*
X4536610Y12949510D02*
Y12957510D01*
X4613390Y12949510D02*
Y12957510D01*
X488390Y13519880D02*
Y13527880D01*
X411610Y13519880D02*
Y13527880D01*
X9396610Y13634510D02*
Y13642510D01*
X9473390Y13634510D02*
Y13642510D01*
X3507140Y11832380D02*
Y11840380D01*
X3430360Y11832380D02*
Y11840380D01*
X582140Y13107380D02*
Y13115380D01*
X505360Y13107380D02*
Y13115380D01*
X482140Y13382380D02*
Y13390380D01*
X405360Y13382380D02*
Y13390380D01*
X794640Y13419880D02*
Y13427880D01*
X717860Y13419880D02*
Y13427880D01*
X813390Y13151130D02*
Y13159130D01*
X736610Y13151130D02*
Y13159130D01*
X8236610Y12789510D02*
Y12797510D01*
X8313390Y12789510D02*
Y12797510D01*
X8031610Y12789510D02*
Y12797510D01*
X8108390Y12789510D02*
Y12797510D01*
X8241610Y12939510D02*
Y12947510D01*
X8318390Y12939510D02*
Y12947510D01*
X8041610Y12939510D02*
Y12947510D01*
X8118390Y12939510D02*
Y12947510D01*
X1361610Y12302010D02*
Y12310010D01*
X1438390Y12302010D02*
Y12310010D01*
X3556610Y12644510D02*
Y12652510D01*
X3633390Y12644510D02*
Y12652510D01*
X3556610Y12379510D02*
Y12387510D01*
X3633390Y12379510D02*
Y12387510D01*
X3556610Y12129510D02*
Y12137510D01*
X3633390Y12129510D02*
Y12137510D01*
X3556610Y11879510D02*
Y11887510D01*
X3633390Y11879510D02*
Y11887510D01*
X1399110Y12433260D02*
Y12441260D01*
X1475890Y12433260D02*
Y12441260D01*
X4836610Y13039510D02*
Y13047510D01*
X4913390Y13039510D02*
Y13047510D01*
X8091610Y12649510D02*
Y12657510D01*
X8168390Y12649510D02*
Y12657510D01*
X5731610Y12959510D02*
Y12967510D01*
X5808390Y12959510D02*
Y12967510D01*
X8130360Y13358260D02*
Y13366260D01*
X8207140Y13358260D02*
Y13366260D01*
X624110Y12958260D02*
Y12966260D01*
X700890Y12958260D02*
Y12966260D01*
X9526610Y13634510D02*
Y13642510D01*
X9603390Y13634510D02*
Y13642510D01*
X7596610Y13244510D02*
Y13252510D01*
X7673390Y13244510D02*
Y13252510D01*
X2623390Y13013630D02*
Y13021630D01*
X2546610Y13013630D02*
Y13021630D01*
X4701610Y13039510D02*
Y13047510D01*
X4778390Y13039510D02*
Y13047510D01*
X3923390Y13756130D02*
Y13764130D01*
X3846610Y13756130D02*
Y13764130D01*
X1905360Y13345760D02*
Y13353760D01*
X1982140Y13345760D02*
Y13353760D01*
X1219640Y11727010D02*
Y11735010D01*
X1142860Y11727010D02*
Y11735010D01*
G54D15*
X4050000Y11640510D02*
Y11646510D01*
X7940000Y13372130D02*
Y13378130D01*
X4575000Y13037130D02*
Y13043130D01*
X450000Y13434260D02*
Y13440260D01*
X9435000Y13722130D02*
Y13728130D01*
X3468750Y11746760D02*
Y11752760D01*
X543750Y13021760D02*
Y13027760D01*
X443750Y13296760D02*
Y13302760D01*
X756250Y13334260D02*
Y13340260D01*
X775000Y13065510D02*
Y13071510D01*
X8275000Y12877130D02*
Y12883130D01*
X8070000Y12877130D02*
Y12883130D01*
X8280000Y13027130D02*
Y13033130D01*
X8080000Y13027130D02*
Y13033130D01*
X1400000Y12389630D02*
Y12395630D01*
X3595000Y12732130D02*
Y12738130D01*
Y12467130D02*
Y12473130D01*
Y12217130D02*
Y12223130D01*
Y11967130D02*
Y11973130D01*
X1437500Y12520880D02*
Y12526880D01*
X4875000Y13127130D02*
Y13133130D01*
X8130000Y12737130D02*
Y12743130D01*
X5770000Y13047130D02*
Y13053130D01*
X8168750Y13445880D02*
Y13451880D01*
X662500Y13045880D02*
Y13051880D01*
X9565000Y13722130D02*
Y13728130D01*
X7635000Y13332130D02*
Y13338130D01*
X2585000Y12928010D02*
Y12934010D01*
X4740000Y13127130D02*
Y13133130D01*
X3885000Y13670510D02*
Y13676510D01*
X1943750Y13433380D02*
Y13439380D01*
X1181250Y11814630D02*
Y11820630D01*
G54D16*
X3264000Y12004820D02*
Y12018820D01*
X3336000Y12004820D02*
Y12018820D01*
X1979750Y12223570D02*
Y12237570D01*
X1907750Y12223570D02*
Y12237570D01*
X2746000Y12174820D02*
Y12188820D01*
X2674000Y12174820D02*
Y12188820D01*
X2464000Y10937890D02*
Y10951890D01*
X2536000Y10937890D02*
Y10951890D01*
X664000Y12473320D02*
Y12487320D01*
X736000Y12473320D02*
Y12487320D01*
X3331000Y12629820D02*
Y12643820D01*
X3259000Y12629820D02*
Y12643820D01*
X7398480Y12879820D02*
Y12893820D01*
X7326480Y12879820D02*
Y12893820D01*
X9920250Y13498570D02*
Y13512570D01*
X9992250Y13498570D02*
Y13512570D01*
X307750Y12804820D02*
Y12818820D01*
X379750Y12804820D02*
Y12818820D01*
X523500Y12804820D02*
Y12818820D01*
X451500Y12804820D02*
Y12818820D01*
X9920250Y13411070D02*
Y13425070D01*
X9992250Y13411070D02*
Y13425070D01*
X936000Y11464820D02*
Y11478820D01*
X864000Y11464820D02*
Y11478820D01*
X6291000Y13234820D02*
Y13248820D01*
X6219000Y13234820D02*
Y13248820D01*
X6641500Y12232320D02*
Y12246320D01*
X6713500Y12232320D02*
Y12246320D01*
X6641480Y12319820D02*
Y12333820D01*
X6713480Y12319820D02*
Y12333820D01*
X9448500Y13442320D02*
Y13456320D01*
X9376500Y13442320D02*
Y13456320D01*
X7599000Y13414820D02*
Y13428820D01*
X7671000Y13414820D02*
Y13428820D01*
X6579000Y13679820D02*
Y13693820D01*
X6651000Y13679820D02*
Y13693820D01*
X3069000Y12509820D02*
Y12523820D01*
X3141000Y12509820D02*
Y12523820D01*
G54D17*
X9359130Y13841880D02*
Y13871760D01*
X9532130Y13841880D02*
Y13871760D01*
X10561500Y13466880D02*
Y13496760D01*
X10388500Y13466880D02*
Y13496760D01*
X10713500Y13466880D02*
Y13496760D01*
X10886500Y13466880D02*
Y13496760D01*
X9032250Y11909380D02*
Y11939260D01*
X9205250Y11909380D02*
Y11939260D01*
G54D18*
X1127160Y12768070D03*
X772840D03*
X1127160Y12868070D03*
X772840D03*
X4048570Y12719400D03*
X3694240D03*
X4048570Y12819400D03*
X3694240D03*
X4048570Y12469400D03*
X3694240D03*
X4048570Y12569400D03*
X3694240D03*
X4048570Y12219400D03*
X3694240D03*
X4048570Y12319400D03*
X3694240D03*
X4048570Y11969400D03*
X3694240D03*
X4048570Y12069400D03*
X3694240D03*
X3579090Y11768070D03*
X3933410D03*
X3579090Y11668070D03*
X3933410D03*
G54D19*
X461175Y11626980D02*
X480865D01*
X461175Y11646660D02*
X480865D01*
X461175Y11607290D02*
X480865D01*
X461175Y11666350D02*
X480865D01*
X339135Y11607290D02*
X358825D01*
X339135Y11666350D02*
X358825D01*
X339135Y11626980D02*
X358825D01*
X339135Y11646660D02*
X358825D01*
G54D20*
X3236550Y12339280D02*
Y12369280D01*
X3144030Y12339280D02*
Y12369280D01*
X3329070Y12339280D02*
Y12369280D01*
G54D21*
X3201550Y12106280D02*
X3271550D01*
G54D20*
X7735000Y12829340D02*
X7765000D01*
X7735000Y12921860D02*
X7765000D01*
X7735000Y12736820D02*
X7765000D01*
G54D21*
X7502000Y12794340D02*
Y12864340D01*
G54D22*
X1811750Y11345090D02*
X1862750D01*
X1811750Y11325400D02*
X1862750D01*
X1811750Y11305720D02*
X1862750D01*
X1811750Y11286030D02*
X1862750D01*
X1811750Y11266350D02*
X1862750D01*
X1811750Y11246660D02*
X1862750D01*
X1811750Y11226980D02*
X1862750D01*
X1811750Y11207290D02*
X1862750D01*
X1811750Y11187610D02*
X1862750D01*
X1811750Y11167920D02*
X1862750D01*
X1811750Y11148240D02*
X1862750D01*
X1811750Y11128550D02*
X1862750D01*
X1487250Y11345090D02*
X1538250D01*
X1487250Y11325400D02*
X1538250D01*
X1487250Y11305720D02*
X1538250D01*
X1487250Y11286030D02*
X1538250D01*
X1487250Y11266350D02*
X1538250D01*
X1487250Y11246660D02*
X1538250D01*
X1487250Y11226980D02*
X1538250D01*
X1487250Y11207290D02*
X1538250D01*
X1487250Y11187610D02*
X1538250D01*
X1487250Y11167920D02*
X1538250D01*
X1487250Y11148240D02*
X1538250D01*
X1487250Y11128550D02*
X1538250D01*
X1783270Y11049070D02*
Y11100070D01*
X1763580Y11049070D02*
Y11100070D01*
X1743900Y11049070D02*
Y11100070D01*
X1724210Y11049070D02*
Y11100070D01*
X1704530Y11049070D02*
Y11100070D01*
X1684840Y11049070D02*
Y11100070D01*
X1665160Y11049070D02*
Y11100070D01*
X1645470Y11049070D02*
Y11100070D01*
X1625790Y11049070D02*
Y11100070D01*
X1606100Y11049070D02*
Y11100070D01*
X1586420Y11049070D02*
Y11100070D01*
X1566730Y11049070D02*
Y11100070D01*
X1783270Y11373570D02*
Y11424570D01*
X1763580Y11373570D02*
Y11424570D01*
X1743900Y11373570D02*
Y11424570D01*
X1724210Y11373570D02*
Y11424570D01*
X1704530Y11373570D02*
Y11424570D01*
X1684840Y11373570D02*
Y11424570D01*
X1665160Y11373570D02*
Y11424570D01*
X1645470Y11373570D02*
Y11424570D01*
X1625790Y11373570D02*
Y11424570D01*
X1606100Y11373570D02*
Y11424570D01*
X1586420Y11373570D02*
Y11424570D01*
X1566730Y11373570D02*
Y11424570D01*
G54D23*
X9553810Y13505870D02*
X9599810D01*
X9780190D02*
X9826190D01*
X9553810Y13531470D02*
X9599810D01*
X9553810Y13557060D02*
X9599810D01*
X9553810Y13582650D02*
X9599810D01*
X9780190D02*
X9826190D01*
X9780190Y13531470D02*
X9826190D01*
X9780190Y13557060D02*
X9826190D01*
X9553810Y13480290D02*
X9599810D01*
X9553810Y13429100D02*
X9599810D01*
X9553810Y13454690D02*
X9599810D01*
X9780190Y13480290D02*
X9826190D01*
X9780190Y13454690D02*
X9826190D01*
X9780190Y13429100D02*
X9826190D01*
G54D24*
X9690000Y13503900D02*
Y13507840D01*
G54D25*
X1350970Y12655670D02*
X1370970D01*
X1350970Y12730470D02*
X1370970D01*
X1441530Y12655670D02*
X1461530D01*
X1441530Y12730470D02*
X1461530D01*
X1441530Y12693070D02*
X1461530D01*
X2560280Y12555470D02*
X2580280D01*
X2560280Y12480670D02*
X2580280D01*
X2469720Y12555470D02*
X2489720D01*
X2469720Y12480670D02*
X2489720D01*
X2560280Y12518070D02*
X2580280D01*
X2469700D02*
X2489700D01*
X3014720Y12784420D02*
X3034720D01*
X3014720Y12859220D02*
X3034720D01*
X3105280Y12784420D02*
X3125280D01*
X3105280Y12859220D02*
X3125280D01*
X3014720Y12821820D02*
X3034720D01*
X3105300D02*
X3125300D01*
G54D22*
X2246540Y12042340D02*
Y12093340D01*
X2226850Y12042340D02*
Y12093340D01*
X2344960Y12042340D02*
Y12093340D01*
X2325280Y12042340D02*
Y12093340D01*
X2305590Y12042340D02*
Y12093340D01*
X2285910Y12042340D02*
Y12093340D01*
X2266220Y12042340D02*
Y12093340D01*
X2541810Y12042340D02*
Y12093340D01*
X2522130Y12042340D02*
Y12093340D01*
X2502440Y12042340D02*
Y12093340D01*
X2482760Y12042340D02*
Y12093340D01*
X2463070Y12042340D02*
Y12093340D01*
X2443390Y12042340D02*
Y12093340D01*
X2423700Y12042340D02*
Y12093340D01*
X2404020Y12042340D02*
Y12093340D01*
X2640240Y12042340D02*
Y12093340D01*
X2620550Y12042340D02*
Y12093340D01*
X2600870Y12042340D02*
Y12093340D01*
X2581180Y12042340D02*
Y12093340D01*
X2561500Y12042340D02*
Y12093340D01*
X2384330Y12042340D02*
Y12093340D01*
X2659920Y12042340D02*
Y12093340D01*
X2856770Y12042340D02*
Y12093340D01*
X2837090Y12042340D02*
Y12093340D01*
X2817400Y12042340D02*
Y12093340D01*
X2797720Y12042340D02*
Y12093340D01*
X2778030Y12042340D02*
Y12093340D01*
X2758350Y12042340D02*
Y12093340D01*
X2738660Y12042340D02*
Y12093340D01*
X2718980Y12042340D02*
Y12093340D01*
X2699290Y12042340D02*
Y12093340D01*
X2915830Y12042340D02*
Y12093340D01*
X2896140Y12042340D02*
Y12093340D01*
X2876460Y12042340D02*
Y12093340D01*
X2226850Y11207700D02*
Y11258700D01*
X2246540Y11207700D02*
Y11258700D01*
X2285910Y11207700D02*
Y11258700D01*
X2305590Y11207700D02*
Y11258700D01*
X2325280Y11207700D02*
Y11258700D01*
X2344960Y11207700D02*
Y11258700D01*
X2266220Y11207700D02*
Y11258700D01*
X2404020Y11207700D02*
Y11258700D01*
X2423700Y11207700D02*
Y11258700D01*
X2443390Y11207700D02*
Y11258700D01*
X2482760Y11207700D02*
Y11258700D01*
X2502440Y11207700D02*
Y11258700D01*
X2522130Y11207700D02*
Y11258700D01*
X2541810Y11207700D02*
Y11258700D01*
X2600870Y11207700D02*
Y11258700D01*
X2620550Y11207700D02*
Y11258700D01*
X2640240Y11207700D02*
Y11258700D01*
X2561500Y11207700D02*
Y11258700D01*
X2581180Y11207700D02*
Y11258700D01*
X2384330Y11207700D02*
Y11258700D01*
X2659920Y11207700D02*
Y11258700D01*
X2463070Y11207700D02*
Y11258700D01*
X2699290Y11207700D02*
Y11258700D01*
X2718980Y11207700D02*
Y11258700D01*
X2738660Y11207700D02*
Y11258700D01*
X2758350Y11207700D02*
Y11258700D01*
X2778030Y11207700D02*
Y11258700D01*
X2797720Y11207700D02*
Y11258700D01*
X2817400Y11207700D02*
Y11258700D01*
X2837090Y11207700D02*
Y11258700D01*
X2856770Y11207700D02*
Y11258700D01*
X2896140Y11207700D02*
Y11258700D01*
X2915830Y11207700D02*
Y11258700D01*
X2876460Y11207700D02*
Y11258700D01*
X2364650Y12042340D02*
Y12093340D01*
X2679610Y12042340D02*
Y12093340D01*
X2364650Y11207700D02*
Y11258700D01*
X2679610Y11207700D02*
Y11258700D01*
X2128520Y11995010D02*
X2179520D01*
X2128520Y11975320D02*
X2179520D01*
X2128520Y11935950D02*
X2179520D01*
X2128520Y11916270D02*
X2179520D01*
X2128520Y11896580D02*
X2179520D01*
X2128520Y11876900D02*
X2179520D01*
X2128520Y11857210D02*
X2179520D01*
X2128520Y11837530D02*
X2179520D01*
X2128520Y11817840D02*
X2179520D01*
X2128520Y11798160D02*
X2179520D01*
X2128520Y11778470D02*
X2179520D01*
X2128520Y11758790D02*
X2179520D01*
X2128520Y11739100D02*
X2179520D01*
X2128520Y11719420D02*
X2179520D01*
X2128520Y11699730D02*
X2179520D01*
X2128520Y11680050D02*
X2179520D01*
X2128520Y11620990D02*
X2179520D01*
X2128520Y11601310D02*
X2179520D01*
X2128520Y11581620D02*
X2179520D01*
X2128520Y11561940D02*
X2179520D01*
X2128520Y11542250D02*
X2179520D01*
X2128520Y11522570D02*
X2179520D01*
X2128520Y11502880D02*
X2179520D01*
X2128520Y11483200D02*
X2179520D01*
X2128520Y11463510D02*
X2179520D01*
X2128520Y11443830D02*
X2179520D01*
X2128520Y11424140D02*
X2179520D01*
X2128520Y11404460D02*
X2179520D01*
X2128520Y11384770D02*
X2179520D01*
X2128520Y11365090D02*
X2179520D01*
X2128520Y11325720D02*
X2179520D01*
X2128520Y11306030D02*
X2179520D01*
X2963160Y11975320D02*
X3014160D01*
X2963160Y11995010D02*
X3014160D01*
X2963160Y11680050D02*
X3014160D01*
X2963160Y11699730D02*
X3014160D01*
X2963160Y11719420D02*
X3014160D01*
X2963160Y11739100D02*
X3014160D01*
X2963160Y11758790D02*
X3014160D01*
X2963160Y11778470D02*
X3014160D01*
X2963160Y11798160D02*
X3014160D01*
X2963160Y11817840D02*
X3014160D01*
X2963160Y11837530D02*
X3014160D01*
X2963160Y11857210D02*
X3014160D01*
X2963160Y11876900D02*
X3014160D01*
X2963160Y11896580D02*
X3014160D01*
X2963160Y11916270D02*
X3014160D01*
X2963160Y11935950D02*
X3014160D01*
X2963160Y11365090D02*
X3014160D01*
X2963160Y11384770D02*
X3014160D01*
X2963160Y11404460D02*
X3014160D01*
X2963160Y11424140D02*
X3014160D01*
X2963160Y11443830D02*
X3014160D01*
X2963160Y11463510D02*
X3014160D01*
X2963160Y11483200D02*
X3014160D01*
X2963160Y11502880D02*
X3014160D01*
X2963160Y11522570D02*
X3014160D01*
X2963160Y11542250D02*
X3014160D01*
X2963160Y11561940D02*
X3014160D01*
X2963160Y11581620D02*
X3014160D01*
X2963160Y11601310D02*
X3014160D01*
X2963160Y11620990D02*
X3014160D01*
X2963160Y11306030D02*
X3014160D01*
X2963160Y11325720D02*
X3014160D01*
X2128520Y11955640D02*
X2179520D01*
X2128520Y11660360D02*
X2179520D01*
X2128520Y11640680D02*
X2179520D01*
X2128520Y11345400D02*
X2179520D01*
X2963160Y11640680D02*
X3014160D01*
X2963160Y11660360D02*
X3014160D01*
X2963160Y11955640D02*
X3014160D01*
X2963160Y11345400D02*
X3014160D01*
G54D26*
X1836910Y12961970D02*
Y12973970D01*
X1888090Y12961970D02*
Y12973970D01*
X1836910Y12887170D02*
Y12899170D01*
X1888090Y12887170D02*
Y12899170D01*
X1862500Y12961970D02*
Y12973970D01*
Y12887170D02*
Y12899170D01*
G54D24*
X1531250Y12986820D03*
G54D27*
X1386820Y12948430D02*
X1441820D01*
X1386820Y12974020D02*
X1441820D01*
X1620680D02*
X1675680D01*
X1620680Y12948430D02*
X1675680D01*
X1386820Y12999620D02*
X1441820D01*
X1386820Y13025210D02*
X1441820D01*
X1386820Y13050800D02*
X1441820D01*
X1386820Y13076390D02*
X1441820D01*
X1620680D02*
X1675680D01*
X1620680Y13050800D02*
X1675680D01*
X1620680Y13025210D02*
X1675680D01*
X1620680Y12999620D02*
X1675680D01*
X1386820Y12897250D02*
X1441820D01*
X1386820Y12922840D02*
X1441820D01*
X1620680D02*
X1675680D01*
X1620680Y12897250D02*
X1675680D01*
G54D25*
X9565000Y13111370D02*
Y13150370D01*
X9515000Y13111370D02*
Y13150370D01*
Y13311380D02*
Y13350380D01*
X9565000Y13311380D02*
Y13350380D01*
X9615000Y13111370D02*
Y13150370D01*
X9665000Y13111370D02*
Y13150370D01*
X9615000Y13311380D02*
Y13350380D01*
X9665000Y13311380D02*
Y13350380D01*
X9825000Y13111370D02*
Y13150370D01*
X9775000Y13111370D02*
Y13150370D01*
Y13311380D02*
Y13350380D01*
X9825000Y13311380D02*
Y13350380D01*
X9875000Y13111370D02*
Y13150370D01*
X9925000Y13111370D02*
Y13150370D01*
X9875000Y13311380D02*
Y13350380D01*
X9925000Y13311380D02*
Y13350380D01*
G54D28*
X1921500Y11153570D02*
Y11155570D01*
Y11122070D02*
Y11124070D01*
X1984500Y11153570D02*
Y11155570D01*
Y11122070D02*
Y11124070D01*
X1921500Y11185060D02*
Y11187060D01*
X1984500Y11185060D02*
Y11187060D01*
X1921500Y11090580D02*
Y11092580D01*
X1984500Y11090580D02*
Y11092580D01*
X1922010Y11313810D02*
Y11315810D01*
Y11282320D02*
Y11284320D01*
X1985000Y11313810D02*
Y11315810D01*
Y11282320D02*
Y11284320D01*
X1922010Y11345310D02*
Y11347310D01*
X1985000Y11345310D02*
Y11347310D01*
X1922010Y11250820D02*
Y11252820D01*
X1985000Y11250820D02*
Y11252820D01*
X3164750Y11348320D02*
X3166750D01*
X3133250D02*
X3135250D01*
X3164750Y11285320D02*
X3166750D01*
X3133250D02*
X3135250D01*
X3196240Y11348320D02*
X3198240D01*
X3196240Y11285320D02*
X3198240D01*
X3101760Y11348320D02*
X3103760D01*
X3101760Y11285320D02*
X3103760D01*
G54D29*
X8397000Y12819730D02*
X8413000D01*
X8397000Y12933910D02*
X8413000D01*
X2872000Y12892650D02*
X2888000D01*
X2872000Y13006820D02*
X2888000D01*
X3322000Y12737650D02*
X3338000D01*
X3322000Y12851820D02*
X3338000D01*
X1223250Y12998480D02*
X1239250D01*
X1223250Y13112660D02*
X1239250D01*
X1135750Y12998480D02*
X1151750D01*
X1135750Y13112660D02*
X1151750D01*
X1217000Y11582660D02*
X1233000D01*
X1217000Y11468480D02*
X1233000D01*
X5532910Y12986020D02*
Y13002020D01*
X5647090Y12986020D02*
Y13002020D01*
X4482910Y11678820D02*
Y11694820D01*
X4597090Y11678820D02*
Y11694820D01*
X4480410Y11053820D02*
Y11069820D01*
X4594590Y11053820D02*
Y11069820D01*
X2417910Y13110070D02*
Y13126070D01*
X2532090Y13110070D02*
Y13126070D01*
X9082090Y12741320D02*
Y12757320D01*
X8967910Y12741320D02*
Y12757320D01*
X3088340Y12953820D02*
Y12969820D01*
X2974160Y12953820D02*
Y12969820D01*
X9388340Y12085070D02*
Y12101070D01*
X9274160Y12085070D02*
Y12101070D01*
X9224160Y12741320D02*
Y12757320D01*
X9338340Y12741320D02*
Y12757320D01*
G54D30*
X7178900Y13273320D02*
Y13340320D01*
X7401100Y13273320D02*
Y13340320D01*
X6641100Y13138320D02*
Y13205320D01*
X6418900Y13138320D02*
Y13205320D01*
G54D31*
X1513490Y10783070D02*
X1652490D01*
X1887510D02*
X2026510D01*
X2637240Y10843070D02*
X2776240D01*
X3011260D02*
X3150260D01*
G54D32*
X2645000Y12254180D02*
Y12313240D01*
X2745000Y12254180D02*
Y12313240D01*
G54D33*
X2695000Y12451035D02*
Y12588825D01*
G54D34*
X307250Y10840020D02*
X380250D01*
X307250Y11021120D02*
X380250D01*
G54D35*
X8955750Y12377605D02*
Y12476035D01*
X9345510Y12377605D02*
Y12476035D01*
X8992620Y13043855D02*
Y13142285D01*
X9382380Y13043855D02*
Y13142285D01*
G54D36*
X2845040Y12650720D02*
X2974960D01*
X2845040Y12512920D02*
X2974960D01*
G54D34*
X9171800Y12056570D02*
Y12129570D01*
X8990700Y12056570D02*
Y12129570D01*
X10144450Y13105320D02*
Y13178320D01*
X10325550Y13105320D02*
Y13178320D01*
G54D37*
X7184410Y13461820D02*
X7235590D01*
X7184410Y13511820D02*
X7235590D01*
X7364410D02*
X7415590D01*
X7364410Y13461820D02*
X7415590D01*
X6420000Y13496230D02*
Y13547410D01*
X6470000Y13496230D02*
Y13547410D01*
Y13316230D02*
Y13367410D01*
X6420000Y13316230D02*
Y13367410D01*
G54D38*
X1402500Y13173430D02*
Y13204930D01*
X1502500Y13173430D02*
Y13204930D01*
Y13468710D02*
Y13500210D01*
X1402500Y13468710D02*
Y13500210D01*
G54D39*
X7578790Y11088490D02*
Y11110150D01*
X7208710Y11088490D02*
Y11110150D01*
X8710040Y11088490D02*
Y11110150D01*
X8339960Y11088490D02*
Y11110150D01*
X8147540Y11088490D02*
Y11110150D01*
X7777460Y11088490D02*
Y11110150D01*
G54D25*
X2865740Y12741820D02*
X2891740D01*
X2958260D02*
X2984260D01*
X2046990Y13418070D02*
X2072990D01*
X2139510D02*
X2165510D01*
X8640740Y12861820D02*
X8666740D01*
X8733260D02*
X8759260D01*
G54D30*
X1242500Y13331820D03*
Y13481820D03*
X5020000Y12956820D03*
Y13106820D03*
X5465000Y13105420D03*
Y13255420D03*
X5165000Y13029020D03*
Y13179020D03*
X7050000Y13271820D03*
Y13421820D03*
X6440000Y13811820D03*
Y13661820D03*
X2275000Y13349320D03*
Y13499320D03*
X1657500Y13331820D03*
Y13481820D03*
X5605000Y13161820D03*
X5755000D03*
X1800000Y12618070D03*
X1650000D03*
X6910000Y13551820D03*
X7060000D03*
X6130000Y13356820D03*
X6280000D03*
G54D40*
X98030Y11583910D02*
X101970D01*
X98030Y11469730D02*
X101970D01*
X503030Y11169730D02*
X506970D01*
X503030Y11283910D02*
X506970D01*
G54D25*
X5275000Y13064760D02*
Y13090760D01*
Y13157280D02*
Y13183280D01*
X5355000Y13066160D02*
Y13092160D01*
Y13158680D02*
Y13184680D01*
G54D16*
X7730500Y13013320D02*
X7744500D01*
X7730500Y13085320D02*
X7744500D01*
X1093000Y11595820D02*
X1107000D01*
X1093000Y11667820D02*
X1107000D01*
X3143000Y11822820D02*
X3157000D01*
X3143000Y11750820D02*
X3157000D01*
X1911750Y11772820D02*
X1925750D01*
X1911750Y11700820D02*
X1925750D01*
X7503000Y13427820D02*
X7517000D01*
X7503000Y13355820D02*
X7517000D01*
X550750Y11811820D02*
X611750D01*
X550750Y11933870D02*
X611750D01*
X10129500Y13275800D02*
X10190500D01*
X10129500Y13397840D02*
X10190500D01*
X10279500Y13275800D02*
X10340500D01*
X10279500Y13397840D02*
X10340500D01*
X7207730Y12462570D02*
Y12523570D01*
X7329770Y12462570D02*
Y12523570D01*
G54D17*
X10535060Y13190320D02*
X10564940D01*
X10535060Y13363320D02*
X10564940D01*
X10700060Y13190320D02*
X10729940D01*
X10700060Y13363320D02*
X10729940D01*
G36*
X10200000Y11152160D02*
X10114300Y11237860D01*
X10200000Y11323560D01*
X10285700Y11237860D01*
X10200000Y11152160D01*
G37*
G36*
Y10551120D02*
X10114300Y10636820D01*
X10200000Y10722520D01*
X10285700Y10636820D01*
X10200000Y10551120D01*
G37*
G36*
X9598960D02*
X9513260Y10636820D01*
X9598960Y10722520D01*
X9684660Y10636820D01*
X9598960Y10551120D01*
G37*
G36*
Y11152160D02*
X9513260Y11237860D01*
X9598960Y11323560D01*
X9684660Y11237860D01*
X9598960Y11152160D01*
G37*
G54D41*
X9455860Y11130570D02*
X9534600D01*
X9455860Y10736870D02*
X9534600D01*
X10266880D02*
X10345620D01*
X10266880Y11130570D02*
X10345620D01*
G54D21*
X1849000Y12593070D02*
Y12643070D01*
X1601000Y12593070D02*
Y12643070D01*
G54D18*
X1638000Y12605070D02*
Y12634070D01*
X1808000Y12605070D02*
Y12634070D01*
X6595000Y12447320D02*
Y12476320D01*
X6765000Y12447320D02*
Y12476320D01*
G54D12*
X1783220Y12043070D02*
X1820620D01*
X1783220Y12093070D02*
X1820620D01*
X1783220Y12143070D02*
X1820620D01*
X1783220Y12193070D02*
X1820620D01*
X1491880Y12043070D02*
X1529280D01*
X1491880Y12093070D02*
X1529280D01*
X1491880Y12143070D02*
X1529280D01*
X1491880Y12193070D02*
X1529280D01*
G54D42*
X0Y10511820D02*
X11100000D01*
Y14015760D01*
X0D02*
X11100000D01*
X0Y10511820D02*
Y14015760D01*
G54D43*
X-196850Y13425209D03*
X11296850D03*
X-196850Y1181102D03*
X11296850D03*
G54D42*
X11100000Y14015760D02*
Y0D01*
X0D02*
Y14015760D01*
Y0D02*
Y14015760D01*
X11100000Y0D02*
Y14015760D01*
X-393701Y3503940D02*
X11493701D01*
X-393701Y7007880D02*
X11493701D01*
X-393701Y10511820D02*
X11493701D01*
Y13996075D02*
Y19685D01*
X11474016Y0D02*
X-374016D01*
X-393701Y19685D02*
Y13996075D01*
X-374016Y14015760D02*
X11474016D01*
X-374016D02*
X-378387Y14015269D01*
X-382540Y14013819D01*
X-386267Y14011483D01*
X-389382Y14008378D01*
X-391731Y14004659D01*
X-393194Y14000511D01*
X-393701Y13996142D01*
X-393701Y13996075D01*
X11474016Y14015760D02*
X11478387Y14015269D01*
X11482540Y14013819D01*
X11486267Y14011483D01*
X11489382Y14008378D01*
X11491731Y14004659D01*
X11493194Y14000511D01*
X11493701Y13996142D01*
X11493701Y13996075D01*
X11474016Y0D02*
X11478387Y491D01*
X11482540Y1941D01*
X11486267Y4277D01*
X11489382Y7382D01*
X11491731Y11101D01*
X11493194Y15249D01*
X11493701Y19618D01*
X11493701Y19685D01*
X-393701D02*
X-393209Y15314D01*
X-391760Y11161D01*
X-389424Y7434D01*
X-386319Y4319D01*
X-382600Y1970D01*
X-378452Y506D01*
X-374083Y0D01*
X-374016Y0D01*
M02*
