M48
;Layer_Color=9474304
;FILE_FORMAT=2:5
INCH,LZ
;TYPE=PLATED
T1F00S00C0.01575
T2F00S00C0.01772
T3F00S00C0.03150
T4F00S00C0.03543
T5F00S00C0.03937
T6F00S00C0.04331
T7F00S00C0.04724
T8F00S00C0.05118
T9F00S00C0.05512
T10F00S00C0.06299
%
T01
X0130625Y0110625
X0345Y0241875
X041625Y0278125
X058125Y0241875
X07525Y027125
T02
X0985625Y0094375
X10125
X1039375
X106625
X1073125Y010375
X1048125Y0124375
X095875Y0094375
X0931875
X091125
X0895
X0886875Y010375
X087875Y0111875
X091625Y0113125
X0910625Y012375
Y01275
X0907023Y0125
X0920625Y0125625
X0625492Y0127559
X0591535Y0127165
X0556398Y0127067
X0520177Y0127362
X0512Y0079
X05335Y00785
X05415
X05485
X0568
X0576
X0583
X06025
X06105
X06175
X0505Y0079
X0497
X04455Y00975
X04295Y01095
X03475Y01175
X032125Y01075
X03175Y0110625
X03165Y0124
X02995Y0126
X02975Y0118
X03Y0111
X0301Y0106
Y0101
X0295Y009625
X0294375Y009125
X03005Y0085
X0298Y00805
X03Y007625
X0293Y007725
X0288
X028625Y0064375
X028375Y005625
X02875Y005375
X0294375Y0051875
X0298125Y005
X0303125Y005125
X03025Y004625
X0295625Y00325
X0288125
X0281875
X027625Y0033125
X0264375
X0251875Y00325
X024375Y0030625
X0239375Y00325
X0234375Y003125
X022875
X0224Y00315
X0226Y0037
X0233
X02425Y0025
X0243125Y002
X025Y00225
X026139Y002236
X02675Y00225
X027Y0018125
X0270625Y0013125
X0264375Y001375
X0260625Y0005625
X0249375
X0240625
X0236875Y0013125
X022625Y001375
X0218125Y000875
X0210625Y001
X0198125Y0011161
Y0025
X0200625Y0029375
X021375Y003
Y00225
X0219375
X0213125Y004625
X0218125Y0059375
X0208125Y0068125
X02015Y00625
X0201875Y0084375
X0219375Y008625
X02325
X024125Y0085625
X0245Y008375
X0255625Y0083125
X0253125Y008
X025125Y0076875
X0250625Y0073125
X0261875Y00725
X026125Y0076875
Y0066875
X0256562Y0066562
X0258125Y0058375
X025375Y0058125
X0265
X0262Y00455
X0257803Y0045803
X0275Y0049
X027875Y0048125
X0278125Y00225
X02845Y00205
X0303125Y002
Y0013125
Y000625
X02925Y-0005
X0281875Y-0015625
X0274375Y000625
X0230625Y0003125
X023625Y0058125
X0240543Y0058043
X02725Y00695
Y0075
X027Y008975
X02715Y01085
X0253125Y01075
X0249375Y0108125
X024875Y0104375
X0256875Y01025
X024375Y0110625
X02425Y0115
X023875
X0235625Y0113125
X0238125Y0108125
X02275Y0105
X021875Y0106875
Y011125
X0215Y0111875
X0214375Y0115625
X0208125Y0113125
X020875Y0109375
X0201697Y0104697
X020125Y0115625
X0204375Y0121875
X0208125Y012125
X0205625Y0125625
X02014Y0127975
X02277Y01165
X0235625Y012125
X02475Y01225
X025125Y012125
X0255152Y0127973
X026375Y012125
X02675Y0124375
X02725Y01275
X0288Y0101
X029375Y00675
X0318125Y0055
X031625Y0086
X032Y0090625
X018875Y0085625
Y008125
X01791Y00842
X017625Y008
X017125Y007875
X016875Y0074375
X016375
X01805Y00735
X0176875Y0069375
X018625Y0066875
Y0059375
X0183125Y00625
X018375Y0055625
X01835Y0051
X01754Y00507
X01905Y00495
X01957
X019125Y0039375
X0184375Y00375
X01826Y00412
X018375Y0029375
X0189375
X0194875
X0186Y00185
X018375Y001375
X0176875
X0176125Y0024
X0171625Y0028
X0168125Y00325
X0161875Y0034375
X015625Y00425
X0151875Y004375
X0143125Y00425
X01375
Y00535
Y00595
X0144375Y006125
Y0051875
X0155625Y005375
X0158125Y0050625
X01575Y00615
X0143125Y0075625
X0138125Y0076875
X0133125Y0075
X0124375Y007125
Y0065625
X0125Y0059375
Y0055
X0124375Y0050625
X0125Y00435
X012875Y0036875
X0121875Y003125
X011436Y003664
X011375Y00225
X010375Y0031875
X0095Y00375
X0109375Y0049375
X01095Y00535
Y00595
Y00655
Y00715
X0091875Y00725
X0090625Y00825
X009625Y0088125
X00965Y00956
X01025Y0092875
X01075Y00975
X0105581Y0101919
X0106875Y0106875
X0110625Y01175
X00925
X0073125Y0121875
X0074Y00986
X00815Y00987
X008139Y0104235
X0068125Y0094375
X0058Y0089
Y0083
X00575Y0077
X00475Y0079375
X004775Y008475
X0051875Y009
X004875Y0106875
X00475Y00675
Y005
X0055625Y00375
X0053625Y-0000375
X004125Y-0008125
X006625
X00875
X0095125Y-0000375
X0110625Y000375
X0124Y00035
Y0009
X0129Y0014
X0136
X013625Y0020625
X01325Y0025625
X0144Y00165
X0152Y00095
Y00035
X0147625Y0000125
X0138125
X0129125
X013Y-0008125
X010875
X015125
X01725
X0169125Y0000125
X0177625
X0185125
X019Y00035
Y0009
X019375Y-00075
X0162Y00035
Y0009
X0158125Y0015
X01498Y0031
X0152Y009
X01485Y00925
X0144375Y0091875
X0155625Y00925
X0159375Y0091875
X0160625Y0095625
X0165625Y0090625
X017Y009
X0171875Y011125
X0178125Y010614
X018875Y010125
X0163265Y01075
X016125Y01225
X01525Y0114375
X014625Y0125625
X0134375Y012125
X0126875Y0103125
X0128125Y009
X007375Y0083125
X0175625Y01275
X0024375Y0125
Y012
Y010125
X0021875Y009625
X00205Y009
X003125Y0087112
X00331Y00926
X00325Y0096875
X00355Y00825
X0036Y00765
X0040625Y0075
X001875Y007125
X001375
X00085Y0076
X0008125Y0080625
X00035Y00705
X-0009375Y007
X-0015625Y0069375
Y00825
X-001Y00925
X-0015625Y009875
X000125Y0100625
X-00075Y01221
X-0015625Y005625
Y0038125
Y001625
X-0006875Y0021875
X0001875Y0013125
X0014375Y00025
X0025Y0004375
X0020625Y-000625
X003Y-0015625
X00025
X003625Y000875
X0034375Y00325
X0025Y00375
Y00275
X002Y00555
X0015625Y0196875
X00185Y021625
X0021875Y0234375
X0013125Y0239375
X00275Y024625
X0038125Y02575
X003Y0274375
X0014375Y027
X00375Y021
X0035625Y0201875
X0043125Y020625
X00425Y0220625
X004125Y023375
X0045Y0239375
X0050625Y025
X005Y026625
X0044515Y0270625
X006125Y026125
X010975Y0262
Y025264
Y0247
X010875Y024
X01213Y02403
X0129375Y0240625
X0135Y02325
X013625Y022875
X0131875Y0229375
X01325Y0225
X0128125Y0225625
Y022125
X0121875Y0215
X0136875Y0211875
X01375Y0205625
X014Y02
X01525Y019875
X015125Y0205625
X0152412Y0218213
X0155625Y0221875
X0159375Y022625
Y023625
X0154375
X015375Y0246875
X0144375Y0240625
X0164375
X0168125Y023
X01725Y0225
X0173125Y0214375
X016875Y0213125
X01635Y0211875
X0164375Y0200625
X0159375Y018
X0165Y0173125
Y0168125
X016125Y016375
X01725Y0164375
X0175625Y017
X017125Y0176875
X0175625Y0183125
X0185Y017625
X0193125Y0175625
X0195Y0179375
X01925Y0164375
X0189375Y0160625
X0184375Y0153125
X01775Y014625
X0170625Y0145625
X01675Y0143125
X017375Y01425
Y0138125
X017Y012875
X0153125Y0134375
X0139375Y013
X0125Y0133125
X0123125Y0138125
X011Y0136875
X011625Y0129375
X0115625Y0146875
X0123125Y0153125
X012875Y0159375
X014Y016
X014125Y0165
X014625Y016375
Y01775
X014Y018125
X0133125Y018375
Y018875
X0131875Y019375
X012875Y01775
X0112015Y01825
X0106875Y018125
X0095625Y019
X01Y0195
X0090625Y019875
X0096875Y02225
X0103125
X01025Y02175
X011Y0223125
X0116875Y0255625
X0120625Y0266875
X0136875Y0270625
Y0255
X015475Y0262
X0163125Y026125
X0169375Y026875
X016875Y027375
X01575
X0179375Y0274375
X017875Y026875
X0189Y0284
X019125Y0214375
X0195345Y02125
X0186875Y0210625
X0195625Y0148125
X0194375Y0143125
Y0138125
X0156875Y0154375
X0151875Y01525
X0146875Y0148125
X01375Y015125
X011125Y016125
X0098125
X009875Y0168125
X009375Y0149375
X00975Y014125
X0098125Y0128125
X008375Y0144375
X0065625Y0140625
X006625Y0150625
X00925Y028375
X01975Y0281875
X019875Y02775
X0198125Y0265625
Y026125
X021625Y0263125
X02275Y026125
X0236875Y0270625
X023875Y0274375
X0245625
X025375Y02725
X0254375Y026375
X0251875Y0253125
X025375Y0245
X024625Y0244375
X02475Y0234375
X024625Y0211875
X0246875Y02075
X0245Y0203125
X0244375Y0198125
X0255Y019625
X026Y0203
X0259Y021
X0281875Y022
Y0234375
X0289Y02335
X0294375Y0235625
X02975Y0231875
X03035Y0229
X03075Y0234375
X03125Y02375
X0315625Y023375
X0321875Y0233125
X0318125Y0229375
X032Y021625
X032625Y0211875
X0331875Y0210625
X033375Y0205
X033625Y02175
X03475
X0346875Y019375
X0347Y01675
X0331875Y0174375
X033375Y0179375
X0329Y0181875
X03185Y0184
X0315625Y0179375
X0321875Y0174375
X03225Y018875
X03185Y01925
X0301
X02975Y01895
X03025Y0184
X02995Y01805
X03Y01725
X0283125Y0171875
X02725
X0271875Y0156875
X02725Y015125
X0285Y01492
Y0144
Y013875
X029125Y0143125
X029875Y0151875
X0285Y01545
Y016
X028875Y0165625
X02625
X025Y016625
Y016
X0240625Y015
X024075Y01445
X0234375Y0145625
X0235625Y0150625
X023Y01425
X0228125Y0129375
X0231875
X0235625
X0214375
X0199375Y0139375
X02Y015
X0205
X020375Y0155
X021Y015625
X0211875Y0165
X0216875
X0221875
X0225Y017
X0221875Y0178125
X022125Y0181875
X0225625Y0188125
Y019375
Y0210625
X02175Y0214375
X021875Y0225
X02275Y022125
X0213125Y0239375
X0210625Y017875
X021Y017361
X0260625Y014375
X026Y0129375
X02995Y0132
X0314375Y0139375
X0315Y0145
X032Y013
X03275Y01315
X03325Y0135625
X0329375Y015125
X0329Y0156
X0334375Y015375
X0347Y0142
X0329375Y0224375
X0338125Y0235625
X032625Y024375
X0319375
X031875Y0269375
X0296Y0264
X0295625Y02475
X0298Y0209
X03475Y02575
X035375Y0245
X0375Y02585
X0403Y02495
X0419Y0251
X04215Y025864
X0438
X04545Y0254
X04495Y0245
X0444Y0235
X045Y0229
X0457839Y0237339
X04765Y02445
X04905Y023972
X0488Y02245
X04965Y02255
X04675Y0219
Y02135
X04665Y02035
X0479Y0204
X0441339Y0219839
X04295Y0224
X0433669Y0232831
X0426Y02725
X05075Y02645
Y0129811
X04295Y01345
Y016
Y0185
X03965Y0186
X0384857Y01915
Y01665
X03965Y0161
Y0136
X0384857Y01415
Y02165
X03965Y0211
X05265Y02295
X05325Y023922
X05405Y0239
X0549Y0234
X0562Y024
X0569Y0232
X05665Y02265
X05695Y02215
X0586331Y0220654
X059375Y0233125
X0608125Y0228125
X06065Y02145
X05815Y02045
X0572Y01995
X05545Y019972
X0549Y02615
X0593Y025825
X05965Y0253
X064411Y02555
X06515Y0272
Y0281339
X0665Y0284
X0658748Y0151
X0654Y01445
X0636248Y0151
X0625197Y0133563
X0613095Y0129905
X059124Y0133169
X05785Y0129811
X0556102Y0133071
X0544Y0129811
X0519882Y0133366
X0704375Y0144375
X0710625Y0155625
X07175Y01625
X0704375Y0165625
X070625Y017375
X071875Y0178125
X0720498Y0185375
X0713125Y018625
X0706875Y01925
X0694375Y0185625
X0689375Y020625
X0685625Y0220625
X07075Y02175
X070375Y02375
X0718125Y0235
X0729375Y02225
X072875Y0199375
X0726814Y0196189
X0728125Y01925
X0739375Y0193125
X0735625Y017625
X07425Y0175
X0744375Y016
X07475Y015125
X07525Y014625
X0738125Y0150625
X0726875Y0153125
X073Y01675
X076Y016
X076875
X0773125Y0146875
X0786126Y0146
X0792126Y0144375
X08025Y014625
X0808125Y016
X082Y0155
X0785625Y015375
X078875Y016
X07925Y01725
X0803125Y0175
X0809375Y0185
X0793125
X0776875
X0775Y017375
X075875Y0179375
X075375Y0185625
X076375Y0186875
X0765Y0194375
X0768125Y020375
X077625Y0208125
X0781875Y02175
X07825Y0230625
X07775Y0234375
Y024
X0783125Y0240625
X0793125Y023875
Y0248125
X0795Y0259375
X080375
X0805911Y0249661
X0798125Y0233125
Y0218125
X0792Y0213
X0788125Y02
X0815625Y0205
X08205Y02055
X08125Y0213
X0815625Y0265
X082125
X0813125Y0275
X0803125
X0791875Y0275625
X0786875Y027875
X0768Y0267
Y02535
X0774375Y025375
X076125Y0240625
X0766875Y023
X0747348Y0236098
X074Y0246875
X0735Y02535
X0731Y026
X0749Y0265
X0747Y0284
X0756Y02795
X070875Y0283125
X06705Y0278
X067875Y0256
X0685Y025
X081875Y028375
X0825Y0273125
X084125
X0840625Y0265
X0839375Y0254375
X085Y025875
X085125Y0270625
X085875Y0265
X0870625Y026875
X087125Y0274375
X086875Y0278125
X0855625Y02825
X0838125Y028375
X0865Y025125
Y0226875
X086Y0219375
Y0210625
X0858125Y0199375
X0851875
X0845625
X0840625
X0834375Y019875
X08425Y0210625
X0845Y022
X082925Y022125
X082375Y0188125
X08275Y0146875
X084Y014625
X0856875Y0144375
Y014875
X0861875
Y0144375
X087Y015
X087125Y0134375
X0845625Y013125
X0888125Y014875
X0895625Y016125
Y0179375
X088375Y018625
X0865625Y0185
X0866875Y019875
X087625Y021375
X08825Y020875
X0895063Y0208
Y01995
X0901875Y0195
X0925625Y0185
X094125Y018625
X0955625
X0953125Y02225
Y026125
X0950625Y026625
X09535Y0270406
X0953125Y0275
Y0279375
Y028375
X0945
Y0279375
Y0275
Y0270406
X09415Y0266905
X09365Y0267
X0927Y02665
X09295Y0278
X091125Y0273125
X09Y02775
X089875Y0261875
X0896875Y02525
X088875Y02425
X0899375Y0234375
X0885Y0260625
X09365Y0255405
X09415
X09465Y0255453
X0966875Y027375
X096625Y0279375
X0978125Y0265
X0925625Y0166875
Y0145
X0911875Y0149375
X0907023Y012875
X1048125Y015125
Y0178125
Y0205
Y022625
X10515Y024175
X106Y0248
X1065625Y0245
X1073125Y0238125
Y0265
X10685Y0269375
X1064375Y026625
X1024375Y0265
X10205Y02565
X1020625Y02475
Y0243125
Y023875
X1035Y024175
X0999375Y0221875
X09825Y02535
X0985625Y0268125
X0985Y0279405
X0993125Y0275
X099875
X100625
X10125
Y0280625
X1073125Y021125
Y0184375
Y01575
Y0130625
X10685Y0286
X1073125Y0291875
X1064375Y0293125
X1068125Y0299375
X10575Y0315625
X10375Y0316875
X104125Y032625
X1014375
X1026875Y0313125
X10185Y02875
X098375
X0988125Y030375
X09875Y032625
X1068125
X0975625Y032
Y0293125
X0971Y02925
X0964375Y0301875
X09525Y0308125
X0941875Y030625
X0948125Y0296875
X0945Y029375
X0954375Y0291875
X093Y02975
Y03025
X0924784Y0307921
X09175Y03225
X0906875Y032625
X0896592Y0324236
X0889375Y0321875
X088Y032625
X08725Y0321875
X0864126Y0317
Y031
Y0303
Y02965
X08675Y0291875
X0858125Y0290625
X08575Y0300625
X0835625Y0308125
X08275Y0305625
Y0288125
X0828125Y032625
X0853125
X088875Y0291875
X09025Y0289
X093125Y0285
X08025Y028625
X08Y0308125
Y032625
X07675
Y0308125
X0739375Y032625
X07025
X06985Y03
X0695Y029
X0704
X071Y03025
X068664Y031014
X0729375Y0285
X07395Y02845
X0664Y0305
X065Y03
X0637Y0304
X063025Y0309
X0625Y032625
X0649375
X06425Y0285
X0607Y0299
X059625Y032625
X0551875
X05
X04675
X044
X04125
X03775
X0373Y03005
X0361331Y03015
X0363669Y0296169
X03905Y0296
X0350625Y032625
X03175
X029
X0258125
X0267Y03035
Y0296
Y0287
X022Y0285625
X0223906Y0294531
X0215Y029875
X02Y032625
X0192Y032
X0172Y0312
X01675Y032625
X0166875Y0285
X012025
X0101875Y0325625
T03
X085125Y005125
X073125Y0050625
X06105Y0045961
Y0066039
X0576
Y0045961
X05415
Y0066039
X0505Y0066539
Y0046461
X0294375Y0155625
X032125Y02025
X095125Y0195
X097125
T04
X0835374Y00585
X085125Y0071083
Y0093917
X0805374Y00885
Y00585
X0789342
X0759342
X0743811
X0713811
Y00885
X0759342
X0396875Y0080625
Y0050625
X0366875
X0326875
Y0080625
X009Y0061181
X008
X007
X006
X0055Y0051181
X0065
X0075
X0085
X0713811Y01285
X0743811
X0759342
X0789342
X0805374
X0835374
X0952528Y0321843
X0973Y0312
T05
X0873125Y-001
Y005
X0231Y-0006
X0221
X0211
X0201
X0097421Y001
X0087421
X0057618
X0047618
X0145354Y0101
Y0111
X0181968Y0115827
Y0125827
X000125Y01225
Y01125
X-0000315Y0061732
X0011496
Y0049921
X-0000315
X000125Y01525
Y01625
Y01725
X0Y0205
X01755Y02015
Y01915
X01855
X01955
Y02015
X01855
X02055
Y01915
X02155
Y02015
X0639748Y01975
X0659748
X0689748
X0699748
X0Y0295
T06
X1029961Y0113858
X1059488
X0976811
X0947283
X1029961Y0196535
X1059488
X0595Y0286024
Y0296024
X0585
Y0286024
X0575
Y0296024
X0565
Y0286024
X0555
Y0296024
X0545
Y0286024
X0535
Y0296024
X0525
Y0286024
X0515
Y0296024
X0505
Y0286024
X0495
Y0296024
X0485
Y0286024
X0475
Y0296024
T07
X0890007Y0005063
X0890243Y0036187
T08
X0843779Y-0010433
Y0019567
X081378
Y-0010433
X0783779
Y0019567
X075378
Y-0010433
X0723779
Y0019567
X069378
Y-0010433
X0663779
Y0019567
X0633779
Y-0010433
X060378
Y0019567
X0573779
Y-0010433
X054378
Y0019567
X0513779
Y-0010433
X0483779
Y0019567
X045378
Y-0010433
X0423779
Y0019567
X0393779
Y-0010433
X0363779
Y0019567
X033378
Y-0010433
X0063779Y0292717
Y0322716
X0033779
Y0292717
T09
X1035512Y0009331
X1052047
X0060905Y0115433
Y0131968
X1002441Y0301063
X1018976
X1035512
X1052047
T10
X0041221Y0041535
X0103819
M30
